<!-- ##color:mono ##group:geology -->
<svg viewBox="0 0 28 28" fill="none" xmlns="http://www.w3.org/2000/svg">
  <path
    fill-rule="evenodd"
    clip-rule="evenodd"
    d="M18 21.1679C21.5318 19.6248 24 16.1006 24 12C24 6.47715 19.5228 2 14 2C8.47715 2 4 6.47715 4 12C4 16.1006 6.46819 19.6248 10 21.1679V23H8C7.44772 23 7 23.4477 7 24V25C7 25.5523 7.44772 26 8 26H20C20.5523 26 21 25.5523 21 25V24C21 23.4477 20.5523 23 20 23H18V21.1679ZM9.75735 7.75736C9.55664 7.95806 9.54068 8.27821 9.72042 8.49789L12.0926 11.3972C11.8756 12.0857 12.04 12.8684 12.5858 13.4142C13.0305 13.859 13.6326 14.0505 14.2129 13.9887L15.4179 15.4615C15.6052 15.6904 15.9493 15.7076 16.1584 15.4984L17.4984 14.1584C17.7076 13.9493 17.6904 13.6052 17.4615 13.4179L15.9887 12.2129C16.0505 11.6326 15.859 11.0305 15.4142 10.5858C14.8684 10.04 14.0857 9.87561 13.3972 10.0926L10.4979 7.72042C10.2782 7.54068 9.95806 7.55665 9.75735 7.75736Z"
  />
</svg>
