<!-- ##color:mono ##group:nature -->
<svg viewBox="0 0 28 28" fill="none" xmlns="http://www.w3.org/2000/svg">
  <path
    fill-rule="evenodd"
    clip-rule="evenodd"
    d="M14 26C20.6274 26 26 20.6274 26 14C26 7.37258 20.6274 2 14 2C7.37258 2 2 7.37258 2 14C2 20.6274 7.37258 26 14 26ZM10.3448 21.5215L10.942 22.4672C9.12193 21.8097 7.57457 20.5821 6.51555 19H9.15099L9.20616 19.1586C9.49433 19.9871 9.87634 20.7799 10.3448 21.5215ZM16.6557 16C16.9491 14.6801 16.9234 13.3085 16.5804 12H11.4196C11.0766 13.3085 11.0509 14.6801 11.3443 16H16.6557ZM18.7004 9L18.6785 8.94248C18.4666 8.38636 18.2119 7.84753 17.9167 7.33083L16.8475 5.45975C18.7587 6.09668 20.3848 7.35724 21.4845 9H18.7004ZM19.6544 12C19.9062 13.3197 19.9249 14.6738 19.7094 16H22.777C22.9229 15.3568 23 14.6874 23 14C23 13.3126 22.9229 12.6432 22.777 12H19.6544ZM15.623 19H12.377C12.5258 19.3163 12.6942 19.6235 12.8812 19.9196L14 21.691L15.1188 19.9196C15.3058 19.6235 15.4742 19.3163 15.623 19ZM17.058 22.4671L17.6552 21.5215C18.1237 20.7799 18.5057 19.9871 18.7938 19.1586L18.849 19H21.4845C20.4254 20.5821 18.8781 21.8097 17.058 22.4671ZM14 6.52338L12.6881 8.81925C12.6539 8.8791 12.6204 8.93936 12.5877 9H15.4123C15.3796 8.93936 15.3461 8.8791 15.3119 8.81925L14 6.52338ZM8.29063 16C8.07514 14.6738 8.09377 13.3197 8.3456 12H5.22302C5.07706 12.6432 5 13.3126 5 14C5 14.6874 5.07706 15.3568 5.22302 16H8.29063ZM6.51555 9H9.29962L9.32153 8.94248C9.53339 8.38636 9.78809 7.84753 10.0833 7.33083L11.1525 5.45975C9.24131 6.09668 7.61518 7.35724 6.51555 9Z"
  />
</svg>
