<!-- ##color:multiple ##group:colored -->
<svg viewBox="0 0 16 10" fill="none" xmlns="http://www.w3.org/2000/svg">
  <path
    d="M2.5 7L1 8.5H2.5L4 4L2.5 7Z"
    fill="var(--color-bg-normal)"
    stroke="var(--color-bg-normal)"
    stroke-width="1.5"
    stroke-linejoin="round"
  />
  <path
    d="M5.27244 6.78445L4.79976 7.3753C4.27595 8.03007 4.74212 9 5.58062 9H13.523C14.2304 9 14.7142 8.28547 14.4514 7.62861L14.1822 6.95539C14.0673 6.66814 13.8259 6.45025 13.5284 6.36526L10.7331 5.5666C10.5799 5.52283 10.4185 5.5163 10.2623 5.54755L5.8572 6.42856C5.62648 6.4747 5.41942 6.60072 5.27244 6.78445Z"
    fill="var(--color-bg-border)"
    stroke="var(--color-bg-normal)"
  />
  <path
    d="M13.5 0.5V4.30629C13.5 4.64757 13.1657 4.88855 12.8419 4.78063L10.6381 4.04604C10.5479 4.01597 10.451 4.01225 10.3587 4.03531L7.55465 4.73634C7.14023 4.83994 6.79513 4.40974 6.98617 4.02766L7.8618 2.27639C7.9465 2.107 8.11963 2 8.30902 2H9.69098C9.88037 2 10.0535 1.893 10.1382 1.72361L10.8618 0.276393C10.9465 0.107001 11.1196 0 11.309 0H13C13.2761 0 13.5 0.223858 13.5 0.5Z"
    fill="var(--color-bg-border)"
  />
</svg>
