<!-- ##color:multiple ##group:geo -->
<svg viewBox="0 0 16 16" fill="none" xmlns="http://www.w3.org/2000/svg">
  <path
    d="M4 5H5L3.5 2L2 5H3L3 7C2.72386 7 2.5 7.22386 2.5 7.5C2.5 7.77614 2.72386 8 3 8V10C2.72386 10 2.5 10.2239 2.5 10.5C2.5 10.7761 2.72386 11 3 11L3 13.5C3 13.7761 3.22386 14 3.5 14C3.77614 14 4 13.7761 4 13.5L4 11C4.27614 11 4.5 10.7761 4.5 10.5C4.5 10.2239 4.27614 10 4 10V8C4.27614 8 4.5 7.77614 4.5 7.5C4.5 7.22386 4.27614 7 4 7V5Z"
    fill="var(--color-typo-system)"
  />
  <path
    d="M11 13V14L14 12.5L11 11V12L9 12C9 11.7239 8.77614 11.5 8.5 11.5C8.22386 11.5 8 11.7239 8 12H6C6 11.7239 5.77614 11.5 5.5 11.5C5.22386 11.5 5 11.7239 5 12H2.5C2.22386 12 2 12.2239 2 12.5C2 12.7761 2.22386 13 2.5 13H5C5 13.2761 5.22386 13.5 5.5 13.5C5.77614 13.5 6 13.2761 6 13H8C8 13.2761 8.22386 13.5 8.5 13.5C8.77614 13.5 9 13.2761 9 13L11 13Z"
    fill="var(--color-typo-normal)"
  />
  <path
    d="M7.63135 3.00008L8.97081 5.38582H9.0227L10.3686 3.00008H11.9546L9.92757 6.50008L12 10.0001H10.3849L9.0227 7.61092H8.97081L7.60865 10.0001H6L8.07892 6.50008L6.03892 3.00008H7.63135Z"
    fill="var(--color-typo-normal)"
  />
</svg>
