<!-- ##color:multiple ##group:tools -->
<svg viewBox="0 0 16 16" fill="none" xmlns="http://www.w3.org/2000/svg">
  <path
    fill-rule="evenodd"
    clip-rule="evenodd"
    d="M11.8715 4.83565L14.3536 2.35356L13.6465 1.64645L11.1644 4.12853C10.3024 3.42317 9.20062 2.99997 7.99997 2.99997C5.23855 2.99997 2.99997 5.23855 2.99997 7.99997C2.99997 9.20062 3.42317 10.3024 4.12853 11.1644L1.64645 13.6465L2.35356 14.3536L4.83565 11.8715C5.69757 12.5768 6.79935 13 7.99997 13C10.7614 13 13 10.7614 13 7.99997C13 6.79935 12.5768 5.69757 11.8715 4.83565ZM9.73828 5.55463C9.24786 5.20538 8.6479 4.99997 7.99997 4.99997C6.34312 4.99997 4.99997 6.34312 4.99997 7.99997C4.99997 8.6479 5.20538 9.24786 5.55463 9.73828L9.73828 5.55463ZM6.26175 10.4454L10.4454 6.26175C10.7946 6.75215 11 7.35207 11 7.99997C11 9.65682 9.65682 11 7.99997 11C7.35207 11 6.75215 10.7946 6.26175 10.4454Z"
    fill="var(--color-typo-primary)"
  />
</svg>
