<!-- ##color:multiple ##group:geo -->
<svg viewBox="0 0 16 16" fill="none" xmlns="http://www.w3.org/2000/svg">
  <path
    fill-rule="evenodd"
    clip-rule="evenodd"
    d="M2 6.7069V4.61231C2.06045 4.59239 2.12164 4.57203 2.18377 4.55132L2.21372 4.54133L2.21373 4.54133C2.95778 4.29324 3.83726 4 5 4C6.16274 4 7.04222 4.29324 7.78627 4.54133L7.81623 4.55132C8.56583 4.80118 9.17838 5 10 5C10.8092 5 11.5244 4.80897 12.4365 4.56536L12.5548 4.53377C12.9981 4.41556 13.4756 4.29141 14 4.19262V6.23437C13.6874 6.30375 13.3806 6.38346 13.0702 6.46623L12.8914 6.5141C12.0322 6.74467 11.0806 7 10 7C8.83726 7 7.95778 6.70676 7.21372 6.45867L7.18377 6.44868C6.43417 6.19882 5.82162 6 5 6C4.17838 6 3.56583 6.19882 2.81623 6.44868L2.78628 6.45867C2.54071 6.54055 2.28039 6.62735 2 6.7069Z"
    fill="var(--color-typo-system)"
  />
  <path
    fill-rule="evenodd"
    clip-rule="evenodd"
    d="M2 9.7069V7.61231C2.06045 7.59239 2.12164 7.57203 2.18377 7.55132L2.21372 7.54133L2.21373 7.54133C2.95778 7.29324 3.83726 7 5 7C6.16274 7 7.04222 7.29324 7.78627 7.54133L7.81623 7.55132C8.56583 7.80118 9.17838 8 10 8C10.8092 8 11.5244 7.80897 12.4365 7.56536L12.5548 7.53377C12.9981 7.41556 13.4756 7.29141 14 7.19262V9.23437C13.6874 9.30375 13.3806 9.38346 13.0702 9.46623L12.8914 9.5141C12.0322 9.74467 11.0806 10 10 10C8.83726 10 7.95778 9.70676 7.21372 9.45867L7.18377 9.44868C6.43417 9.19882 5.82162 9 5 9C4.17838 9 3.56583 9.19882 2.81623 9.44868L2.78628 9.45867C2.54071 9.54055 2.28039 9.62735 2 9.7069Z"
    fill="var(--color-typo-normal)"
  />
  <path
    fill-rule="evenodd"
    clip-rule="evenodd"
    d="M2 12.7069V10.6123C2.06045 10.5924 2.12164 10.572 2.18377 10.5513L2.21372 10.5413L2.21373 10.5413C2.95778 10.2932 3.83726 10 5 10C6.16274 10 7.04222 10.2932 7.78627 10.5413L7.81623 10.5513C8.56583 10.8012 9.17838 11 10 11C10.8092 11 11.5244 10.809 12.4365 10.5654L12.5548 10.5338C12.9981 10.4156 13.4756 10.2914 14 10.1926V12.2344C13.6874 12.3038 13.3806 12.3835 13.0702 12.4662L12.8914 12.5141C12.0322 12.7447 11.0806 13 10 13C8.83726 13 7.95778 12.7068 7.21372 12.4587L7.18377 12.4487C6.43417 12.1988 5.82162 12 5 12C4.17838 12 3.56583 12.1988 2.81623 12.4487L2.78628 12.4587C2.54071 12.5405 2.28039 12.6273 2 12.7069Z"
    fill="var(--color-typo-system)"
  />
</svg>
