<!-- ##color:multiple ##group:seismic -->
<svg viewBox="0 0 16 16" fill="none" xmlns="http://www.w3.org/2000/svg">
  <rect
    x="2"
    y="2"
    width="12"
    height="12"
    rx="1"
    fill="var(--color-bg-ghost)"
  />
  <path
    d="M2 7.25731V6.05771C2.44363 5.7758 3.05322 5.41439 3.77642 5.05279C5.30472 4.28864 7.38674 3.5 9.50003 3.5C11.6413 3.5 13.0161 4.30899 13.8536 5.14645C13.9044 5.1973 13.9532 5.24817 14 5.29885V7.09253C13.9969 7.08495 13.9934 7.07678 13.9897 7.06805C13.9605 7.00001 13.9132 6.89829 13.8442 6.77407C13.7059 6.52511 13.4825 6.18959 13.1465 5.85355C12.4839 5.19101 11.3588 4.5 9.50003 4.5C7.61332 4.5 5.69533 5.21136 4.22363 5.94721C3.49296 6.31255 2.88373 6.6781 2.45791 6.95184C2.26545 7.07556 2.11089 7.18025 2 7.25731Z"
    fill="var(--color-bg-warning)"
  />
  <path
    d="M2 9.18702V11.3117C2.25329 11.1622 2.52083 10.9875 2.80744 10.8003C4.2182 9.87895 6.091 8.65585 9 8.65585C11.5 8.65585 13.1667 10.4264 14 11.3117V9.18702C14 9.18702 10.5 6 6.5 6C2.5 6 2 9.18702 2 9.18702Z"
    fill="var(--color-bg-normal)"
  />
  <path
    d="M2 12.7711V11.6357C2.2267 11.5246 2.50151 11.4029 2.82443 11.2818C3.87672 10.8872 5.43606 10.5 7.49999 10.5C9.56087 10.5 11.3604 10.8861 12.6437 11.2711C13.1967 11.437 13.6555 11.6032 14 11.7393V12.8212C13.9367 12.7938 13.863 12.7626 13.7794 12.7284C13.4486 12.5931 12.9639 12.4112 12.3563 12.2289C11.1396 11.8639 9.43911 11.5 7.49999 11.5C5.56392 11.5 4.12326 11.8628 3.17555 12.2182C2.70123 12.396 2.34943 12.5724 2.12012 12.7014C2.07542 12.7266 2.03538 12.7499 2 12.7711Z"
    fill="var(--color-bg-alert)"
  />
</svg>
