<!-- ##color:multiple ##group:geo -->
<svg viewBox="0 0 16 16" fill="none" xmlns="http://www.w3.org/2000/svg">
  <path
    fill-rule="evenodd"
    clip-rule="evenodd"
    d="M2 7.22572V4.08552C2.00853 4.08268 2.01708 4.07983 2.02566 4.07698L2.067 4.06319L2.067 4.06319C2.81129 3.81495 3.75558 3.5 5 3.5C6.24442 3.5 7.18871 3.81495 7.933 4.06319L7.97434 4.07698C8.72375 4.32678 9.26758 4.5 10 4.5C10.7422 4.5 11.3992 4.32468 12.3359 4.07469L12.426 4.05065C12.8973 3.92498 13.4182 3.78937 14 3.68417V6.74706C13.7351 6.80812 13.4705 6.87695 13.199 6.94935L13.0126 6.9993C12.1605 7.22828 11.1493 7.5 10 7.5C8.75558 7.5 7.81129 7.18505 7.067 6.93681L7.02566 6.92302C6.27625 6.67322 5.73242 6.5 5 6.5C4.26758 6.5 3.72375 6.67322 2.97434 6.92302L2.933 6.93681L2.933 6.93681C2.65225 7.03045 2.34304 7.13358 2 7.22572Z"
    fill="var(--color-typo-success)"
  />
  <path
    fill-rule="evenodd"
    clip-rule="evenodd"
    d="M2 10.2257V7.08552C2.00853 7.08268 2.01708 7.07983 2.02566 7.07698L2.067 7.06319L2.067 7.06319C2.81129 6.81495 3.75558 6.5 5 6.5C6.24442 6.5 7.18871 6.81495 7.933 7.06319L7.97434 7.07698C8.72375 7.32678 9.26758 7.5 10 7.5C10.7422 7.5 11.3992 7.32468 12.3359 7.07469L12.426 7.05065C12.8973 6.92498 13.4182 6.78937 14 6.68417V9.74706C13.7351 9.80812 13.4705 9.87695 13.199 9.94935L13.0126 9.9993C12.1605 10.2283 11.1493 10.5 10 10.5C8.75558 10.5 7.81129 10.1851 7.067 9.93681L7.02566 9.92302C6.27625 9.67322 5.73242 9.5 5 9.5C4.26758 9.5 3.72375 9.67322 2.97434 9.92302L2.933 9.93681L2.933 9.93681C2.65225 10.0305 2.34304 10.1336 2 10.2257Z"
    fill="var(--color-typo-caution)"
  />
  <path
    fill-rule="evenodd"
    clip-rule="evenodd"
    d="M2 13.2257V10.0855C2.00853 10.0827 2.01708 10.0798 2.02566 10.077L2.067 10.0632L2.067 10.0632C2.81129 9.81495 3.75558 9.5 5 9.5C6.24442 9.5 7.18871 9.81495 7.933 10.0632L7.97434 10.077C8.72375 10.3268 9.26758 10.5 10 10.5C10.7422 10.5 11.3992 10.3247 12.3359 10.0747L12.426 10.0506C12.8973 9.92498 13.4182 9.78937 14 9.68417V12.7471C13.7351 12.8081 13.4705 12.877 13.199 12.9494L13.0126 12.9993C12.1605 13.2283 11.1493 13.5 10 13.5C8.75558 13.5 7.81129 13.1851 7.067 12.9368L7.02566 12.923C6.27625 12.6732 5.73242 12.5 5 12.5C4.26758 12.5 3.72375 12.6732 2.97434 12.923L2.933 12.9368L2.933 12.9368C2.65225 13.0305 2.34304 13.1336 2 13.2257Z"
    fill="var(--color-typo-warning)"
  />
</svg>
