<!-- ##color:multiple ##group:geo -->
<svg viewBox="0 0 16 16" fill="none" xmlns="http://www.w3.org/2000/svg">
  <path
    d="M1.7 1C1.3134 1 1 1.3134 1 1.7V11C1 11.5523 1.44772 12 2 12H6.57303L9.15844 6.82918C9.41253 6.321 9.93193 6 10.5001 6C11.0682 6 11.5876 6.321 11.8417 6.82918L14.4219 11.9894C14.4283 11.9883 14.4347 11.9871 14.4411 11.9858C14.7601 11.9205 15 11.6383 15 11.3V4C15 3.44772 14.5523 3 14 3H10.4142C10.149 3 9.89464 2.89464 9.70711 2.70711L8.29289 1.29289C8.10536 1.10536 7.851 1 7.58579 1H1.7Z"
    fill="var(--color-bg-caution)"
  />
  <path
    d="M1 3.7V11C1 11.5523 1.44772 12 2 12H6.57303L9.15844 6.82918C9.41253 6.321 9.93193 6 10.5001 6C11.0682 6 11.5876 6.321 11.8417 6.82918L14.4219 11.9894C14.7504 11.9318 15 11.645 15 11.3V4C15 3.44772 14.5523 3 14 3H1.7C1.3134 3 1 3.3134 1 3.7Z"
    fill="var(--color-bg-warning)"
  />
  <path
    fill-rule="evenodd"
    clip-rule="evenodd"
    d="M11.9709 13.7958L12.1584 14.1708C12.5289 14.9118 13.4299 15.2121 14.1709 14.8416C14.9119 14.4712 15.2122 13.5701 14.8417 12.8292L11.8417 6.82918C11.5876 6.321 11.0682 6 10.5001 6C9.93193 6 9.41253 6.321 9.15844 6.82918L6.15844 12.8292C5.78796 13.5701 6.0883 14.4712 6.82926 14.8416C7.57023 15.2121 8.47124 14.9118 8.84173 14.1708L9.02925 13.7958C9.16659 14.4825 9.77292 15 10.5001 15C11.2273 15 11.8336 14.4826 11.9709 13.7958ZM10.5001 7C10.6895 7 10.8626 7.107 10.9473 7.27639L13.9473 13.2764C14.0708 13.5234 13.9707 13.8237 13.7237 13.9472C13.4767 14.0707 13.1764 13.9706 13.0529 13.7236L11.0001 9.61806L11.0001 13.5C11.0001 13.7761 10.7763 14 10.5001 14C10.224 14 10.0001 13.7761 10.0001 13.5L10.0001 9.61801L7.94732 13.7236C7.82383 13.9706 7.52349 14.0707 7.2765 13.9472C7.02951 13.8237 6.9294 13.5234 7.0529 13.2764L10.0529 7.27639C10.1376 7.107 10.3107 7 10.5001 7Z"
    fill="var(--color-typo-primary)"
  />
  <path
    d="M10.9473 7.27639C10.8626 7.107 10.6895 7 10.5001 7C10.3107 7 10.1376 7.107 10.0529 7.27639L7.0529 13.2764C6.9294 13.5234 7.02951 13.8237 7.2765 13.9472C7.52349 14.0707 7.82383 13.9706 7.94732 13.7236L10.0001 9.61801L10.0001 13.5C10.0001 13.7761 10.224 14 10.5001 14C10.7763 14 11.0001 13.7761 11.0001 13.5L11.0001 9.61806L13.0529 13.7236C13.1764 13.9706 13.4767 14.0707 13.7237 13.9472C13.9707 13.8237 14.0708 13.5234 13.9473 13.2764L10.9473 7.27639Z"
    fill="var(--color-typo-normal)"
  />
</svg>
