<!-- ##color:multiple ##group:well -->
<svg viewBox="0 0 24 24" fill="none" xmlns="http://www.w3.org/2000/svg">
  <path
    fill-rule="evenodd"
    clip-rule="evenodd"
    d="M16 1H8V3H5.88889L4 4.6L6 7L18 6L20 4.6L18.1111 3H16V1ZM5.88889 8L18 7L20 9.4L18.1111 11H5.88889L4 9.4L5.88889 8Z"
    fill="var(--color-typo-secondary)"
  />
  <path
    fill-rule="evenodd"
    clip-rule="evenodd"
    d="M16 12H8V14H6V19L4 20.0302C4 21.6953 5.3499 23.0452 7.01508 23.0452H7.47738L8 22H10L10.5226 23.0452H12H13.4774L14 22H16L16.5226 23.0452H16.9849C18.6501 23.0452 20 21.6953 20 20.0302L18 19V14H16V12Z"
    fill="var(--color-typo-primary)"
  />
</svg>
