<!-- ##color:multiple ##group:well -->
<svg viewBox="0 0 24 24" fill="none" xmlns="http://www.w3.org/2000/svg">
  <path
    fill-rule="evenodd"
    clip-rule="evenodd"
    d="M12 20C16.4183 20 20 16.4183 20 12C20 7.58172 16.4183 4 12 4C7.58172 4 4 7.58172 4 12C4 16.4183 7.58172 20 12 20ZM11 13V7H13V12.1716L15.4888 14.6604L14.0746 16.0746L11 13Z"
    fill="var(--color-typo-primary)"
  />
  <path
    d="M2 12C2 13.9778 2.58649 15.9112 3.6853 17.5557C4.78412 19.2002 6.3459 20.4819 8.17317 21.2388C10.0004 21.9957 12.0111 22.1937 13.9509 21.8079C15.8907 21.422 17.6725 20.4696 19.0711 19.0711C20.4696 17.6725 21.422 15.8907 21.8079 13.9509C22.1937 12.0111 21.9957 10.0004 21.2388 8.17317C20.4819 6.34591 19.2002 4.78412 17.5557 3.6853C15.9112 2.58649 13.9778 2 12 2"
    stroke="var(--color-typo-secondary)"
    stroke-width="2"
  />
</svg>
