<!-- ##color:mono ##group:weather -->
<svg viewBox="0 0 28 28" fill="none" xmlns="http://www.w3.org/2000/svg">
  <path
    fill-rule="evenodd"
    clip-rule="evenodd"
    d="M4.02211 10H10.9394L13.0322 3.69305C13.3422 2.76898 14.6578 2.76898 14.9678 3.69305L17.0606 10H23.9779C24.9798 10 25.3815 11.2154 24.5559 11.7793L19.101 15.5051L21.2708 22.6907C21.5537 23.6275 20.469 24.3796 19.6815 23.7928L14 19.5594L8.31851 23.7928C7.531 24.3796 6.44635 23.6275 6.72921 22.6907L8.899 15.5051L3.44414 11.7793C2.61855 11.2154 3.02022 10 4.02211 10ZM8.6499 12H12.6154L13.811 8.54599C13.8731 8.36656 14.1268 8.36655 14.189 8.54599L15.3846 12H19.3501C19.547 12 19.6254 12.2547 19.4625 12.3654L16.3076 14.5102L17.4981 18.3703C17.5563 18.5593 17.3343 18.7092 17.1808 18.5845L14 16L10.8191 18.5845C10.6656 18.7092 10.4436 18.5593 10.5018 18.3703L11.6923 14.5102L8.53746 12.3654C8.37459 12.2547 8.45296 12 8.6499 12Z"
  />
</svg>
