<!-- ##color:mono ##group:communication -->
<svg viewBox="0 0 24 24" fill="none" xmlns="http://www.w3.org/2000/svg">
  <path
    d="M21.279 10.4541L23 8.68629C21.5535 7.20055 19.8363 6.022 17.9464 5.21793C16.0565 4.41385 14.031 4 11.9854 4C9.93976 4 7.91418 4.41385 6.02429 5.21793C4.14713 6.01659 2.44034 7.1847 1 8.65631C1 8.65631 2.51452 10.272 2.69177 10.4541C5.07021 8.01104 8.35599 6.5 11.9854 6.5C15.6147 6.5 18.9005 8.01104 21.279 10.4541Z"
  />
  <path
    d="M18.8695 12.9289C17.1077 11.1193 14.6738 10 11.9854 10C9.29694 10 6.86303 11.1193 5.10122 12.9289L6.82226 14.6967C8.14361 13.3395 9.96905 12.5 11.9854 12.5C14.0017 12.5 15.8271 13.3395 17.1485 14.6967L18.8695 12.9289Z"
  />
  <path
    d="M14.739 17.1716C14.0343 16.4477 13.0607 16 11.9854 16C10.91 16 9.93643 16.4477 9.23171 17.1716L11.9854 20L14.739 17.1716Z"
  />
</svg>
