<!-- ##color:mono ##group:communication -->
<svg viewBox="0 0 12 12" fill="none" xmlns="http://www.w3.org/2000/svg">
  <path
    d="M10.2908 5.76509C9.19905 4.66941 7.67986 3.98995 5.99988 3.98995C4.32002 3.98995 2.80093 4.66931 1.70923 5.76485L1 5.06483C1.95972 4.10401 3.2016 3.41849 4.59304 3.13915C5.05509 3.04684 5.52643 3 6.00012 3C6.43658 3 6.87103 3.03976 7.29806 3.11822C8.73361 3.38311 10.0153 4.07918 11 5.06507L10.2908 5.76509Z"
  />
  <path
    d="M9.22691 6.81502C8.4075 5.9881 7.26448 5.47487 6.00001 5.47487C4.73554 5.47487 3.59252 5.9881 2.77311 6.81502L3.48238 7.51507C4.12024 6.86728 5.01251 6.46482 6.00001 6.46482C6.98752 6.46482 7.87979 6.86728 8.51764 7.51507L9.22691 6.81502Z"
  />
  <path
    d="M7.45363 8.56526C7.0882 8.1861 6.57207 7.94975 6.00001 7.94975C5.42795 7.94975 4.91182 8.1861 4.54639 8.56526L6.00001 10L7.45363 8.56526Z"
  />
</svg>
