<!-- ##color:mono ##group:communication -->
<svg viewBox="0 0 16 16" fill="none" xmlns="http://www.w3.org/2000/svg">
  <path
    d="M13.5858 7.35746C12.1563 5.91344 10.1814 5.02029 8.00006 5.02029C5.81864 5.02029 3.84375 5.91347 2.41421 7.35754L1 5.92897C1.09213 5.83591 1.18606 5.74467 1.28175 5.65531C2.13928 4.85492 3.13102 4.21334 4.2116 3.76121C5.41266 3.25866 6.69996 3 7.99998 3C9.3 3 10.5873 3.25866 11.7884 3.7612C12.9894 4.26375 14.0807 5.00035 15 5.92893L13.5858 7.35746Z"
  />
  <path
    d="M12.2412 8.71574C11.1267 7.67591 9.63684 7.04059 8.00008 7.04059C6.36327 7.04059 4.87336 7.67595 3.75887 8.71584L5.17473 10.1461C5.92589 9.471 6.91557 9.06089 8.00008 9.06089C9.08454 9.06089 10.0742 9.47096 10.8253 10.146L12.2412 8.71574Z"
  />
  <path
    d="M9.37855 11.6074C9.01116 11.2799 8.52859 11.0812 8.00007 11.0812C7.47151 11.0812 6.9889 11.28 6.6215 11.6075L7.99998 13L9.37855 11.6074Z"
  />
</svg>
