<!-- ##color:mono ##group:objects -->
<svg viewBox="0 0 16 16" xmlns="http://www.w3.org/2000/svg">
  <path
    fill-rule="evenodd"
    clip-rule="evenodd"
    d="M3 4C3 2.89543 3.89543 2 5 2C6.10457 2 7 2.89543 7 4C7 4.93192 6.36261 5.71497 5.5 5.93699V7.5H9.06301C9.28503 6.63739 10.0681 6 11 6C12.1046 6 13 6.89543 13 8C13 9.10457 12.1046 10 11 10C10.0681 10 9.28503 9.36261 9.06301 8.5H5.5V11C5.5 11.2761 5.72386 11.5 6 11.5H9.06301C9.28503 10.6374 10.0681 10 11 10C12.1046 10 13 10.8954 13 12C13 13.1046 12.1046 14 11 14C10.0681 14 9.28503 13.3626 9.06301 12.5H6C5.17157 12.5 4.5 11.8284 4.5 11V8V5.93699C3.63739 5.71497 3 4.93192 3 4ZM11 9C10.4477 9 10 8.55228 10 8C10 7.44772 10.4477 7 11 7C11.5523 7 12 7.44772 12 8C12 8.55228 11.5523 9 11 9ZM11 13C10.4477 13 10 12.5523 10 12C10 11.4477 10.4477 11 11 11C11.5523 11 12 11.4477 12 12C12 12.5523 11.5523 13 11 13Z"
  />
</svg>
