<!-- ##color:mono ##group:objects -->
<svg viewBox="0 0 12 12" xmlns="http://www.w3.org/2000/svg">
  <path
    fill-rule="evenodd"
    clip-rule="evenodd"
    d="M2 2.5C2 1.67157 2.67157 1 3.5 1C4.32843 1 5 1.67157 5 2.5C5 3.15311 4.5826 3.70873 4 3.91465V5H7.08535C7.29127 4.4174 7.84689 4 8.5 4C9.32843 4 10 4.67157 10 5.5C10 6.32843 9.32843 7 8.5 7C7.84689 7 7.29127 6.5826 7.08535 6H4V8.5C4 8.77614 4.22386 9 4.5 9H7.08535C7.29127 8.4174 7.84689 8 8.5 8C9.32843 8 10 8.67157 10 9.5C10 10.3284 9.32843 11 8.5 11C7.84689 11 7.29127 10.5826 7.08535 10H4.5C3.67157 10 3 9.32843 3 8.5V5.5V3.91465C2.4174 3.70873 2 3.15311 2 2.5Z"
  />
</svg>
