<!-- ##color:mono ##group:objects -->
<svg viewBox="0 0 24 24" xmlns="http://www.w3.org/2000/svg">
  <path
    fill-rule="evenodd"
    clip-rule="evenodd"
    d="M3 5.5C3 3.567 4.567 2 6.5 2C8.433 2 10 3.567 10 5.5C10 7.08551 8.94574 8.42479 7.5 8.85506V10.5H14.1449C14.5752 9.05426 15.9145 8 17.5 8C19.433 8 21 9.567 21 11.5C21 13.433 19.433 15 17.5 15C15.9145 15 14.5752 13.9457 14.1449 12.5H7.5V16.5C7.5 17.0523 7.94772 17.5 8.5 17.5H14.1449C14.5752 16.0543 15.9145 15 17.5 15C19.433 15 21 16.567 21 18.5C21 20.433 19.433 22 17.5 22C15.9145 22 14.5752 20.9457 14.1449 19.5H8.5C6.84315 19.5 5.5 18.1569 5.5 16.5V8.85506C4.05426 8.42479 3 7.08551 3 5.5ZM17.5 13C16.6716 13 16 12.3284 16 11.5C16 10.6716 16.6716 10 17.5 10C18.3284 10 19 10.6716 19 11.5C19 12.3284 18.3284 13 17.5 13ZM17.5 20C16.6716 20 16 19.3284 16 18.5C16 17.6716 16.6716 17 17.5 17C18.3284 17 19 17.6716 19 18.5C19 19.3284 18.3284 20 17.5 20Z"
  />
</svg>
