<!-- ##color:multiple ##group:colored -->
<svg viewBox="0 0 16 16" fill="none" xmlns="http://www.w3.org/2000/svg">
  <path
    d="M2 4V3H1V4H2ZM5 4H6V3H5V4ZM2 6H1V7H2V6ZM5 6V7H6V6H5ZM10 6V7H11V6H10ZM6 6H5V7H6V6ZM10 4H11V3H10V4ZM6 4V3H5V4H6ZM11 6H10V7H11V6ZM14 6V7H15V6H14ZM11 4V3H10V4H11ZM14 4H15V3H14V4ZM10 7H11V6H10V7ZM6 7V6H5V7H6ZM10 9V10H11V9H10ZM6 9H5V10H6V9ZM14 9V10H15V9H14ZM11 9H10V10H11V9ZM14 7H15V6H14V7ZM11 7V6H10V7H11ZM15 3H16V2H15V3ZM1 3V2H0V3H1ZM1 13H0V14H1V13ZM15 13V14H16V13H15ZM11 12H10V13H11V12ZM14 12V13H15V12H14ZM14 10H15V9H14V10ZM11 10V9H10V10H11ZM10 10H11V9H10V10ZM10 12V13H11V12H10ZM6 10V9H5V10H6ZM6 12H5V13H6V12ZM5 12V13H6V12H5ZM5 10H6V9H5V10ZM2 12H1V13H2V12ZM2 10V9H1V10H2ZM5 9V10H6V9H5ZM5 7H6V6H5V7ZM2 9H1V10H2V9ZM2 7V6H1V7H2ZM2 5H5V3H2V5ZM3 6V4H1V6H3ZM5 5H2V7H5V5ZM4 4V6H6V4H4ZM10 5H6V7H10V5ZM9 4V6H11V4H9ZM6 5H10V3H6V5ZM7 6V4H5V6H7ZM11 7H14V5H11V7ZM10 4V6H12V4H10ZM14 3H11V5H14V3ZM15 6V4H13V6H15ZM10 6H6V8H10V6ZM11 9V7H9V9H11ZM6 10H10V8H6V10ZM5 7V9H7V7H5ZM14 8H11V10H14V8ZM15 9V7H13V9H15ZM14 6H11V8H14V6ZM10 7V9H12V7H10ZM14 7V9H16V7H14ZM14 6V7H16V6H14ZM14 4V6H16V4H14ZM14 3V4H16V3H14ZM14 4H15V2H14V4ZM11 4H14V2H11V4ZM10 4H11V2H10V4ZM6 4H10V2H6V4ZM5 4H6V2H5V4ZM2 4H5V2H2V4ZM1 4H2V2H1V4ZM2 4V3H0V4H2ZM2 6V4H0V6H2ZM2 7V6H0V7H2ZM2 9V7H0V9H2ZM2 10V9H0V10H2ZM2 12V10H0V12H2ZM2 13V12H0V13H2ZM2 12H1V14H2V12ZM5 12H2V14H5V12ZM6 12H5V14H6V12ZM10 12H6V14H10V12ZM10 14H11V12H10V14ZM11 14H14V12H11V14ZM14 14H15V12H14V14ZM16 13V12H14V13H16ZM16 12V10H14V12H16ZM16 10V9H14V10H16ZM11 13H14V11H11V13ZM15 12V10H13V12H15ZM14 9H11V11H14V9ZM10 10V12H12V10H10ZM9 10V12H11V10H9ZM10 9H6V11H10V9ZM5 10V12H7V10H5ZM6 13H10V11H6V13ZM6 12V10H4V12H6ZM2 13H5V11H2V13ZM1 10V12H3V10H1ZM5 9H2V11H5V9ZM6 9V7H4V9H6ZM2 10H5V8H2V10ZM1 7V9H3V7H1ZM5 6H2V8H5V6Z"
    fill="var(--color-bg-normal)"
  />
</svg>
