<!-- ##color:mono ##group:menus -->
<svg viewBox="0 0 28 28" xmlns="http://www.w3.org/2000/svg">
  <path
    d="M6 5C5.44772 5 5 5.44772 5 6V11C5 11.5523 5.44772 12 6 12H11C11.5523 12 12 11.5523 12 11V6C12 5.44772 11.5523 5 11 5H6Z"
  />
  <path
    d="M6 16C5.44772 16 5 16.4477 5 17V22C5 22.5523 5.44772 23 6 23H11C11.5523 23 12 22.5523 12 22V17C12 16.4477 11.5523 16 11 16H6Z"
  />
  <path
    d="M16 6C16 5.44772 16.4477 5 17 5H22C22.5523 5 23 5.44772 23 6V11C23 11.5523 22.5523 12 22 12H17C16.4477 12 16 11.5523 16 11V6Z"
  />
  <path
    d="M17 16C16.4477 16 16 16.4477 16 17V22C16 22.5523 16.4477 23 17 23H22C22.5523 23 23 22.5523 23 22V17C23 16.4477 22.5523 16 22 16H17Z"
  />
</svg>
