<!-- ##color:multiple ##group:geo -->
<svg viewBox="0 0 16 16" fill="none" xmlns="http://www.w3.org/2000/svg">
  <path
    d="M6.5 8.10413C3.27909 8.10413 2 10.5027 2 10.5027L2 8.10413C3.92822 6.30412 7.29928 4.46398 10.5 5.10413C12.5 5.50412 13.6667 6.93746 14 7.60413V11.1041C14 11.1041 9.72091 8.10413 6.5 8.10413Z"
    fill="var(--color-typo-caution)"
  />
  <path
    d="M2 13.6249V11.5846C2.04008 11.5341 2.08165 11.4834 2.12476 11.4327C2.95075 10.4617 4.33008 9.49988 6.49999 9.49988C8.64015 9.49988 10.7667 10.4993 12.3209 11.4551C12.9873 11.8649 13.5607 12.2743 14 12.6099V13.8889C13.8945 13.8006 13.7611 13.6916 13.603 13.5673C13.1657 13.2234 12.5418 12.7649 11.7971 12.3069C10.2923 11.3815 8.35982 10.4999 6.49999 10.4999C4.66989 10.4999 3.55485 11.2949 2.88646 12.0806C2.54783 12.4788 2.32161 12.8782 2.18054 13.1776C2.11024 13.3268 2.06179 13.4497 2.03157 13.533C2.01677 13.5738 2.00639 13.605 2 13.6249Z"
    fill="var(--color-typo-alert)"
  />
  <path
    d="M2 6.39475V5.20183C2.70648 4.7592 3.56307 4.28353 4.50651 3.85691C6.15181 3.11292 8.10074 2.5 10 2.5C11.6611 2.5 12.9856 3.02651 14 3.74262V5.02156C13.0798 4.19106 11.7595 3.5 10 3.5C8.29931 3.5 6.49824 4.05375 4.91854 4.76809C3.76111 5.29147 2.74374 5.89136 2 6.39475Z"
    fill="var(--color-typo-success)"
  />
</svg>
