<!-- ##color:mono ##group:human -->
<svg viewBox="0 0 28 28" fill="none" xmlns="http://www.w3.org/2000/svg">
  <path d="M12 10H9V13H12V10Z" />
  <path d="M16 10H19V13H16V10Z" />
  <path
    d="M7.728 16.795C10.6249 21.43 17.3751 21.43 20.272 16.795L17.728 15.205C16.0061 17.96 11.9939 17.96 10.272 15.205L7.728 16.795Z"
  />
  <path
    fill-rule="evenodd"
    clip-rule="evenodd"
    d="M26 14C26 20.6274 20.6274 26 14 26C7.37258 26 2 20.6274 2 14C2 7.37258 7.37258 2 14 2C20.6274 2 26 7.37258 26 14ZM23 14C23 18.9706 18.9706 23 14 23C9.02944 23 5 18.9706 5 14C5 9.02944 9.02944 5 14 5C18.9706 5 23 9.02944 23 14Z"
  />
</svg>
