<!-- ##color:mono ##group:human -->
<svg viewBox="0 0 12 12" xmlns="http://www.w3.org/2000/svg">
  <path
    d="M5.95601 6.76808C6.25382 6.60705 6.50614 6.3734 6.68954 6.08882L7.5217 6.62511C7.33652 6.91245 7.10427 7.165 6.83577 7.37274C6.70737 7.47208 6.57068 7.56118 6.42687 7.63893C5.98237 7.87927 5.48436 8.00344 4.97906 7.99991C4.47375 7.99639 3.97752 7.86528 3.53642 7.61875C3.39372 7.539 3.25828 7.448 3.13128 7.34687C2.8657 7.13541 2.637 6.87964 2.45586 6.58974L3.29542 6.06512C3.47483 6.35224 3.72386 6.58939 4.0194 6.75456C4.31494 6.91973 4.64741 7.00757 4.98597 7.00994C5.32452 7.0123 5.65819 6.92911 5.95601 6.76808Z"
  />
  <path d="M4 4H3V5H4V4Z" />
  <path d="M6 4H7V5H6V4Z" />
  <path
    fill-rule="evenodd"
    clip-rule="evenodd"
    d="M10 5C10 7.76142 7.76142 10 5 10C2.23858 10 0 7.76142 0 5C0 2.23858 2.23858 0 5 0C7.76142 0 10 2.23858 10 5ZM9 5C9 7.20914 7.20914 9 5 9C2.79086 9 1 7.20914 1 5C1 2.79086 2.79086 1 5 1C7.20914 1 9 2.79086 9 5Z"
  />
</svg>
