<!-- ##color:multiple ##group:geo -->
<svg viewBox="0 0 16 16" fill="none" xmlns="http://www.w3.org/2000/svg">
  <path
    fill-rule="evenodd"
    clip-rule="evenodd"
    d="M2.5 2C2.77614 2 3 2.20664 3 2.46154L3 13.5385C3 13.7934 2.77614 14 2.5 14C2.22386 14 2 13.7934 2 13.5385L2 2.46154C2 2.20664 2.22386 2 2.5 2Z"
    fill="var(--color-typo-normal)"
  />
  <path
    fill-rule="evenodd"
    clip-rule="evenodd"
    d="M4.9595 2.10455C5.09705 1.8651 5.40267 1.78249 5.64211 1.92004L10.9723 4.98193L6.49997 7.50002L7.64339 9.06372L6.47684 10.3781L8.33333 12L5.79999 13.9C5.57908 14.0657 5.26568 14.0209 5.09999 13.8C4.93431 13.5791 4.97908 13.2657 5.19999 13.1L6.66666 12L4.99997 10.5541L6.3566 8.9363L5.09666 7.19783L9.02767 5.01809L5.14401 2.78716C4.90456 2.64961 4.82195 2.34399 4.9595 2.10455Z"
    fill="var(--color-typo-alert)"
  />
  <path
    d="M9 9C9 8.44772 9.44772 8 10 8H14C14.5523 8 15 8.44772 15 9V10C15 10.5523 14.5523 11 14 11H10C9.44772 11 9 10.5523 9 10V9Z"
    fill="var(--color-typo-system)"
  />
  <rect
    x="9"
    y="12"
    width="6"
    height="3"
    rx="1"
    fill="var(--color-typo-system)"
  />
</svg>
