<!-- ##color:mono ##group:objects -->
<svg viewBox="0 0 28 28" fill="none" xmlns="http://www.w3.org/2000/svg">
  <path
    fill-rule="evenodd"
    clip-rule="evenodd"
    d="M11 10V8C11 6.34315 12.3431 5 14 5C15.6569 5 17 6.34315 17 8H20C20 4.68629 17.3137 2 14 2C10.6863 2 8 4.68629 8 8V10H6C4.89543 10 4 10.8954 4 12V24C4 25.1046 4.89543 26 6 26H22C23.1046 26 24 25.1046 24 24V12C24 10.8954 23.1046 10 22 10H11ZM10 18C10 15.7909 11.7909 14 14 14C16.2091 14 18 15.7909 18 18C18 20.2091 16.2091 22 14 22C11.7909 22 10 20.2091 10 18Z"
  />
</svg>
