<!-- ##color:mono ##group:objects -->
<svg viewBox="0 0 28 28" xmlns="http://www.w3.org/2000/svg">
  <path
    fill-rule="evenodd"
    clip-rule="evenodd"
    d="M4 7C4 5.34315 5.34315 4 7 4C8.65685 4 10 5.34315 10 7V10H7.25C6.55964 10 6 10.551 6 11.2308V24.7692C6 25.449 6.55964 26 7.25 26H24.75C25.4404 26 26 25.449 26 24.7692V11.2308C26 10.551 25.4404 10 24.75 10H12V7C12 4.23858 9.76142 2 7 2C4.23858 2 2 4.23858 2 7V8H4V7ZM16.7908 17.8743C17.7839 17.5485 18.5 16.6258 18.5 15.5385C18.5 14.179 17.3807 13.0769 16 13.0769C14.6193 13.0769 13.5 14.179 13.5 15.5385C13.5 16.6258 14.2161 17.5485 15.2092 17.8743L13.5 22.9231H18.5L16.7908 17.8743Z"
  />
</svg>
