<!-- ##color:mono ##group:objects -->
<svg viewBox="0 0 24 24" xmlns="http://www.w3.org/2000/svg">
  <path
    fill-rule="evenodd"
    clip-rule="evenodd"
    d="M4 6.5C4 5.11929 5.11929 4 6.5 4C7.88071 4 9 5.11929 9 6.5V9H7C6.44772 9 6 9.44771 6 10V21C6 21.5523 6.44772 22 7 22H21C21.5523 22 22 21.5523 22 21V10C22 9.44772 21.5523 9 21 9H11V6.5C11 4.01472 8.98528 2 6.5 2C4.01472 2 2 4.01472 2 6.5V7H4V6.5ZM14.6326 15.3979C15.4272 15.1332 16 14.3835 16 13.5C16 12.3954 15.1046 11.5 14 11.5C12.8954 11.5 12 12.3954 12 13.5C12 14.3835 12.5728 15.1332 13.3674 15.3979L12 19.5H16L14.6326 15.3979Z"
  />
</svg>
