<!-- ##color:mono ##group:objects -->
<svg viewBox="0 0 16 16" xmlns="http://www.w3.org/2000/svg">
  <path
    fill-rule="evenodd"
    clip-rule="evenodd"
    d="M3 4.5C3 3.67157 3.67157 3 4.5 3C5.32843 3 6 3.67157 6 4.5V6H5C4.44772 6 4 6.44772 4 7V13C4 13.5523 4.44772 14 5 14H13C13.5523 14 14 13.5523 14 13V7C14 6.44772 13.5523 6 13 6H7V4.5C7 3.11929 5.88071 2 4.5 2C3.11929 2 2 3.11929 2 4.5V5H3V4.5ZM10.5 10C10.5 10.8284 9.82843 11.5 9 11.5C8.17157 11.5 7.5 10.8284 7.5 10C7.5 9.17157 8.17157 8.5 9 8.5C9.82843 8.5 10.5 9.17157 10.5 10Z"
  />
</svg>
