<!-- ##color:mono ##group:objects -->
<svg viewBox="0 0 12 12" xmlns="http://www.w3.org/2000/svg">
  <path
    fill-rule="evenodd"
    clip-rule="evenodd"
    d="M2 3C2 2.44772 2.44772 2 3 2C3.55228 2 4 2.44772 4 3V4H3.52941C3.23703 4 3 4.23703 3 4.52941V10.4706C3 10.763 3.23703 11 3.52941 11H10.4706C10.763 11 11 10.763 11 10.4706V4.52941C11 4.23703 10.763 4 10.4706 4H5V3C5 1.89543 4.10457 1 3 1C1.89543 1 1 1.89543 1 3V4H2L2 3ZM8.5 7.5C8.5 8.32843 7.82843 9 7 9C6.17157 9 5.5 8.32843 5.5 7.5C5.5 6.67157 6.17157 6 7 6C7.82843 6 8.5 6.67157 8.5 7.5Z"
  />
</svg>
