<!-- ##color:multiple ##group:geo -->
<svg viewBox="0 0 16 16" fill="none" xmlns="http://www.w3.org/2000/svg">
  <path
    fill-rule="evenodd"
    clip-rule="evenodd"
    d="M9.92308 1.80768L14.7308 13.3461C14.837 13.601 14.7164 13.8938 14.4615 14C14.2066 14.1062 13.9139 13.9857 13.8077 13.7308L13.7115 13.5H5.21154L5.11538 13.7308C5.00918 13.9857 4.71644 14.1062 4.46154 14C4.20664 13.8938 4.0861 13.601 4.19231 13.3461L9 1.80768H9.92308ZM5.62821 12.5H13.2949L12.4615 10.5H6.46154L5.62821 12.5ZM6.87821 9.49999H12.0449L11.2115 7.49999H7.71154L6.87821 9.49999ZM8.1282 6.49999H10.7949L9.46154 3.29999L8.1282 6.49999Z"
    fill="var(--color-typo-system)"
  />
  <path
    fill-rule="evenodd"
    clip-rule="evenodd"
    d="M9.46155 1C10.0138 1 10.4615 1.44772 10.4615 2V14C10.4615 14.5523 10.0138 15 9.46155 15C8.90926 15 8.46155 14.5523 8.46155 14V2C8.46155 1.44772 8.90926 1 9.46155 1Z"
    fill="var(--color-typo-normal)"
  />
  <path
    fill-rule="evenodd"
    clip-rule="evenodd"
    d="M5.49998 8.49998C5.76195 8.41266 5.90353 8.1295 5.81621 7.86753L3.59485 1.20345C3.56446 1.11228 3.4355 1.11228 3.40511 1.20345L1.18375 7.86753C1.09643 8.1295 1.23801 8.41266 1.49998 8.49998C1.76195 8.58731 2.04511 8.44573 2.13244 8.18375L2.36036 7.49999H4.6396L4.86753 8.18375C4.95485 8.44573 5.23801 8.58731 5.49998 8.49998ZM4.30627 6.49999L3.49998 4.08112L2.69369 6.49999H4.30627Z"
    fill="var(--color-typo-system)"
  />
  <path
    fill-rule="evenodd"
    clip-rule="evenodd"
    d="M3.5 1C3.77614 1 4 1.22386 4 1.5V8.5C4 8.77614 3.77614 9 3.5 9C3.22386 9 3 8.77614 3 8.5V1.5C3 1.22386 3.22386 1 3.5 1Z"
    fill="var(--color-typo-normal)"
  />
</svg>
