<!-- ##color:multiple ##group:geo -->
<svg viewBox="0 0 16 16" fill="none" xmlns="http://www.w3.org/2000/svg">
  <path
    fill-rule="evenodd"
    clip-rule="evenodd"
    d="M4.5454 4.29354C4.33353 4.57162 4.12632 5.0412 3.97616 5.71693C3.85635 6.25606 3.32217 6.59599 2.78304 6.47619C2.24391 6.35638 1.90398 5.8222 2.02378 5.28307C2.20695 4.4588 2.49974 3.67838 2.95454 3.08146C3.42716 2.46115 4.1139 2 4.99997 2C5.36409 2 5.66175 2.14183 5.87055 2.28194C6.08112 2.42324 6.26123 2.60245 6.41213 2.77814C6.71315 3.12862 7.00196 3.58892 7.27293 4.07747C7.81847 5.06109 8.39675 6.35496 8.94821 7.59316C8.96133 7.62262 8.97444 7.65206 8.98753 7.68146C9.53626 8.91365 10.0585 10.0864 10.5327 10.9608C10.7772 11.4116 10.9835 11.7348 11.1474 11.933C11.1515 11.938 11.1556 11.9428 11.1596 11.9476C11.2334 11.902 11.3279 11.8176 11.4412 11.6618C11.6715 11.3453 11.8804 10.8552 12.0298 10.2575C12.1638 9.72167 12.7067 9.39591 13.2425 9.52986C13.7783 9.66381 14.1041 10.2067 13.9701 10.7425C13.7862 11.4782 13.4951 12.2381 13.0587 12.8382C12.6208 13.4403 11.9395 14 11 14C10.6263 14 10.3273 13.8462 10.1274 13.7055C9.92377 13.5622 9.75047 13.382 9.60624 13.2077C9.31782 12.8589 9.03848 12.4009 8.77456 11.9142C8.26229 10.9696 7.71247 9.73472 7.18048 8.53994C7.1607 8.49551 7.14094 8.45114 7.12121 8.40684C6.55924 7.14504 6.01832 5.93891 5.52393 5.04753C5.27493 4.59858 5.06359 4.27763 4.89491 4.08124C4.87791 4.06144 4.86241 4.04419 4.84845 4.02922C4.76259 4.06455 4.66266 4.13964 4.5454 4.29354Z"
    fill="var(--color-typo-normal)"
  />
  <path
    d="M2.5 7.5C2.22386 7.5 2 7.72386 2 8C2 8.27614 2.22386 8.5 2.5 8.5V7.5ZM5.5 8.5C5.77614 8.5 6 8.27614 6 8C6 7.72386 5.77614 7.5 5.5 7.5V8.5ZM10.5 7.5C10.2239 7.5 10 7.72386 10 8C10 8.27614 10.2239 8.5 10.5 8.5V7.5ZM13.5 8.5C13.7761 8.5 14 8.27614 14 8C14 7.72386 13.7761 7.5 13.5 7.5V8.5ZM2.5 8.5H5.5V7.5H2.5V8.5ZM10.5 8.5H13.5V7.5H10.5V8.5Z"
    fill="var(--color-typo-primary)"
  />
</svg>
