<!-- ##color:mono ##group:files -->
<svg viewBox="0 0 28 28" fill="none" xmlns="http://www.w3.org/2000/svg">
  <path
    fill-rule="evenodd"
    clip-rule="evenodd"
    d="M4 4C4 2.89543 4.89543 2 6 2H15.1716C15.702 2 16.2107 2.21071 16.5858 2.58579L23.4142 9.41421C23.7893 9.78929 24 10.298 24 10.8284V24C24 25.1046 23.1046 26 22 26H6C4.89543 26 4 25.1046 4 24V4ZM14 4L22 12H16C14.8954 12 14 11.1046 14 10V4ZM15.2322 15.1109L17 16.8787L18.7678 15.1109L20.8891 17.2322L19.1213 19L20.8891 20.7678L18.7678 22.8891L17 21.1213L15.2322 22.8891L13.1109 20.7678L14.8787 19L13.1109 17.2322L15.2322 15.1109Z"
  />
</svg>
