<!-- ##color:multiple ##group:geo -->
<svg viewBox="0 0 16 16" fill="none" xmlns="http://www.w3.org/2000/svg">
  <path
    fill-rule="evenodd"
    clip-rule="evenodd"
    d="M3.5 2C3.77614 2 4 2.20664 4 2.46154L4 13.5385C4 13.7934 3.77614 14 3.5 14C3.22386 14 3 13.7934 3 13.5385L3 2.46154C3 2.20664 3.22386 2 3.5 2Z"
    fill="var(--color-typo-normal)"
  />
  <path
    fill-rule="evenodd"
    clip-rule="evenodd"
    d="M7.50832 2.20836C7.66444 1.99526 7.98386 1.93587 8.22176 2.07572L13 4.88464L8.87815 7.3077L11.8223 9.03845L8.87815 10.7692L11.2335 12.1538L8.22176 13.9243C7.98386 14.0641 7.66444 14.0047 7.50832 13.7916C7.3522 13.5785 7.41849 13.2924 7.65639 13.1525L9.35534 12.1538L7 10.7692L9.94418 9.03845L7 7.3077L11.1218 4.88464L7.65639 2.84745C7.41849 2.7076 7.3522 2.42147 7.50832 2.20836Z"
    fill="var(--color-typo-alert)"
  />
</svg>
