<!-- ##color:mono ##group:geology -->
<svg viewBox="0 0 28 28" fill="none" xmlns="http://www.w3.org/2000/svg">
  <path
    d="M10 2C9.44775 2 9.00003 2.44772 9.00003 3V5C9.00003 5.55228 9.44775 6 10 6H11V11.4545L8.15111 15.5984L18.9232 14.2519L17 11.4545V6H18C18.5523 6 19 5.55228 19 5V3C19 2.44772 18.5523 2 18 2H10Z"
  />
  <path
    fill-rule="evenodd"
    clip-rule="evenodd"
    d="M20 16.108L6.43591 17.8035L3.35194 22.8669C2.43962 24.1939 3.38966 26 5.00002 26H22.9987C24.6091 26 25.5591 24.1939 24.6468 22.8669L20 16.108ZM11 22C11 23.1046 10.1046 24 9 24C7.89544 24 7 23.1046 7 22C7 20.8954 7.89544 20 9 20C10.1046 20 11 20.8954 11 22ZM14.5 21C15.3284 21 16 20.3284 16 19.5C16 18.6716 15.3284 18 14.5 18C13.6716 18 13 18.6716 13 19.5C13 20.3284 13.6716 21 14.5 21ZM18 23C18 23.5523 17.5523 24 17 24C16.4477 24 16 23.5523 16 23C16 22.4477 16.4477 22 17 22C17.5523 22 18 22.4477 18 23ZM20 22C20.5523 22 21 21.5523 21 21C21 20.4477 20.5523 20 20 20C19.4477 20 19 20.4477 19 21C19 21.5523 19.4477 22 20 22Z"
  />
</svg>
