<!-- ##color:multiple ##group:tools -->
<svg viewBox="0 0 16 16" fill="none" xmlns="http://www.w3.org/2000/svg">
  <path
    fill-rule="evenodd"
    clip-rule="evenodd"
    d="M11.1599 5.54719L14.3536 2.35356L13.6465 1.64645L10.4528 4.84008C9.77549 4.31355 8.92436 4.00001 8.00001 4.00001C5.79087 4.00001 4.00001 5.79087 4.00001 8.00001C4.00001 8.92436 4.31355 9.77549 4.84008 10.4528L1.64645 13.6465L2.35356 14.3536L5.54719 11.1599C6.22453 11.6865 7.07565 12 8.00001 12C10.2091 12 12 10.2091 12 8.00001C12 7.07565 11.6865 6.22453 11.1599 5.54719ZM9.01599 6.27692C8.71823 6.10097 8.37091 6.00001 8.00001 6.00001C6.89544 6.00001 6.00001 6.89544 6.00001 8.00001C6.00001 8.37091 6.10097 8.71823 6.27692 9.01599L9.01599 6.27692ZM6.98402 9.7231L9.7231 6.98402C9.89904 7.28178 10 7.6291 10 8.00001C10 9.10458 9.10458 10 8.00001 10C7.6291 10 7.28178 9.89904 6.98402 9.7231Z"
    fill="var(--color-typo-primary)"
  />
  <path
    fill-rule="evenodd"
    clip-rule="evenodd"
    d="M11.048 2.83073C10.1547 2.30289 9.11271 2 8 2C4.68629 2 2 4.68629 2 8C2 9.11271 2.30289 10.1547 2.83073 11.048L3.5659 10.3128C3.20441 9.62116 3 8.83445 3 8C3 5.23858 5.23858 3 8 3C8.83445 3 9.62116 3.20441 10.3128 3.5659L11.048 2.83073ZM5.68722 12.4341C6.37884 12.7956 7.16555 13 8 13C10.7614 13 13 10.7614 13 8C13 7.16555 12.7956 6.37884 12.4341 5.68722L13.1693 4.95205C13.6971 5.84532 14 6.88729 14 8C14 11.3137 11.3137 14 8 14C6.88729 14 5.84532 13.6971 4.95205 13.1693L5.68722 12.4341Z"
    fill="var(--color-typo-secondary)"
  />
</svg>
