<!-- ##color:multiple ##group:geo -->
<svg viewBox="0 0 16 16" fill="none" xmlns="http://www.w3.org/2000/svg">
  <path d="M11 5L5 3V10.5L11 13V5Z" fill="var(--color-bg-system)" />
  <path
    fill-rule="evenodd"
    clip-rule="evenodd"
    d="M6.92306 1.19996C7.61627 0.933346 8.38373 0.933345 9.07694 1.19996L14.0385 3.10824C14.6178 3.33105 15 3.8876 15 4.50826V11.1347C15 11.7553 14.6178 12.3119 14.0385 12.5347L9.07694 14.443C8.38373 14.7096 7.61627 14.7096 6.92306 14.443L1.96153 12.5347C1.38224 12.3119 1 11.7553 1 11.1347V4.50826C1 3.8876 1.38224 3.33105 1.96153 3.10824L6.92306 1.19996ZM8.71796 2.13331C8.65297 2.10831 8.587 2.08683 8.52033 2.06887L8.5 2.0635V3.65099L11.4885 4.78236L13.4357 3.94784L8.71796 2.13331ZM7.28204 2.13331C7.35363 2.10578 7.4264 2.08251 7.5 2.0635V3.27242L5.89757 2.6658L7.28204 2.13331ZM5.5 3.58455L10.1638 5.35011L8 6.27344L5.5 5.20385V3.58455ZM4.5 3.20598L4.49652 3.20466L2.56425 3.94784L4.5 4.77602V3.20598ZM4.5 5.86542L2 4.79399L2 10.8489L4.5 9.77751V5.86542ZM5.5 10.1693L7.5 10.9227V7.15113L5.5 6.29399V10.1693ZM11.5 5.86542L14 4.79399L14 10.8489L11.5 9.77751V5.86542ZM10.5 6.29399L8.5 7.15113V11.3012L10.5 12.0584V6.29399ZM11.5 12.4369L11.5035 12.4383L13.4357 11.6951L11.5 10.8655V12.4369ZM8.5 12.3705L10.1024 12.9771L8.71796 13.5096C8.64637 13.5372 8.5736 13.5604 8.5 13.5794V12.3705ZM7.5 11.9919V13.5794C7.4264 13.5604 7.35363 13.5372 7.28204 13.5096L2.56425 11.6951L4.51146 10.8606L7.5 11.9919Z"
    fill="var(--color-typo-system)"
  />
</svg>
