<!-- ##color:multiple ##group:geo -->
<svg viewBox="0 0 16 16" fill="none" xmlns="http://www.w3.org/2000/svg">
  <path
    fill-rule="evenodd"
    clip-rule="evenodd"
    d="M8 8.73462L6.81184 9.03166L3.25195 11.0659L3.74809 11.9341L7.18821 9.96834L8 9.7654V8.73462Z"
    fill="var(--color-typo-primary)"
  />
  <path
    fill-rule="evenodd"
    clip-rule="evenodd"
    d="M8.00005 5.67887V4.65448L6.31767 5.02834L2.75195 7.06589L3.24809 7.93414L6.68238 5.97169L8.00005 5.67887Z"
    fill="var(--color-typo-primary)"
  />
  <path d="M10 8.5H14" stroke="var(--color-typo-primary)" />
  <circle cx="12" cy="12" r="1.5" stroke="var(--color-typo-primary)" />
  <path
    d="M14 5C14 6.10457 13.1046 7 12 7C10.8954 7 10 6.10457 10 5C10 3.5 12 2 12 2C12 2 14 3.5 14 5Z"
    fill="var(--color-typo-normal)"
  />
  <path
    d="M8.00006 1.99997L4.50837 2.76471L1.96643 6.70472L3.22724 11.8505L8.00004 14V12.9494L4.09533 11.1495L3.0336 6.89519L5.13683 3.63519L8.00006 2.99997V1.99997Z"
    fill="var(--color-typo-primary)"
  />
</svg>
