<!-- ##color:mono ##group:geology -->
<svg viewBox="0 0 28 28" fill="none" xmlns="http://www.w3.org/2000/svg">
  <path
    fill-rule="evenodd"
    clip-rule="evenodd"
    d="M5 20.5V7.5C5 5.01472 9.02944 3 14 3C18.9706 3 23 5.01472 23 7.5V20.5C23 22.9853 18.9706 25 14 25C9.02944 25 5 22.9853 5 20.5ZM19.8189 7.5C19.6689 7.37263 19.4221 7.20118 19.0223 7.0013C17.892 6.43614 16.1205 6 14 6C11.8795 6 10.108 6.43614 8.97768 7.0013C8.57791 7.20118 8.3311 7.37263 8.18112 7.5C8.3311 7.62737 8.57791 7.79882 8.97768 7.9987C10.108 8.56386 11.8795 9 14 9C16.1205 9 17.892 8.56386 19.0223 7.9987C19.4221 7.79882 19.6689 7.62737 19.8189 7.5ZM14 12C16.3051 12 18.4077 11.5667 20 10.8542V17.1458C18.4077 16.4333 16.3051 16 14 16C11.6949 16 9.59227 16.4333 8 17.1458V10.8542C9.59227 11.5667 11.6949 12 14 12ZM19.0223 20.0013C19.4221 20.2012 19.6689 20.3726 19.8189 20.5C19.6689 20.6274 19.4221 20.7988 19.0223 20.9987C17.892 21.5639 16.1205 22 14 22C11.8795 22 10.108 21.5639 8.97768 20.9987C8.57791 20.7988 8.3311 20.6274 8.18112 20.5C8.3311 20.3726 8.57791 20.2012 8.97768 20.0013C10.108 19.4361 11.8795 19 14 19C16.1205 19 17.892 19.4361 19.0223 20.0013ZM20.0376 20.7411C20.0376 20.7411 20.0364 20.7376 20.0328 20.7311C20.0344 20.735 20.0365 20.7393 20.0365 20.7393L20.0376 20.7411Z"
  />
</svg>
