<!-- ##color:mono ##group:geology -->
<svg viewBox="0 0 28 28" fill="none" xmlns="http://www.w3.org/2000/svg">
  <path
    d="M5.5 6H22.5C23.3284 6 24 5.32843 24 4.5C24 3.67157 23.3284 3 22.5 3H20.9147C20.7087 2.4174 20.1531 2 19.5 2C18.8469 2 18.2913 2.4174 18.0853 3H5.5C4.67163 3 4 3.67157 4 4.5C4 5.32843 4.67163 6 5.5 6Z"
  />
  <path
    fill-rule="evenodd"
    clip-rule="evenodd"
    d="M6 8H22V14H22.5C23.3284 14 24 14.6716 24 15.5C24 16.3284 23.3284 17 22.5 17H22V23H22.5C23.3284 23 24 23.6716 24 24.5C24 25.3284 23.3284 26 22.5 26H5.5C4.67163 26 4 25.3284 4 24.5C4 23.6716 4.67163 23 5.5 23H6V17H5.5C4.67163 17 4 16.3284 4 15.5C4 14.6716 4.67163 14 5.5 14H6V8ZM17.5 17.5C17.5 19.433 15.933 21 14 21C12.067 21 10.5 19.433 10.5 17.5C10.5 15 14 11 14 11C14 11 17.5 15 17.5 17.5Z"
  />
</svg>
