<!-- ##color:multiple ##group:geo -->
<svg viewBox="0 0 16 16" fill="none" xmlns="http://www.w3.org/2000/svg">
  <path
    d="M10 5.5V7.99994L9 8V2.00006L10 2V4.37778H10.0511C10.4117 3.76983 10.9877 3.57949 11.4972 3.57949C11.8002 3.57949 12.0644 3.64294 12.2898 3.76983C12.5152 3.89672 12.6894 4.08233 12.8125 4.32665C12.9375 4.57097 13 4.86926 13 5.22153V7.99994H11.9716V5.38063C11.9716 5.08706 11.8958 4.85884 11.7443 4.69597C11.5947 4.53119 11.3845 4.44881 11.1136 4.44881C10.9318 4.44881 10.7689 4.48858 10.625 4.56813C10.3556 4.7154 10 5.19219 10 5.5Z"
    fill="var(--color-typo-primary)"
  />
  <path
    d="M14 9H9C7.5 9 7 8.5 7 7V2H2V8C2 11.5 4.5 14 8 14H14V9Z"
    fill="var(--color-typo-caution)"
  />
  <path
    d="M5 5H6L4.5 3L3 5H4V8C4 10.4853 5.51472 12 8 12H11V13L13 11.5L11 10V11H8C6.067 11 5 9.933 5 8V5Z"
    fill="var(--color-typo-primary)"
  />
</svg>
