<!-- ##color:mono ##group:communication -->
<svg viewBox="0 0 28 28" xmlns="http://www.w3.org/2000/svg">
  <path
    fill-rule="evenodd"
    clip-rule="evenodd"
    d="M7.17712 17.9583L5.98357 22.0164L10.0417 20.8229L11.0494 21.2713C12.1001 21.7387 13.2655 22 14.5 22C19.1944 22 23 18.1944 23 13.5C23 8.80558 19.1944 5 14.5 5C9.80558 5 6 8.80558 6 13.5C6 14.7345 6.2613 15.8999 6.72874 16.9506L7.17712 17.9583ZM3.2054 25.9606C2.49224 26.1704 1.82964 25.5078 2.03939 24.7946L3.98779 18.1701C3.35286 16.743 3 15.1627 3 13.5C3 7.14873 8.14873 2 14.5 2C20.8513 2 26 7.14873 26 13.5C26 19.8513 20.8513 25 14.5 25C12.8373 25 11.257 24.6471 9.82995 24.0122L3.2054 25.9606Z"
  />
</svg>
