<!-- ##color:mono ##group:communication -->
<svg viewBox="0 0 24 24" fill="none" xmlns="http://www.w3.org/2000/svg">
  <path
    d="M11 3C11 2.44772 11.4477 2 12 2C12.5523 2 13 2.44772 13 3V15C13 15.5523 12.5523 16 12 16C11.4477 16 11 15.5523 11 15V3Z"
  />
  <path
    d="M9 4.29659C7.98312 4.50055 6.98613 4.8087 6.02429 5.21793C4.14713 6.01659 2.44034 7.1847 1 8.65631C1 8.65631 2.51452 10.272 2.69177 10.4541C4.39726 8.70226 6.56929 7.42967 9 6.84978V4.29659Z"
  />
  <path
    d="M9 10.4789C7.51216 10.9707 6.18056 11.8203 5.10122 12.9289L6.82226 14.6967C7.44663 14.0554 8.18356 13.5296 9 13.1535V10.4789Z"
  />
  <path
    d="M15 13.167V10.4886C16.476 10.9819 17.7973 11.8276 18.8695 12.9289L17.1485 14.6967C16.5316 14.063 15.8048 13.5422 15 13.167Z"
  />
  <path
    d="M21.279 10.4541C19.5803 8.70929 17.4189 7.43989 15 6.85679V4.30249C16.0067 4.50647 16.9938 4.81263 17.9464 5.21793C19.8363 6.022 21.5535 7.20055 23 8.68629L21.279 10.4541Z"
  />
  <path
    d="M12 18C10.8954 18 10 18.8954 10 20C10 21.1046 10.8954 22 12 22C13.1046 22 14 21.1046 14 20C14 18.8954 13.1046 18 12 18Z"
  />
</svg>
