<!-- ##color:mono ##group:communication -->
<svg viewBox="0 0 12 12" fill="none" xmlns="http://www.w3.org/2000/svg">
  <path
    d="M5.5 2.5C5.5 2.22386 5.72386 2 6 2C6.27614 2 6.5 2.22386 6.5 2.5V6.4997C6.5 6.77584 6.27614 7 6 7C5.72386 7 5.5 6.77614 5.5 6.5V2.5Z"
  />
  <path
    d="M4.5 3.15848C3.14625 3.44926 1.93827 4.12548 1 5.06483L1.70923 5.76485C2.4644 5.00702 3.42407 4.44834 4.5 4.17591V3.15848Z"
  />
  <path
    d="M4.5 5.72681C3.84081 5.956 3.25175 6.33199 2.77311 6.81502L3.48238 7.51507C3.7804 7.21241 4.13395 6.96331 4.52681 6.78378C4.50921 6.69189 4.5 6.59702 4.5 6.5V5.72681Z"
  />
  <path
    d="M7.4732 6.78377C7.49079 6.69188 7.5 6.59702 7.5 6.5V5.7268C8.1592 5.95599 8.74826 6.33199 9.22691 6.81502L8.51764 7.51507C8.21962 7.21241 7.86606 6.9633 7.4732 6.78377Z"
  />
  <path
    d="M10.2908 5.76509C9.53562 5.0072 8.57594 4.44845 7.5 4.17597V3.15854C8.85377 3.44937 10.0617 4.12565 11 5.06507L10.2908 5.76509Z"
  />
  <path
    d="M6 8C5.44772 8 5 8.44772 5 9C5 9.55228 5.44772 10 6 10C6.55228 10 7 9.55228 7 9C7 8.44772 6.55228 8 6 8Z"
  />
</svg>
