<!-- ##color:mono ##group:communication -->
<svg viewBox="0 0 16 16" fill="none" xmlns="http://www.w3.org/2000/svg">
  <path
    d="M7 3C7 2.44772 7.44772 2 8 2C8.55228 2 9 2.44772 9 3V9C9 9.05609 8.99538 9.1111 8.98651 9.16468L8.98446 9.17657C8.90107 9.64464 8.49204 10 8 10C7.50798 10 7.09895 9.64466 7.01555 9.17661C7.00533 9.11928 7 9.06026 7 9V3Z"
  />
  <path
    d="M10 9C10 9.18261 9.97553 9.3595 9.92968 9.52758C10.2546 9.69499 10.5554 9.90337 10.8253 10.146L12.2412 8.71574C11.6029 8.12024 10.8416 7.65741 10 7.3706V9Z"
  />
  <path
    d="M6.07034 9.52765C6.02448 9.35955 6 9.18263 6 9V7.37065C5.15845 7.65748 4.3971 8.12033 3.75887 8.71584L5.17473 10.1461C5.44468 9.90346 5.74544 9.69508 6.07034 9.52765Z"
  />
  <path
    d="M6 3.2062V5.27828C4.62221 5.64143 3.39092 6.3709 2.41421 7.35754L1 5.92897C1.09213 5.83591 1.18606 5.74467 1.28175 5.65531C2.13928 4.85492 3.13102 4.21334 4.2116 3.76121C4.79045 3.51901 5.38932 3.33345 6 3.2062Z"
  />
  <path
    d="M10 5.27825V3.20621C10.6107 3.33346 11.2095 3.51901 11.7884 3.7612C12.9894 4.26375 14.0807 5.00035 15 5.92893L13.5858 7.35746C12.6091 6.37084 11.3778 5.64138 10 5.27825Z"
  />
  <path
    d="M8 11C7.17157 11 6.5 11.6716 6.5 12.5C6.5 13.3284 7.17157 14 8 14C8.82843 14 9.5 13.3284 9.5 12.5C9.5 11.6716 8.82843 11 8 11Z"
  />
</svg>
