<!-- ##color:mono ##group:map -->
<svg viewBox="0 0 28 28" fill="none" xmlns="http://www.w3.org/2000/svg">
  <path
    fill-rule="evenodd"
    clip-rule="evenodd"
    d="M3 8.53513C3 8.20077 3.1671 7.88854 3.4453 7.70308L8.56232 4.29173C8.83631 4.10907 9.18266 4.07301 9.48841 4.19531L19 7.99994L24.2227 4.51818C24.5549 4.29666 25 4.53486 25 4.9342V20.3819C25 20.7607 24.786 21.1069 24.4472 21.2763L19.4017 23.7991C19.1462 23.9269 18.8483 23.9392 18.5831 23.8332L9 19.9999L3.77735 23.4817C3.44507 23.7032 3 23.465 3 23.0657V8.53513ZM6 8.99994V18.9999L7.5 17.9999V7.99994L6 8.99994ZM20.5 9.99994L22 8.99994V19.4999L20.5 20.2499V9.99994ZM10.5 7.59994V17.5999L17.5 20.3999V10.3999L10.5 7.59994Z"
  />
</svg>
