<!-- ##color:mono ##group:action -->
<svg viewBox="0 0 12 12" xmlns="http://www.w3.org/2000/svg">
  <path
    fill-rule="evenodd"
    clip-rule="evenodd"
    d="M1.29954 8.80787L3.19878 10.7071C3.38631 10.8946 3.64067 11 3.90588 11H11V10H7.33889L10.7005 6.63843C11.0998 6.23904 11.0998 5.59151 10.7005 5.19213L7.80787 2.29954C7.40849 1.90015 6.76096 1.90015 6.36157 2.29954L1.29954 7.36157C0.900154 7.76096 0.900154 8.40849 1.29954 8.80787ZM3.54645 6.52887L2.00664 8.06868C2.00313 8.0722 2.00159 8.07568 2.00159 8.07568C2.00078 8.07768 2 8.08079 2 8.08472C2 8.08865 2.00078 8.09176 2.00159 8.09377C2.00159 8.09377 2.00313 8.09724 2.00664 8.10076L3.90588 10H5.92467L6.47113 9.45355L3.54645 6.52887Z"
  />
</svg>
