<!-- ##color:mono ##group:indices -->
<svg viewBox="0 0 28 28" fill="none" xmlns="http://www.w3.org/2000/svg">
  <path
    d="M18 22.4883L17.7066 23.8177C16.8264 24.2027 16.1233 24.4958 15.5998 24.6973C15.0757 24.8995 14.4667 25 13.7728 25C12.7072 25 11.8784 24.7107 11.2873 24.136C10.6962 23.559 10.4005 22.8279 10.4005 21.9409C10.4005 21.5976 10.422 21.2444 10.4666 20.8846C10.5116 20.5243 10.5831 20.1186 10.6809 19.6651L11.7809 15.3496C11.8788 14.9364 11.962 14.5448 12.0286 14.1746C12.0962 13.8066 12.1287 13.468 12.1287 13.1633C12.1287 12.6122 12.0258 12.2267 11.8208 12.0099C11.6159 11.7938 11.2248 11.6841 10.6443 11.6841C10.3599 11.6841 10.0676 11.7346 9.76971 11.8322C9.47048 11.9303 9.21473 12.025 9 12.113L9.29415 10.7825C10.0147 10.4573 10.7035 10.1789 11.3624 9.94773C12.0213 9.71598 12.6438 9.6 13.2327 9.6C14.2909 9.6 15.1075 9.88349 15.6809 10.4505C16.2543 11.0178 16.5409 11.7534 16.5409 12.6597C16.5409 12.8473 16.5221 13.1777 16.4817 13.6499C16.4421 14.1233 16.3685 14.5569 16.2613 14.9514L15.166 19.2496C15.0762 19.5948 14.9955 19.9895 14.9253 20.4336C14.8528 20.8748 14.8182 21.2119 14.8182 21.438C14.8182 22.0087 14.933 22.3984 15.1632 22.6055C15.395 22.8126 15.7944 22.9157 16.3616 22.9157C16.6279 22.9157 16.9309 22.8633 17.2675 22.7605C17.6033 22.6576 17.8481 22.5673 18 22.4883Z"
  />
  <path
    d="M18 5.2C18 6.41503 16.9926 7.4 15.75 7.4C14.5074 7.4 13.5 6.41503 13.5 5.2C13.5 3.98497 14.5074 3 15.75 3C16.9926 3 18 3.98497 18 5.2Z"
  />
</svg>
