<!-- ##color:multiple ##group:seismic -->
<svg viewBox="0 0 16 16" fill="none" xmlns="http://www.w3.org/2000/svg">
  <path
    d="M4.32258 3.2L2 6.8L3.16129 12L6.64516 14L11.6774 12.8L14 8.8L12.8387 4L8.96774 2L4.32258 3.2Z"
    fill="var(--color-bg-ghost)"
  />
  <path
    fill-rule="evenodd"
    clip-rule="evenodd"
    d="M9.0276 1.46812L13.271 3.66056L14.5332 8.8775L12.0021 13.2366L6.56824 14.5324L2.72134 12.324L1.46643 6.70476L4.00837 2.76476L9.0276 1.46812ZM4.63683 3.63524L2.5336 6.89523L3.60128 11.676L6.72211 13.4676L11.3528 12.3634L13.4668 8.7225L12.4064 4.33944L8.90792 2.53187L4.63683 3.63524Z"
    fill="var(--color-bg-ghost)"
  />
  <mask
    id="mask0_23779_1140"
    style="mask-type: alpha"
    maskUnits="userSpaceOnUse"
    x="2"
    y="2"
    width="12"
    height="12"
  >
    <path
      d="M4.61343 3.59881L2.5365 6.90556L3.59766 11.6758L6.71776 13.4781L11.3773 12.3713L13.4816 8.7639L12.4431 4.33668L8.93136 2.47835L4.61343 3.59881Z"
      fill="#D9D9D9"
    />
  </mask>
  <g mask="url(#mask0_23779_1140)">
    <path
      fill-rule="evenodd"
      clip-rule="evenodd"
      d="M2.58193 7.9369C2.58198 7.93686 2.58204 7.9368 2.26322 7.56145C1.9444 7.18609 1.94448 7.18602 1.94458 7.18593L1.94556 7.18506L1.94785 7.18304L1.95581 7.17606L1.98497 7.1507C2.01022 7.12888 2.04697 7.0974 2.09456 7.05739C2.18972 6.97738 2.32829 6.86317 2.50485 6.72382C2.85773 6.44529 3.36363 6.06528 3.979 5.65661C5.20372 4.84326 6.88882 3.89835 8.67907 3.42932C10.4736 2.95918 11.6596 3.12348 12.4222 3.46199C12.8008 3.63006 13.0623 3.83573 13.2339 4.00921C13.3193 4.09562 13.3819 4.17344 13.4253 4.23379C13.447 4.26397 13.4639 4.28981 13.4765 4.31021C13.4828 4.32042 13.4881 4.32927 13.4923 4.33664L13.498 4.34657L13.5002 4.35066L13.5012 4.35249C13.5014 4.3529 13.5021 4.35417 13.0649 4.60632C12.6278 4.85847 12.628 4.85886 12.6282 4.85925L12.6293 4.86139L12.6307 4.86378L12.6324 4.86694C12.631 4.86454 12.6264 4.85744 12.6182 4.84598C12.6017 4.82306 12.5711 4.78392 12.5233 4.7356C12.4283 4.6396 12.2632 4.50468 12.0009 4.38827C11.4818 4.15781 10.5294 3.97761 8.89695 4.4053C7.26027 4.83409 5.68297 5.71125 4.50203 6.49552C3.91457 6.88565 3.43182 7.24833 3.09676 7.51279C2.92935 7.64493 2.79913 7.7523 2.71149 7.82599C2.66768 7.86282 2.63453 7.89122 2.61272 7.91007L2.58862 7.93102L2.58311 7.93586L2.58193 7.9369Z"
      fill="var(--color-bg-warning)"
    />
    <path
      d="M6.40043 6.46656C3.08331 7.33561 3.27325 10.223 3.27325 10.223L3.67633 12.0286C4.7523 10.9504 6.075 8.94085 8.97748 8.18043C11.0507 7.63727 12.7575 8.73854 13.6165 9.30983L13.0512 6.99233C13.0512 6.99233 9.71755 5.5975 6.40043 6.46656Z"
      fill="var(--color-bg-normal)"
    />
    <path
      fill-rule="evenodd"
      clip-rule="evenodd"
      d="M4.39425 13.1566C4.39442 13.1563 4.3946 13.156 3.9683 12.9128C3.54201 12.6696 3.54219 12.6693 3.54238 12.669L3.54277 12.6683L3.54362 12.6668L3.5456 12.6635L3.55062 12.655C3.55445 12.6487 3.55926 12.6409 3.56509 12.6317C3.57677 12.6133 3.59256 12.5893 3.61288 12.5603C3.65352 12.5024 3.71222 12.4245 3.79222 12.3313C3.95238 12.1445 4.19709 11.8969 4.55187 11.6238C5.26258 11.0768 6.40556 10.4348 8.17859 9.97026C9.95005 9.50615 11.4918 9.44407 12.5935 9.49853C13.1447 9.52578 13.5868 9.58224 13.8939 9.6326C14.0475 9.65779 14.1675 9.68148 14.2506 9.69927C14.2922 9.70817 14.3246 9.71559 14.3473 9.721L14.3742 9.72753L14.3822 9.72953L14.3848 9.73019L14.3857 9.73044L14.3861 9.73054C14.3863 9.73058 14.3865 9.73062 14.2491 10.2193C14.1117 10.7081 14.1119 10.7081 14.112 10.7081L14.1092 10.7074L14.0923 10.7033C14.0762 10.6995 14.0508 10.6937 14.0164 10.6863C13.9475 10.6716 13.8427 10.6508 13.7051 10.6282C13.4299 10.5831 13.0242 10.531 12.5133 10.5057C11.4909 10.4552 10.0519 10.5125 8.39647 10.9462C6.74257 11.3795 5.72593 11.9648 5.13377 12.4206C4.83711 12.6489 4.64456 12.8466 4.53032 12.9798C4.47312 13.0465 4.43533 13.0973 4.41379 13.128C4.40302 13.1434 4.39629 13.1537 4.39323 13.1586C4.39191 13.1607 4.39127 13.1617 4.39127 13.1617L4.39132 13.1616L4.39233 13.1599L4.39331 13.1582L4.39391 13.1572L4.39425 13.1566Z"
      fill="var(--color-bg-alert)"
    />
  </g>
  <path
    fill-rule="evenodd"
    clip-rule="evenodd"
    d="M9.0276 1.46812L13.271 3.66056L14.5332 8.8775L12.0021 13.2366L6.56824 14.5324L2.72134 12.324L1.46643 6.70476L4.00837 2.76476L9.0276 1.46812ZM4.63683 3.63524L2.5336 6.89523L3.60128 11.676L6.72211 13.4676L11.3528 12.3634L13.4668 8.7225L12.4064 4.33943L8.90791 2.53187L4.63683 3.63524Z"
    fill="var(--color-typo-primary)"
  />
</svg>
