<!-- ##color:mono ##group:communication -->
<svg viewBox="0 0 28 28" fill="none" xmlns="http://www.w3.org/2000/svg">
  <path
    d="M15.4789 20.5756C12.02 18.8033 9.18444 15.98 7.42444 12.5211L10.5037 10.2247C10.8232 9.98643 10.9707 9.58117 10.8791 9.19327L9.59854 3.77018C9.49196 3.31884 9.08905 3 8.6253 3H4.22222C3.55 3 3 3.55 3 4.22222C3 15.6989 12.3011 25 23.7778 25C24.45 25 25 24.45 25 23.7778V19.3733C25 18.9102 24.682 18.5077 24.2315 18.4005L18.8088 17.1103C18.4199 17.0178 18.0132 17.1658 17.7747 17.4866L15.4789 20.5756Z"
  />
</svg>
