<!-- ##color:multiple ##group:well -->
<svg
  viewBox="0 0 24 24"
  fill="none"
  fill="none"
  xmlns="http://www.w3.org/2000/svg"
>
  <path
    d="M12 1C9.20716 1 6.51888 2.06233 4.48048 3.9715C2.44209 5.88066 1.20621 8.4937 1.02355 11.2806C0.840891 14.0674 1.72513 16.8194 3.49689 18.9783C5.26865 21.1372 7.79526 22.5414 10.5642 22.9059C13.3332 23.2704 16.1371 22.5681 18.4073 20.9413C20.6774 19.3145 22.2438 16.8852 22.7886 14.146C23.3335 11.4068 22.816 8.56294 21.3412 6.19125C19.8664 3.81956 17.5447 2.09766 14.847 1.37482"
    stroke="var(--color-typo-ghost)"
    stroke-width="2"
    stroke-dasharray="2 2"
  />
  <path
    d="M19 14.4545C19 18.0695 15.866 21 12 21C8.13401 21 5 18.0695 5 14.4545C5 10.8396 12 3 12 3C12 3 19 10.8396 19 14.4545Z"
    fill="var(--color-typo-primary)"
  />
</svg>
