<!-- ##color:multiple ##group:seismic -->
<svg viewBox="0 0 16 16" fill="none" xmlns="http://www.w3.org/2000/svg">
  <path
    d="M0 1.7C0 1.3134 0.313401 1 0.7 1H6.58579C6.851 1 7.10536 1.10536 7.29289 1.29289L8.70711 2.70711C8.89464 2.89464 9.149 3 9.41421 3H13C13.5523 3 14 3.44772 14 4V12.3C14 12.6866 13.6866 13 13.3 13H1C0.447716 13 0 12.5523 0 12V1.7Z"
    fill="var(--color-bg-caution)"
  />
  <path
    d="M0 3.7C0 3.3134 0.313401 3 0.7 3H13C13.5523 3 14 3.44772 14 4V12.3C14 12.6866 13.6866 13 13.3 13H1C0.447716 13 0 12.5523 0 12V3.7Z"
    fill="var(--color-bg-warning)"
  />
  <path
    d="M12.4285 5.71429L9.57139 7.50001V14.2857L12.4285 12.5397V5.71429Z"
    fill="#CCD9E0"
  />
  <path
    d="M12.4285 5.71429L15.4325 7.15528C15.7793 7.32166 16 7.67223 16 8.05691V13.1531C16 13.6735 15.4523 14.0119 14.9869 13.7792L12.4285 12.5V5.71429Z"
    fill="var(--color-bg-normal)"
  />
  <path
    d="M6 6.84692C6 6.32655 6.54762 5.9881 7.01305 6.22082L9.57143 7.50001V14.2857L6.56079 12.8139C6.21762 12.6461 6 12.2975 6 11.9155V6.84692Z"
    fill="var(--color-bg-normal)"
  />
  <path
    fill-rule="evenodd"
    clip-rule="evenodd"
    d="M9.62584 7.93095L7 6.61803V12.6297L9.51794 13.8607L12.3738 12.1155L15 13.392V7.34262L12.4921 6.13956L9.62584 7.93095ZM12.4286 5L15.5947 6.51877C15.8424 6.63761 16 6.88802 16 7.16279V14.191C16 14.5627 15.6088 14.8044 15.2764 14.6382L12.4286 13.254L9.57143 15L6.40056 13.4498C6.15544 13.33 6 13.0809 6 12.8081V5.80902C6 5.43733 6.39116 5.19558 6.72361 5.3618L9.57143 6.78571L12.4286 5ZM15.1621 7.42039C15.1622 7.42044 15.162 7.42034 15.1621 7.42039V7.42039Z"
    fill="var(--color-typo-primary)"
  />
</svg>
