<!-- ##color:mono ##group:action -->
<svg viewBox="0 0 24 24" xmlns="http://www.w3.org/2000/svg">
  <path
    fill-rule="evenodd"
    clip-rule="evenodd"
    d="M12 21C16.9706 21 21 16.9706 21 12C21 7.02944 16.9706 3 12 3C7.02944 3 3 7.02944 3 12C3 16.9706 7.02944 21 12 21ZM7.29717 7.2968C6.90665 7.68732 6.90665 8.32049 7.29717 8.71101L10.5859 11.9998L7.29189 15.2938C6.90136 15.6843 6.90136 16.3175 7.29189 16.708C7.68241 17.0985 8.31558 17.0985 8.7061 16.708L12.0001 13.4141L15.2934 16.7074C15.6839 17.0979 16.3171 17.0979 16.7076 16.7074C17.0981 16.3169 17.0981 15.6837 16.7076 15.2932L13.4143 11.9999L16.7032 8.7111C17.0937 8.32058 17.0937 7.68741 16.7032 7.29689C16.3127 6.90636 15.6795 6.90636 15.289 7.29689L12.0001 10.5856L8.71139 7.2968C8.32086 6.90628 7.6877 6.90628 7.29717 7.2968Z"
  />
</svg>
