<!-- ##color:mono ##group:geology -->
<svg viewBox="0 0 28 28" fill="none" xmlns="http://www.w3.org/2000/svg">
  <path
    fill-rule="evenodd"
    clip-rule="evenodd"
    d="M9 2.5C9 2.22386 9.22386 2 9.5 2H18.5C18.7761 2 19 2.22386 19 2.5V4.5C19 4.77614 18.7761 5 18.5 5H17.2308L20 17H25.5C25.7761 17 26 17.2239 26 17.5V19.5C26 19.7761 25.7761 20 25.5 20H2.5C2.22386 20 2 19.7761 2 19.5V17.5C2 17.2239 2.22386 17 2.5 17H8L10.7692 5H9.5C9.22386 5 9 4.77614 9 4.5V2.5ZM13.0769 8L11 17H17L14.9231 8H13.0769Z"
  />
  <path
    d="M4 13.5C4 13.2239 4.22386 13 4.5 13H6.5C6.77614 13 7 13.2239 7 13.5V15.5C7 15.7761 6.77614 16 6.5 16H4.5C4.22386 16 4 15.7761 4 15.5V13.5Z"
  />
  <path
    d="M21 13.5C21 13.2239 21.2239 13 21.5 13H23.5C23.7761 13 24 13.2239 24 13.5V15.5C24 15.7761 23.7761 16 23.5 16H21.5C21.2239 16 21 15.7761 21 15.5V13.5Z"
  />
  <path d="M3.84534 22L2 25.1962V22.5C2 22.2239 2.22386 22 2.5 22H3.84534Z" />
  <path d="M4.22644 26L6.53589 22H8.84534L6.53589 26H4.22644Z" />
  <path d="M11.5359 22L9.22644 26H11.5359L13.8453 22H11.5359Z" />
  <path d="M14.2264 26L16.5359 22H18.8453L16.5359 26H14.2264Z" />
  <path d="M21.5359 22L19.2264 26H21.5359L23.8453 22H21.5359Z" />
  <path
    d="M24.2264 26L26 22.9282V25.5C26 25.7761 25.7761 26 25.5 26H24.2264Z"
  />
</svg>
