<!-- ##color:mono ##group:objects -->
<svg viewBox="0 0 28 28" fill="none" xmlns="http://www.w3.org/2000/svg">
  <path
    fill-rule="evenodd"
    clip-rule="evenodd"
    d="M17.525 17.255L15.4164 16.4313C14.8781 16.8695 14.2734 17.2293 13.6197 17.4933L13.3059 19.622C13.2781 19.838 13.0839 20 12.8525 20H9.15156C8.92023 20 8.72596 19.838 8.69819 19.622L8.38465 17.4951C7.7298 17.2311 7.12409 16.8711 6.58497 16.4323L4.47907 17.255C4.27552 17.327 4.0257 17.255 3.91468 17.057L2.06415 13.943C1.95313 13.745 1.9994 13.502 2.17518 13.367L4.06153 11.9321C4.02094 11.6272 4.00001 11.316 4.00001 11C4.00001 10.684 4.02094 10.3728 4.06153 10.0679L2.17518 8.633C1.9994 8.498 1.94385 8.255 2.06415 8.05701L3.91468 4.94299C4.0257 4.745 4.26624 4.664 4.47907 4.745L6.58497 5.56766C7.12409 5.12894 7.7298 4.76886 8.38465 4.50494L8.69819 2.37801C8.72596 2.162 8.92023 2 9.15156 2H12.8525C13.0839 2 13.2781 2.162 13.3059 2.37801L13.6197 4.5067C14.2734 4.77068 14.8781 5.13049 15.4164 5.56874L17.525 4.745C17.7286 4.673 17.9784 4.745 18.0894 4.94299L19.9399 8.05701C20.051 8.255 20.0047 8.498 19.8289 8.633L17.9389 10.0707C17.9792 10.3747 18 10.6849 18 11C18 11.3151 17.9792 11.6253 17.9389 11.9293L19.8289 13.367C20.0047 13.502 20.051 13.745 19.9399 13.943L18.0894 17.057C17.9784 17.255 17.7379 17.336 17.525 17.255ZM11 14.5C12.933 14.5 14.5 12.933 14.5 11C14.5 9.067 12.933 7.5 11 7.5C9.06702 7.5 7.50001 9.067 7.50001 11C7.50001 12.933 9.06702 14.5 11 14.5Z"
  />
  <path
    fill-rule="evenodd"
    clip-rule="evenodd"
    d="M22.0449 16H20.5449L20.1021 17.1809C19.5308 17.3591 19.0145 17.662 18.5852 18.0576L17.3397 17.8505L16.5897 19.1495L17.3912 20.1237C17.3281 20.4057 17.2949 20.699 17.2949 21C17.2949 21.3011 17.3281 21.5943 17.3912 21.8763L16.5897 22.8505L17.3397 24.1495L18.5852 23.9424C19.0145 24.338 19.5308 24.6409 20.1021 24.8191L20.5449 26H22.0449L22.4877 24.8191C23.0589 24.6409 23.5752 24.338 24.0046 23.9424L25.25 24.1495L26 22.8505L25.1986 21.8764C25.2616 21.5943 25.2949 21.3011 25.2949 21C25.2949 20.699 25.2616 20.4057 25.1986 20.1237L26 19.1495L25.25 17.8505L24.0046 18.0576C23.5752 17.662 23.059 17.3591 22.4877 17.1809L22.0449 16ZM21.3009 22.5199C22.1293 22.5199 22.8009 21.8483 22.8009 21.0199C22.8009 20.1915 22.1293 19.5199 21.3009 19.5199C20.4725 19.5199 19.8009 20.1915 19.8009 21.0199C19.8009 21.8483 20.4725 22.5199 21.3009 22.5199Z"
  />
</svg>
