<!-- ##color:multiple ##group:seismic -->
<svg viewBox="0 0 16 16" fill="none" xmlns="http://www.w3.org/2000/svg">
  <path
    d="M2 2.86798C2 2.42165 2.41208 2.08932 2.84828 2.18386L13.2118 4.43015C13.6718 4.52985 14 4.9368 14 5.40746V13.132C14 13.5783 13.5879 13.9107 13.1517 13.8161L2.78817 11.5698C2.3282 11.4702 2 11.0632 2 10.5925V2.86798Z"
    fill="var(--color-bg-ghost)"
  />
  <path
    d="M14 12.1423C13.5616 11.8492 13.0837 11.6289 12.6142 11.4124C12.4787 11.35 12.3437 11.2878 12.2108 11.2243C11.1011 10.6945 9.50509 10.0529 7.54422 9.59566C5.80843 9.19088 3.49797 8.92723 2.00002 9.44356L2.00002 10.5112C3.4109 9.97985 5.97134 10.2846 7.54422 10.6513C9.12311 11.0195 11.2886 11.862 13.9225 13.453C13.9718 13.3575 14 13.2487 14 13.132L14 12.1423Z"
    fill="var(--color-bg-alert)"
  />
  <path
    d="M2 5.52061V6.64842C2.80835 6.14617 3.67024 5.81078 4.62225 5.58577C5.86997 5.29088 7.5371 5.11146 9.29046 5.52033C10.1506 5.72091 12.1954 6.43201 14 8.74282V7.64765C12.645 5.87141 11.068 5.13284 9.29046 4.71833C7.31714 4.25816 5.4905 4.46701 4.17612 4.77766C3.51527 4.93385 2.97472 5.11799 2.59848 5.26344C2.41017 5.33624 2.26252 5.39954 2.161 5.44512C2.11023 5.46792 2.07095 5.4863 2.04386 5.49924L2.01244 5.51444L2.00372 5.51875L2.00115 5.52003L2 5.52061Z"
    fill="var(--color-bg-warning)"
  />
  <path
    d="M2 9.22171C2.25319 9.16399 2.52064 9.08989 2.80715 9.01051C4.21745 8.61975 6.08967 8.101 8.99773 8.77914C11.4969 9.36194 13.163 11.1334 13.9961 12.0191V10.3596C13.9961 10.3596 10.4972 7.05442 6.49854 6.12195C2.49984 5.18947 2 7.56219 2 7.56219V9.22171Z"
    fill="var(--color-bg-normal)"
  />
</svg>
