<!-- ##color:mono ##group:file -->
<svg
  width="24"
  height="24"
  viewBox="0 0 24 24"
  fill="none"
  xmlns="http://www.w3.org/2000/svg"
>
  <path
    fill-rule="evenodd"
    clip-rule="evenodd"
    d="M10 15.4649C9.41165 15.8052 8.72858 16 8 16C5.79086 16 4 14.2091 4 12C4 9.79086 5.79086 8 8 8C8.72858 8 9.41165 8.19479 10 8.53513C10.5883 8.19479 11.2714 8 12 8C12.7286 8 13.4117 8.19479 14 8.53513C14.5883 8.19479 15.2714 8 16 8C18.2091 8 20 9.79086 20 12C20 14.2091 18.2091 16 16 16C15.2714 16 14.5883 15.8052 14 15.4649C13.4117 15.8052 12.7286 16 12 16C11.2714 16 10.5883 15.8052 10 15.4649ZM12 12C12 10.919 12.4288 9.93818 13.1256 9.21831C12.778 9.07753 12.3981 9 12 9C11.6019 9 11.222 9.07753 10.8744 9.21831C10.8603 9.22402 10.8463 9.22984 10.8323 9.23575C10.5254 9.36555 10.2446 9.54494 10 9.76389C9.38625 10.3132 9 11.1115 9 12C9 12.8885 9.38625 13.6868 10 14.2361C10.03 14.263 10.0606 14.2893 10.0917 14.3149C10.3255 14.5079 10.5891 14.6661 10.8744 14.7817C11.222 14.9225 11.6019 15 12 15C12.3981 15 12.778 14.9225 13.1256 14.7817C12.4288 14.0618 12 13.081 12 12ZM9.12559 14.7817C8.77802 14.9225 8.39807 15 8 15C6.34315 15 5 13.6569 5 12C5 10.3431 6.34315 9 8 9C8.39806 9 8.77802 9.07753 9.12559 9.21831C8.4288 9.93818 8 10.919 8 12C8 13.081 8.4288 14.0618 9.12559 14.7817Z"
    fill="black"
  />
  <path
    fill-rule="evenodd"
    clip-rule="evenodd"
    d="M22 3H2V21H22V3ZM3 20V4H21V20H3Z"
    fill="black"
  />
</svg>
