<!-- ##color:multiple ##group:seismic -->
<svg viewBox="0 0 16 16" fill="none" xmlns="http://www.w3.org/2000/svg">
  <path
    d="M1 13H11C11 13.5523 10.5523 14 10 14H2C1.44772 14 1 13.5523 1 13Z"
    fill="url(#paint0_linear_23779_1144)"
  />
  <rect
    x="1"
    y="12"
    width="10"
    height="1"
    fill="url(#paint1_linear_23779_1144)"
  />
  <rect
    x="1"
    y="11"
    width="10"
    height="1"
    fill="url(#paint2_linear_23779_1144)"
  />
  <rect
    x="1"
    y="10"
    width="10"
    height="1"
    fill="url(#paint3_linear_23779_1144)"
  />
  <rect
    x="1"
    y="9"
    width="10"
    height="1"
    fill="url(#paint4_linear_23779_1144)"
  />
  <rect
    x="1"
    y="8"
    width="10"
    height="1"
    fill="url(#paint5_linear_23779_1144)"
  />
  <rect
    x="1"
    y="7"
    width="10"
    height="1"
    fill="url(#paint6_linear_23779_1144)"
  />
  <rect
    x="1"
    y="4"
    width="10"
    height="1"
    fill="url(#paint7_linear_23779_1144)"
  />
  <rect
    x="1"
    y="5"
    width="10"
    height="1"
    fill="url(#paint8_linear_23779_1144)"
  />
  <rect
    x="1"
    y="6"
    width="10"
    height="1"
    fill="url(#paint9_linear_23779_1144)"
  />
  <rect
    x="1"
    y="3"
    width="10"
    height="1"
    fill="url(#paint10_linear_23779_1144)"
  />
  <path
    d="M1 3C1 2.44772 1.44772 2 2 2H10C10.5523 2 11 2.44772 11 3H1Z"
    fill="url(#paint11_linear_23779_1144)"
  />
  <path
    d="M14 4H15L13.5 2L12 4H13V12H12L13.5 14L15 12H14V4Z"
    fill="var(--color-typo-primary)"
  />
  <defs>
    <linearGradient
      id="paint0_linear_23779_1144"
      x1="11"
      y1="13.5"
      x2="1"
      y2="13.5"
      gradientUnits="userSpaceOnUse"
    >
      <stop stop-color="#1F0266" />
      <stop offset="1" stop-color="#950BFF" />
    </linearGradient>
    <linearGradient
      id="paint1_linear_23779_1144"
      x1="11"
      y1="12.5"
      x2="1"
      y2="12.5"
      gradientUnits="userSpaceOnUse"
    >
      <stop stop-color="#2C0B66" />
      <stop offset="1" stop-color="#BE37FF" />
    </linearGradient>
    <linearGradient
      id="paint2_linear_23779_1144"
      x1="11"
      y1="11.5"
      x2="1"
      y2="11.5"
      gradientUnits="userSpaceOnUse"
    >
      <stop stop-color="#4A3364" />
      <stop offset="1" stop-color="#F1D3FF" />
    </linearGradient>
    <linearGradient
      id="paint3_linear_23779_1144"
      x1="11"
      y1="10.5"
      x2="1"
      y2="10.5"
      gradientUnits="userSpaceOnUse"
    >
      <stop stop-color="#20205D" />
      <stop offset="1" stop-color="#9797FD" />
    </linearGradient>
    <linearGradient
      id="paint4_linear_23779_1144"
      x1="11"
      y1="9.5"
      x2="1"
      y2="9.5"
      gradientUnits="userSpaceOnUse"
    >
      <stop stop-color="#621C66" />
      <stop offset="1" stop-color="#FF86FF" />
    </linearGradient>
    <linearGradient
      id="paint5_linear_23779_1144"
      x1="11"
      y1="8.5"
      x2="1"
      y2="8.5"
      gradientUnits="userSpaceOnUse"
    >
      <stop stop-color="#644A33" />
      <stop offset="1" stop-color="#FFF1D3" />
    </linearGradient>
    <linearGradient
      id="paint6_linear_23779_1144"
      x1="11"
      y1="7.5"
      x2="1"
      y2="7.5"
      gradientUnits="userSpaceOnUse"
    >
      <stop stop-color="#663A1C" />
      <stop offset="1" stop-color="#FFDD86" />
    </linearGradient>
    <linearGradient
      id="paint7_linear_23779_1144"
      x1="11"
      y1="4.5"
      x2="1"
      y2="4.5"
      gradientUnits="userSpaceOnUse"
    >
      <stop stop-color="#661F02" />
      <stop offset="1" stop-color="#FF950B" />
    </linearGradient>
    <linearGradient
      id="paint8_linear_23779_1144"
      x1="11"
      y1="5.5"
      x2="1"
      y2="5.5"
      gradientUnits="userSpaceOnUse"
    >
      <stop stop-color="#662C0B" />
      <stop offset="1" stop-color="#FFBE37" />
    </linearGradient>
    <linearGradient
      id="paint9_linear_23779_1144"
      x1="11"
      y1="6.5"
      x2="1"
      y2="6.5"
      gradientUnits="userSpaceOnUse"
    >
      <stop stop-color="#6C2402" />
      <stop offset="1" stop-color="#EA9312" />
    </linearGradient>
    <linearGradient
      id="paint10_linear_23779_1144"
      x1="11"
      y1="3.5"
      x2="1"
      y2="3.5"
      gradientUnits="userSpaceOnUse"
    >
      <stop stop-color="#5B000A" />
      <stop offset="1" stop-color="#FD002D" />
    </linearGradient>
    <linearGradient
      id="paint11_linear_23779_1144"
      x1="11"
      y1="2.5"
      x2="1"
      y2="2.5"
      gradientUnits="userSpaceOnUse"
    >
      <stop stop-color="#210009" />
      <stop offset="1" stop-color="#9C002B" />
    </linearGradient>
  </defs>
</svg>
