<!-- ##color:multiple ##group:colored -->
<svg viewBox="0 0 24 24" fill="none" xmlns="http://www.w3.org/2000/svg">
  <path
    fill-rule="evenodd"
    clip-rule="evenodd"
    d="M12 13.5C12.4686 13.5 12.9183 13.4194 13.3361 13.2714C13.2554 12.8356 13.1003 12.4058 12.8661 12C12.6318 11.5942 12.3371 11.245 12 10.9572C11.6629 11.245 11.3683 11.5942 11.134 12C10.8997 12.4057 10.7446 12.8355 10.6639 13.2714C11.0817 13.4194 11.5315 13.5 12 13.5ZM9.7423 12.8024C9.85256 12.3562 10.0267 11.9179 10.268 11.5C10.5093 11.082 10.8018 10.7121 11.133 10.3936C10.1916 9.94279 9.08739 9.86592 8.06628 10.2289C8.26251 11.2947 8.88121 12.2125 9.7423 12.8024ZM11.9999 9.7269C10.8195 9.01067 9.37017 8.80162 8.0114 9.19609C8.1667 7.12892 9.89314 5.5 12 5.5C14.1069 5.5 15.8333 7.12887 15.9886 9.19599C14.6298 8.80151 13.1804 9.01059 11.9999 9.7269ZM16.9988 9.61394C16.9996 9.57606 17 9.53808 17 9.5C17 6.73858 14.7615 4.5 12 4.5C9.23861 4.5 7.00003 6.73858 7.00003 9.5C7.00003 9.53811 7.00046 9.57613 7.0013 9.61404C6.96807 9.63225 6.93495 9.65087 6.90196 9.66992C4.5105 11.0506 3.69112 14.1086 5.07183 16.5C6.45254 18.8915 9.51049 19.7109 11.902 18.3302C11.935 18.3111 11.9677 18.2917 12.0001 18.272C12.0325 18.2917 12.0651 18.311 12.0981 18.3301C14.4896 19.7108 17.5475 18.8914 18.9282 16.5C20.3089 14.1085 19.4896 11.0505 17.0981 9.66982C17.0651 9.65078 17.032 9.63215 16.9988 9.61394ZM15.9338 10.2288C14.9126 9.86581 13.8083 9.9427 12.8669 10.3936C13.1982 10.7121 13.4908 11.0821 13.7321 11.5C13.9734 11.918 14.1475 12.3563 14.2577 12.8024C15.1189 12.2125 15.7376 11.2946 15.9338 10.2288ZM16.8557 10.6977C18.5682 11.8658 19.1156 14.1753 18.0622 16C17.0088 17.8245 14.7349 18.5052 12.8671 17.6062C13.8881 16.6267 14.4317 15.267 14.4016 13.8865C15.6121 13.2224 16.5179 12.0717 16.8557 10.6977ZM12.0001 17.0423C12.825 16.3395 13.3105 15.3447 13.3908 14.304C12.9493 14.4316 12.4826 14.5 12 14.5C11.5174 14.5 11.0508 14.4316 10.6093 14.304C10.6896 15.3447 11.1751 16.3395 12.0001 17.0423ZM11.1331 17.6062C10.112 16.6267 9.56837 15.267 9.59845 13.8865C8.38793 13.2224 7.4822 12.0717 7.14441 10.6978C5.43187 11.8659 4.88442 14.1754 5.93786 16C6.99131 17.8247 9.26522 18.5054 11.1331 17.6062Z"
    fill="var(--color-bg-border)"
  />
</svg>
