<!-- ##color:multiple ##group:geo -->
<svg viewBox="0 0 16 16" fill="none" xmlns="http://www.w3.org/2000/svg">
  <path
    d="M7.86443 4.07801C8.21852 1.92347 10.3601 0.550788 12.4624 1.13501L13.2674 1.35874C13.8002 1.5068 14.1108 2.05881 13.9637 2.59057C13.8164 3.12275 13.2657 3.43612 12.7325 3.28794L11.9274 3.06421C10.9735 2.79913 9.99919 3.42152 9.83787 4.40304L8.60232 11.9209C8.19044 14.427 5.42364 15.7699 3.20484 14.5359L2.51451 14.152C2.03158 13.8834 1.85823 13.2743 2.12556 12.7915C2.39324 12.3081 3.00223 12.1328 3.48579 12.4018L4.17612 12.7857C5.18286 13.3456 6.44124 12.7376 6.62887 11.5959L7.86443 4.07801Z"
    fill="var(--color-typo-normal)"
  />
  <path
    fill-rule="evenodd"
    clip-rule="evenodd"
    d="M4 8.00024C4 7.7241 4.22386 7.50024 4.5 7.50024H11.5C11.7761 7.50024 12 7.7241 12 8.00024C12 8.27639 11.7761 8.50024 11.5 8.50024H4.5C4.22386 8.50024 4 8.27639 4 8.00024Z"
    fill="var(--color-typo-primary)"
  />
</svg>
