<!-- ##color:multiple ##group:seismic -->
<svg viewBox="0 0 16 16" fill="none" xmlns="http://www.w3.org/2000/svg">
  <g clip-path="url(#clip0_23779_1146)">
    <path
      d="M3 2.07892C3 1.55771 3.54923 1.21931 4.01477 1.45368L12.4497 5.70022C12.7871 5.8701 13 6.21563 13 6.59341V13.3455C13 13.8667 12.4508 14.2051 11.9852 13.9707L3.55032 9.7242C3.21289 9.55433 3 9.20879 3 8.83101V2.07892Z"
      fill="#CCD9E0"
    />
    <path
      d="M3 4.09438V3.03049C3.3162 3.02261 3.69874 3.02682 4.13439 3.05729C5.18024 3.13045 6.4719 3.23265 7.94143 3.77061C7.97961 3.87713 8 3.99097 8 4.10788V4.90232C6.66006 4.40705 5.44778 4.25802 4.46767 4.18946C4.25957 4.17491 4.06436 4.15661 3.88371 4.13968C3.53211 4.10673 3.23565 4.07895 3.00661 4.09395C3.0044 4.09409 3.0022 4.09423 3 4.09438Z"
      fill="var(--color-bg-warning)"
    />
  </g>
  <g clip-path="url(#clip1_23779_1146)">
    <path
      d="M15 2.85336C15 2.40704 14.5879 2.0747 14.1517 2.16925L1.78817 4.84903C1.3282 4.94873 1 5.35569 1 5.82634V12.6562C1 13.1026 1.41208 13.4349 1.84828 13.3404L14.2118 10.6606C14.6718 10.5609 15 10.1539 15 9.68326V2.85336Z"
      fill="var(--color-bg-ghost)"
    />
    <path
      d="M15 2.85336C15 2.40704 14.5879 2.0747 14.1517 2.16925L1.78817 4.84903C1.3282 4.94873 1 5.35569 1 5.82634V12.6562C1 13.1026 1.41208 13.4349 1.84828 13.3404L14.2118 10.6606C14.6718 10.5609 15 10.1539 15 9.68326V2.85336Z"
      fill="#EBEEEF"
    />
    <path
      d="M1 7.52182C1.12567 7.42788 1.28389 7.311 1.51753 7.14777C1.98462 6.82146 2.65491 6.3774 3.47334 5.90208C5.10662 4.95351 7.34776 3.86996 9.75 3.35935C12.1551 2.84814 13.576 3.15533 14.4101 3.65371C14.6583 3.80197 14.851 3.96524 15 4.12435V6.26875C14.9993 6.04199 14.7416 5.52655 14.5234 5.27219C14.4275 5.12607 14.1529 4.85916 13.8399 4.67208C13.2156 4.29908 12.0116 3.98286 9.75 4.46359C7.48557 4.94491 5.35172 5.97266 3.77666 6.88741C2.99093 7.34374 2.34871 7.76934 1.90434 8.07978C1.5904 8.29911 1.21568 8.585 1 8.78995L1 7.52182Z"
      fill="var(--color-bg-warning)"
    />
    <path
      d="M6.25 6.7104C1.58333 7.70233 1 10.1423 1 10.1423V11.6864C2.75 10.671 5.08334 8.8884 9.16667 8.02046C12.0833 7.4005 14.0278 8.27388 15 8.71056V7.16655C15 7.16655 10.9167 5.71847 6.25 6.7104Z"
      fill="var(--color-bg-normal)"
    />
    <path
      d="M15 9.10635C14.9893 9.10591 14.9778 9.10546 14.9656 9.105C14.8713 9.10149 14.7328 9.09771 14.5526 9.09642C14.192 9.09383 13.664 9.10115 12.9871 9.14036C11.6335 9.21876 9.68343 9.42473 7.28591 9.93434C4.88837 10.4439 3.22873 11.0052 2.15972 11.445C1.63858 11.6594 1.25768 11.8449 1.00001 11.9816V12.6562C1.00001 12.8266 1.06005 12.9803 1.15855 13.1001C1.18477 13.0856 1.21346 13.07 1.24468 13.0533C1.46888 12.9337 1.82343 12.7592 2.32703 12.552C3.33436 12.1377 4.93753 11.5926 7.28591 11.0934C9.6343 10.5943 11.5403 10.3934 12.8562 10.3172C13.5141 10.2791 14.0243 10.2722 14.3682 10.2746C14.5086 10.2756 14.6521 10.2815 14.7471 10.2853C14.7657 10.2861 14.7825 10.2868 14.7969 10.2873C14.8066 10.2745 14.816 10.2615 14.8251 10.2483C14.919 10.0736 14.9496 9.94651 14.998 9.70025C14.9987 9.69689 14.9993 9.69354 15 9.69021C15 9.68789 15 9.68556 15 9.68323V9.10635Z"
      fill="var(--color-bg-alert)"
    />
  </g>
  <g clip-path="url(#clip2_23779_1146)">
    <path
      d="M3 2.13464C3 1.61378 3.54855 1.27536 4.01404 1.50904L12.4487 5.7431C12.7867 5.91277 13 6.25861 13 6.63681V13.3896C13 13.9104 12.4515 14.2489 11.986 14.0152L3.55137 9.78113C3.21336 9.61145 3 9.26561 3 8.88741V2.13464Z"
      fill="#CCD9E0"
    />
    <path
      d="M8 4.93771V3.83318C8.32498 3.95452 8.65855 4.09722 9 4.2656C10.9194 5.21217 12.1768 6.52119 12.8474 7.47307C12.9016 7.55003 12.9524 7.62543 13 7.69906V9.11097C12.8173 8.77416 12.5475 8.30454 12.2547 7.88889C11.7794 7.21423 10.7978 6.25165 9.05054 5.39001C8.69318 5.21378 8.34242 5.06448 8 4.93771Z"
      fill="var(--color-bg-warning)"
    />
    <path
      d="M8 8.298V6.44038C10.8171 8.38335 13 11.0252 13 11.0252V12.4406C12.2361 11.4741 10.6739 9.61078 8.38219 8.48065C8.25251 8.4167 8.12514 8.35587 8 8.298Z"
      fill="var(--color-bg-normal)"
    />
    <path
      d="M8 10.9558V9.78996C9.42067 10.569 10.5939 11.3873 11.4334 12.0463C11.5662 12.1505 11.6989 12.2547 11.8317 12.3588C12.2211 12.6645 12.6106 12.9702 13 13.2762V13.4062C13 13.7227 12.9085 13.9339 12.7148 14.0547C12.6623 14.015 12.5556 13.9135 12.4834 13.8603C12.3919 13.7929 12.2894 13.7086 12.1734 13.6131C11.9556 13.4337 11.6901 13.2151 11.3604 12.996C10.5302 12.4442 9.38403 11.6983 8 10.9558Z"
      fill="var(--color-bg-alert)"
    />
  </g>
  <defs>
    <clipPath id="clip0_23779_1146">
      <path
        d="M3 2C3 1.44772 3.40154 1.19802 3.89687 1.44229L8 3.46573V12.0001L3.89687 9.9767C3.40154 9.73243 3 9.08669 3 8.53441V2Z"
        fill="white"
      />
    </clipPath>
    <clipPath id="clip1_23779_1146">
      <rect
        width="14.3128"
        height="8.4531"
        fill="white"
        transform="matrix(0.978148 -0.207912 0 1 1 5.00864)"
      />
    </clipPath>
    <clipPath id="clip2_23779_1146">
      <path
        d="M8 3.5083L12.1031 5.53174C12.5985 5.77601 13 6.42174 13 6.97403V13.4659C13 14.0181 12.5985 14.2678 12.1031 14.0236L8 12.0001V3.5083Z"
        fill="white"
      />
    </clipPath>
  </defs>
</svg>
