<!-- ##color:mono ##group:geology -->
<svg viewBox="0 0 28 28" fill="none" xmlns="http://www.w3.org/2000/svg">
  <path
    d="M14 12C18.9706 12 23 9.98528 23 7.5C23 5.01472 18.9706 3 14 3C9.02944 3 5 5.01472 5 7.5C5 9.98528 9.02944 12 14 12Z"
  />
  <path
    d="M5 12.3374C5 12.1511 5.15107 12 5.33742 12C5.44698 12 5.54874 12.0536 5.61628 12.1399C6.9273 13.8142 10.1867 15 14 15C17.8133 15 21.0727 13.8142 22.3837 12.1399C22.4513 12.0536 22.553 12 22.6626 12C22.8489 12 23 12.1511 23 12.3374V20.5C23 22.9853 18.9706 25 14 25C9.02944 25 5 22.9853 5 20.5V12.3374Z"
  />
</svg>
