<!-- ##color:mono ##group:objects -->
<svg viewBox="0 0 16 16" xmlns="http://www.w3.org/2000/svg">
  <path
    fill-rule="evenodd"
    clip-rule="evenodd"
    d="M5.5 6V4.5C5.5 3.11929 6.61929 2 8 2C9.38071 2 10.5 3.11929 10.5 4.5V6H12C12.5523 6 13 6.44772 13 7V13C13 13.5523 12.5523 14 12 14H4C3.44772 14 3 13.5523 3 13V7C3 6.44772 3.44772 6 4 6H5.5ZM6.5 4.5C6.5 3.67157 7.17157 3 8 3C8.82843 3 9.5 3.67157 9.5 4.5V6H6.5V4.5ZM9.5 10C9.5 10.8284 8.82843 11.5 8 11.5C7.17157 11.5 6.5 10.8284 6.5 10C6.5 9.17157 7.17157 8.5 8 8.5C8.82843 8.5 9.5 9.17157 9.5 10Z"
  />
</svg>
