<!-- ##color:mono ##group:objects -->
<svg viewBox="0 0 28 28" xmlns="http://www.w3.org/2000/svg">
  <path
    fill-rule="evenodd"
    clip-rule="evenodd"
    d="M9 10V7C9 4.23858 11.2386 2 14 2C16.7614 2 19 4.23858 19 7V10H22.75C23.4404 10 24 10.551 24 11.2308V24.7692C24 25.449 23.4404 26 22.75 26H5.25C4.55964 26 4 25.449 4 24.7692V11.2308C4 10.551 4.55964 10 5.25 10H9ZM11 7C11 5.34315 12.3431 4 14 4C15.6569 4 17 5.34315 17 7V10H11V7ZM14.7908 17.8743C15.7839 17.5485 16.5 16.6258 16.5 15.5385C16.5 14.179 15.3807 13.0769 14 13.0769C12.6193 13.0769 11.5 14.179 11.5 15.5385C11.5 16.6258 12.2161 17.5485 13.2092 17.8743L11.5 22.9231H16.5L14.7908 17.8743Z"
  />
</svg>
