<!-- ##color:mono ##group:objects -->
<svg viewBox="0 0 24 24" xmlns="http://www.w3.org/2000/svg">
  <path
    fill-rule="evenodd"
    clip-rule="evenodd"
    d="M7.5 9V6.5C7.5 4.01472 9.51472 2 12 2C14.4853 2 16.5 4.01472 16.5 6.5V9H19C19.5523 9 20 9.44772 20 10V21C20 21.5523 19.5523 22 19 22H5C4.44772 22 4 21.5523 4 21V10C4 9.44771 4.44772 9 5 9H7.5ZM9.5 6.5C9.5 5.11929 10.6193 4 12 4C13.3807 4 14.5 5.11929 14.5 6.5V9H9.5V6.5ZM12.6326 15.3979C13.4272 15.1332 14 14.3835 14 13.5C14 12.3954 13.1046 11.5 12 11.5C10.8954 11.5 10 12.3954 10 13.5C10 14.3835 10.5728 15.1332 11.3674 15.3979L10 19.5H14L12.6326 15.3979Z"
  />
</svg>
