<!-- ##color:mono ##group:objects -->
<svg viewBox="0 0 12 12" xmlns="http://www.w3.org/2000/svg">
  <path
    fill-rule="evenodd"
    clip-rule="evenodd"
    d="M4 4V3C4 1.89543 4.89543 1 6 1C7.10457 1 8 1.89543 8 3V4H9.47059C9.76297 4 10 4.23703 10 4.52941V10.4706C10 10.763 9.76297 11 9.47059 11H2.52941C2.23703 11 2 10.763 2 10.4706V4.52941C2 4.23703 2.23703 4 2.52941 4H4ZM5 3C5 2.44772 5.44772 2 6 2C6.55229 2 7 2.44772 7 3V4H5V3ZM7.5 7.5C7.5 8.32843 6.82843 9 6 9C5.17157 9 4.5 8.32843 4.5 7.5C4.5 6.67157 5.17157 6 6 6C6.82843 6 7.5 6.67157 7.5 7.5Z"
  />
</svg>
