<!-- ##color:mono ##group:social -->
<svg viewBox="0 0 12 12" xmlns="http://www.w3.org/2000/svg">
  <path
    d="M9 3.5C9 3.77614 8.77614 4 8.5 4C8.22386 4 8 3.77614 8 3.5C8 3.22386 8.22386 3 8.5 3C8.77614 3 9 3.22386 9 3.5Z"
  />
  <path
    fill-rule="evenodd"
    clip-rule="evenodd"
    d="M6 8.5C7.38071 8.5 8.5 7.38071 8.5 6C8.5 4.61929 7.38071 3.5 6 3.5C4.61929 3.5 3.5 4.61929 3.5 6C3.5 7.38071 4.61929 8.5 6 8.5ZM6 7.5C6.82843 7.5 7.5 6.82843 7.5 6C7.5 5.17157 6.82843 4.5 6 4.5C5.17157 4.5 4.5 5.17157 4.5 6C4.5 6.82843 5.17157 7.5 6 7.5Z"
  />
  <path
    fill-rule="evenodd"
    clip-rule="evenodd"
    d="M1 3.7C1 2.20883 2.20883 1 3.7 1H8.3C9.79117 1 11 2.20883 11 3.7V8.3C11 9.79117 9.79117 11 8.3 11H3.7C2.20883 11 1 9.79117 1 8.3V3.7ZM3.7 2H8.3C9.23888 2 10 2.76112 10 3.7V8.3C10 9.23888 9.23888 10 8.3 10H3.7C2.76112 10 2 9.23888 2 8.3V3.7C2 2.76112 2.76112 2 3.7 2Z"
  />
</svg>
