<!-- ##color:mono ##group:communication -->
<svg viewBox="0 0 16 16" fill="none" xmlns="http://www.w3.org/2000/svg">
  <path
    d="M15 2L13 2L13 9.90909L15 9.90909L15 2ZM2 8.72C2 9.42 2.57273 10 3.27273 10L7.28818 10L6.68364 13.4536L6.66455 13.6573C6.66455 13.9182 6.77273 14.16 6.94455 14.3318L7.61909 15L11.63 10.26C11.8655 10.0309 12 9.71 12 9.36L12 3.28C12 2.58 11.43 2 10.73 2L5.18182 2C4.65363 2 4.20182 2.32182 4.01091 2.78L2.08909 6.99C2.03182 7.13636 2 7.28455 2 7.45L2 8.67L2.00636 8.67L2 8.72Z"
  />
</svg>
