<!-- ##color:mono ##group:social -->
<svg viewBox="0 0 24 24" xmlns="http://www.w3.org/2000/svg">
  <path
    fill-rule="evenodd"
    clip-rule="evenodd"
    d="M2 7.7C2 4.55198 4.55198 2 7.7 2H16.3C19.448 2 22 4.55198 22 7.7V16.3C22 19.448 19.448 22 16.3 22H7.7C4.55198 22 2 19.448 2 16.3V7.7ZM12 15C13.6569 15 15 13.6569 15 12C15 10.3431 13.6569 9 12 9C10.3431 9 9 10.3431 9 12C9 13.6569 10.3431 15 12 15ZM12 17C14.7614 17 17 14.7614 17 12C17 9.23858 14.7614 7 12 7C9.23858 7 7 9.23858 7 12C7 14.7614 9.23858 17 12 17ZM18.25 7.5C18.9404 7.5 19.5 6.94036 19.5 6.25C19.5 5.55964 18.9404 5 18.25 5C17.5596 5 17 5.55964 17 6.25C17 6.94036 17.5596 7.5 18.25 7.5Z"
  />
</svg>
