<!-- ##color:mono ##group:social -->
<svg viewBox="0 0 16 16" xmlns="http://www.w3.org/2000/svg">
  <path
    fill-rule="evenodd"
    clip-rule="evenodd"
    d="M13.9695 5.52804C13.9414 4.89044 13.8383 4.45209 13.6905 4.07225C13.5381 3.66906 13.3037 3.30809 12.9965 3.00801C12.6963 2.70326 12.3329 2.46646 11.9343 2.31647C11.5522 2.16877 11.1161 2.06566 10.4783 2.03754C9.83584 2.00705 9.63188 2 8.00234 2C6.3728 2 6.16883 2.00705 5.52872 2.03516C4.89099 2.06328 4.45255 2.16648 4.07274 2.31409C3.66938 2.46646 3.30834 2.70088 3.0082 3.00801C2.7034 3.30809 2.46664 3.67144 2.31653 4.06996C2.1688 4.45209 2.06567 4.88805 2.03755 5.52566C2.00705 6.16803 2 6.37196 2 8.00119C2 9.63042 2.00705 9.83435 2.03517 10.4743C2.06329 11.1119 2.16651 11.5503 2.31424 11.9301C2.46664 12.3333 2.7034 12.6943 3.0082 12.9944C3.30834 13.2991 3.67176 13.5359 4.07036 13.6859C4.45255 13.8336 4.88861 13.9367 5.52643 13.9648C6.16645 13.993 6.37051 14 8.00005 14C9.62959 14 9.83355 13.993 10.4737 13.9648C11.1114 13.9367 11.5498 13.8336 11.9296 13.6859C12.7363 13.3741 13.374 12.7365 13.6859 11.9301C13.8335 11.548 13.9367 11.1119 13.9648 10.4743C13.9929 9.83435 14 9.63042 14 8.00119C14 6.37196 13.9976 6.16803 13.9695 5.52804ZM8.00233 4.91846C6.30016 4.91846 4.9191 6.29916 4.9191 8.0011C4.9191 9.70304 6.30016 11.0837 8.00233 11.0837C9.70459 11.0837 11.0856 9.70304 11.0856 8.0011C11.0856 6.29916 9.70459 4.91846 8.00233 4.91846ZM8.00233 10.0007C6.89805 10.0007 6.00231 9.10526 6.00231 8.0011C6.00231 6.89694 6.89805 6.00147 8.00233 6.00147C9.1067 6.00147 10.0023 6.89694 10.0023 8.0011C10.0023 9.10526 9.1067 10.0007 8.00233 10.0007ZM11.25 5.5C11.6642 5.5 12 5.16421 12 4.75C12 4.33579 11.6642 4 11.25 4C10.8358 4 10.5 4.33579 10.5 4.75C10.5 5.16421 10.8358 5.5 11.25 5.5Z"
  />
</svg>
