<!-- ##color:multiple ##group:geo -->
<svg viewBox="0 0 16 16" fill="none" xmlns="http://www.w3.org/2000/svg">
  <path
    fill-rule="evenodd"
    clip-rule="evenodd"
    d="M2.5 5C2.77614 5 3 5.22386 3 5.5C3 6.44527 3.18445 7.43404 3.71531 8.33606C4.24893 9.24275 4.91689 9.66768 5.71536 10.0488C5.94265 10.1572 6.27036 10.2181 6.71279 10.2788C6.77425 10.2872 6.83776 10.2957 6.90288 10.3043C7.2745 10.3536 7.69859 10.4098 8.09185 10.5156C8.55993 10.6414 9.04988 10.8525 9.42003 11.2641C9.79932 11.6859 10 12.2583 10 13V14.5C10 14.7761 9.77614 15 9.5 15C9.22386 15 9 14.7761 9 14.5V13C9 12.4456 8.85469 12.131 8.67649 11.9328C8.48915 11.7245 8.21012 11.5829 7.8322 11.4813C7.50779 11.394 7.15879 11.3475 6.78475 11.2975C6.71626 11.2884 6.64694 11.2791 6.57677 11.2695C6.1537 11.2114 5.67339 11.1368 5.28464 10.9512C4.39923 10.5287 3.53017 9.99305 2.85349 8.84326C2.20921 7.74854 2 6.57219 2 5.5C2 5.22386 2.22386 5 2.5 5Z"
    fill="var(--color-typo-system)"
  />
  <path
    fill-rule="evenodd"
    clip-rule="evenodd"
    d="M14.5 11.5C14.2239 11.5 14 11.2761 14 11C14 10.0547 13.8155 9.06596 13.2847 8.16395C12.7511 7.25725 12.0831 6.83233 11.2846 6.45124C11.0574 6.34277 10.7296 6.28194 10.2872 6.22119C10.2258 6.21276 10.1622 6.20433 10.0971 6.1957C9.7255 6.14642 9.30141 6.09018 8.90815 5.98444C8.44007 5.85859 7.95012 5.64748 7.57997 5.23589C7.20068 4.81414 7 4.24168 7 3.5L7 1.5C7 1.22386 7.22386 1 7.5 1C7.77614 1 8 1.22386 8 1.5L8 3.5C8 4.05445 8.14531 4.36905 8.32351 4.5672C8.51085 4.7755 8.78988 4.91713 9.1678 5.01874C9.49221 5.10596 9.84121 5.15254 10.2152 5.20246C10.2837 5.2116 10.3531 5.22085 10.4232 5.23049C10.8463 5.28858 11.3266 5.36322 11.7154 5.54876C12.6008 5.97133 13.4698 6.50695 14.1465 7.65674C14.7908 8.75146 15 9.92781 15 11C15 11.2761 14.7761 11.5 14.5 11.5Z"
    fill="var(--color-typo-system)"
  />
  <path
    fill-rule="evenodd"
    clip-rule="evenodd"
    d="M5 1C5.55228 1 6 1.44772 6 2V5.5C6 5.93134 6.0831 6.20248 6.17962 6.38029C6.27441 6.55488 6.41377 6.69805 6.62076 6.82641C7.09116 7.11811 7.76375 7.26072 8.69672 7.44792C8.71274 7.45113 8.72886 7.45436 8.74507 7.45761C9.56727 7.62243 10.6229 7.83405 11.4551 8.38035C11.9054 8.67597 12.3063 9.0763 12.5877 9.62092C12.8667 10.1611 13 10.7885 13 11.5V14C13 14.5523 12.5523 15 12 15C11.4477 15 11 14.5523 11 14V11.5C11 11.0388 10.9145 10.7397 10.8108 10.5389C10.7093 10.3426 10.5634 10.1875 10.3574 10.0523C9.89349 9.74766 9.22443 9.59366 8.30328 9.40884C8.26305 9.40077 8.22219 9.39262 8.18076 9.38435C7.38072 9.22476 6.36737 9.02261 5.56674 8.52612C5.11748 8.24753 4.70997 7.86507 4.42194 7.33451C4.13565 6.80717 4 6.19366 4 5.5V2C4 1.44772 4.44772 1 5 1Z"
    fill="var(--color-typo-primary)"
  />
</svg>
