<!-- ##color:multiple ##group:colored -->
<svg viewBox="0 0 12 12" fill="none" xmlns="http://www.w3.org/2000/svg">
  <path
    fill-rule="evenodd"
    clip-rule="evenodd"
    d="M4.06838 4.52049C4.80711 4.61222 5.50463 4.97694 6.00159 5.57194C6.49809 4.9795 7.19376 4.61622 7.9305 4.52448C7.97581 4.35733 7.99998 4.18149 7.99998 4C7.99998 2.89543 7.10455 2 5.99998 2C4.89541 2 3.99998 2.89543 3.99998 4C3.99998 4.18004 4.02377 4.35453 4.06838 4.52049ZM6.54278 8.45941C6.70726 7.97257 6.74686 7.4452 6.64749 6.92994C7.47198 6.74856 8.1693 6.22802 8.58575 5.52205C8.83017 5.55737 9.07209 5.63886 9.29902 5.76987C10.2556 6.32216 10.5834 7.54534 10.0311 8.50192C9.47878 9.45851 8.2556 9.78626 7.29902 9.23397C6.96833 9.04305 6.71279 8.77196 6.54278 8.45941ZM5.99836 9.42855C5.7796 9.68894 5.51251 9.91627 5.20094 10.0962C3.76606 10.9246 1.93129 10.433 1.10286 8.99808C0.274437 7.5632 0.766063 5.72843 2.20094 4.9C2.47393 4.74239 2.7614 4.63256 3.05366 4.56791C3.01842 4.38402 2.99998 4.19416 2.99998 4C2.99998 2.34315 4.34312 1 5.99998 1C7.65683 1 8.99998 2.34315 8.99998 4C8.99998 4.19547 8.98129 4.38656 8.94559 4.57161C9.23809 4.63623 9.5258 4.74611 9.79902 4.90385C11.2339 5.73227 11.7255 7.56705 10.8971 9.00192C10.0687 10.4368 8.2339 10.9284 6.79902 10.1C6.48592 9.91923 6.21773 9.69054 5.99836 9.42855ZM3.41212 5.5185C3.82844 6.22648 4.527 6.74855 5.35319 6.9301C5.25323 7.44485 5.29205 7.97182 5.45557 8.4585C5.28556 8.76981 5.03059 9.0398 4.70094 9.23013C3.74436 9.78241 2.52117 9.45466 1.96889 8.49808C1.4166 7.54149 1.74436 6.31831 2.70094 5.76603C2.92722 5.63538 3.16841 5.55399 3.41212 5.5185Z"
    fill="var(--color-bg-success)"
  />
</svg>
