<!-- ##color:mono ##group:communication -->
<svg viewBox="0 0 28 28" fill="none" xmlns="http://www.w3.org/2000/svg">
  <path
    d="M2.00004 24C2.00004 24.5523 2.44776 25 3.00004 25H5.99999C6.55228 25 6.99999 24.5523 6.99999 24L6.99995 12C6.99995 11.4477 6.55223 11 5.99995 11H3C2.44771 11 2 11.4477 2 12L2.00004 24ZM26.0654 13.2C26.0654 11.99 25.0836 11 23.8836 11H16.5L17.971 5.673L18.0037 5.321C18.0037 4.87 17.8182 4.452 17.5237 4.155L16.3673 3L9.5 10.449C9.09636 10.845 8.85636 11.395 8.85636 12V22.8C8.85636 24.01 9.83818 25 11.0382 25H20.5455C21.451 25 22.2255 24.45 22.5528 23.658L25.8473 15.903C25.9455 15.65 26 15.386 26 15.1L26.0654 13.299L26.0545 13.288L26.0654 13.2Z"
  />
</svg>
