<!-- ##color:mono ##group:human -->
<svg viewBox="0 0 24 28" fill="none" xmlns="http://www.w3.org/2000/svg">
  <path
    d="M6.40108 12.5442C4.249 12.3031 3.13043 10.0255 3.13043 7.78261C3.13043 5.41076 3.15941 3 6.78261 3C8.48326 3 9.39207 3.53111 9.87766 4.34005C9.55839 4.43427 9.25227 4.55463 8.96109 4.70419C8.034 5.18032 7.38348 5.88897 6.96447 6.70781C6.25593 8.09232 6.2588 9.76952 6.26061 10.8218L6.26077 10.971C6.26077 11.4882 6.30615 12.0182 6.40108 12.5442Z"
  />
  <path
    d="M7.10526 14.6908H6.26096C2.34792 14.6908 0 16.4976 0 21.8116H3.43691C3.76818 20.2594 4.38154 19.2371 5.342 18.17C6.16123 17.2597 7.14178 16.6485 8.21408 16.2686C7.97181 16.0191 7.75316 15.7488 7.55901 15.4639C7.39033 15.2164 7.23932 14.9578 7.10526 14.6908Z"
  />
  <path
    d="M8.34773 10.971C8.34773 13.3429 9.59867 15.7536 11.9999 15.7536C14.4011 15.7536 15.6521 13.3429 15.6521 10.971C15.6521 8.59917 15.6231 6.18841 11.9999 6.18841C8.37671 6.18841 8.34773 8.59917 8.34773 10.971Z"
  />
  <path
    d="M18.7825 25C18.7825 20.7488 17.3044 17.8792 12.5217 17.8792H11.4783C7.56522 17.8792 5.2173 19.686 5.2173 25H18.7825Z"
  />
  <path
    d="M17.2174 3C15.5167 3 14.6079 3.53114 14.1223 4.34011C14.4415 4.43433 14.7476 4.55467 15.0387 4.70419C15.9658 5.18032 16.6163 5.88897 17.0353 6.70781C17.7439 8.09232 17.741 9.76952 17.7392 10.8218L17.739 10.971C17.739 11.4883 17.6937 12.0182 17.5987 12.5443C19.7509 12.3033 20.8696 10.0255 20.8696 7.78261C20.8696 5.41076 20.8406 3 17.2174 3Z"
  />
  <path
    d="M19.1219 18.7386C19.8549 19.7454 20.3058 20.5904 20.5655 21.8116H24C24 17.5604 22.5218 14.6908 17.7392 14.6908H16.8946C16.7605 14.9578 16.6095 15.2164 16.4408 15.4639C16.2465 15.749 16.0277 16.0194 15.7853 16.2691C17.1504 16.7524 18.275 17.5756 19.1219 18.7386Z"
  />
</svg>
