<!-- ##color:multiple ##group:geo -->
<svg viewBox="0 0 16 16" fill="none" xmlns="http://www.w3.org/2000/svg">
  <path
    d="M0 1.7C0 1.3134 0.313401 1 0.7 1H6.58579C6.851 1 7.10536 1.10536 7.29289 1.29289L8.70711 2.70711C8.89464 2.89464 9.149 3 9.41421 3H13C13.5523 3 14 3.44772 14 4V12.3C14 12.6866 13.6866 13 13.3 13H1C0.447716 13 0 12.5523 0 12V1.7Z"
    fill="var(--color-bg-caution)"
  />
  <path
    d="M0 3.7C0 3.3134 0.313401 3 0.7 3H13C13.5523 3 14 3.44772 14 4V12.3C14 12.6866 13.6866 13 13.3 13H1C0.447716 13 0 12.5523 0 12V3.7Z"
    fill="var(--color-bg-warning)"
  />
  <path
    d="M7 6.5C7 6.22386 7.22386 6 7.5 6H14.5C14.7761 6 15 6.22386 15 6.5V13.5C15 13.7761 14.7761 14 14.5 14H7.5C7.22386 14 7 13.7761 7 13.5V6.5Z"
    fill="var(--color-bg-system)"
  />
  <path
    fill-rule="evenodd"
    clip-rule="evenodd"
    d="M7.5 5H14.5C15.3284 5 16 5.67157 16 6.5V13.5C16 14.3284 15.3284 15 14.5 15H7.5C6.67157 15 6 14.3284 6 13.5V6.5C6 5.67157 6.67157 5 7.5 5ZM7.5 6C7.22386 6 7 6.22386 7 6.5V13.5C7 13.7761 7.22386 14 7.5 14H14.5C14.7761 14 15 13.7761 15 13.5V6.5C15 6.22386 14.7761 6 14.5 6H7.5Z"
    fill="var(--color-typo-primary)"
  />
  <path
    d="M10 9.0424C7.85273 9.0424 7 10.6076 7 10.6076V9.0424C8.28548 7.86783 10.5329 6.66708 12.6667 7.08479C14 7.34581 14.7778 8.28111 15 8.71613V11C15 11 12.1473 9.0424 10 9.0424Z"
    fill="var(--color-typo-normal)"
  />
  <path
    d="M7 12.8196V11.4249C7.02672 11.3904 7.05444 11.3558 7.08317 11.3211C7.63383 10.6574 8.55339 10 9.99999 10C11.4268 10 12.8445 10.6831 13.8806 11.3364C14.3249 11.6165 14.7071 11.8964 15 12.1257V13C14.9296 12.9397 14.8407 12.8651 14.7353 12.7802C14.4438 12.5451 14.0279 12.2317 13.5314 11.9187C12.5282 11.2861 11.2399 10.6835 9.99999 10.6835C8.77993 10.6835 8.03657 11.2269 7.59098 11.764C7.36522 12.0361 7.2144 12.3091 7.12036 12.5138C7.07349 12.6158 7.0412 12.6998 7.02105 12.7567C7.01118 12.7846 7.00426 12.8059 7 12.8196Z"
    fill="var(--color-typo-normal)"
  />
</svg>
