<!-- ##color:mono ##group:objects -->
<svg viewBox="0 0 28 28" fill="none" xmlns="http://www.w3.org/2000/svg">
  <path
    fill-rule="evenodd"
    clip-rule="evenodd"
    d="M7 2C5.89539 2 5 2.89542 5 4V24C5 25.1046 5.89539 26 7 26H22C23.1046 26 24 25.1046 24 24V4C24 2.89542 23.1046 2 22 2H7ZM8 5.5C8 5.22386 8.22386 5 8.5 5H20.5C20.7761 5 21 5.22386 21 5.5V9.5C21 9.77614 20.7761 10 20.5 10H8.5C8.22386 10 8 9.77614 8 9.5V5.5ZM8 12.5C8 12.2239 8.22386 12 8.5 12H10.5C10.7761 12 11 12.2239 11 12.5V14.5C11 14.7761 10.7761 15 10.5 15H8.5C8.22386 15 8 14.7761 8 14.5V12.5ZM11 16.5C11 16.2239 10.7761 16 10.5 16H8.5C8.22386 16 8 16.2239 8 16.5V18.5C8 18.7761 8.22386 19 8.5 19H10.5C10.7761 19 11 18.7761 11 18.5V16.5ZM8 20.5C8 20.2239 8.22386 20 8.5 20H10.5C10.7761 20 11 20.2239 11 20.5V22.5C11 22.7761 10.7761 23 10.5 23H8.5C8.22386 23 8 22.7761 8 22.5V20.5ZM16 12.5C16 12.2239 15.7761 12 15.5 12H13.5C13.2239 12 13 12.2239 13 12.5V14.5C13 14.7761 13.2239 15 13.5 15H15.5C15.7761 15 16 14.7761 16 14.5V12.5ZM13 16.5C13 16.2239 13.2239 16 13.5 16H15.5C15.7761 16 16 16.2239 16 16.5V18.5C16 18.7761 15.7761 19 15.5 19H13.5C13.2239 19 13 18.7761 13 18.5V16.5ZM16 20.5C16 20.2239 15.7761 20 15.5 20H13.5C13.2239 20 13 20.2239 13 20.5V22.5C13 22.7761 13.2239 23 13.5 23H15.5C15.7761 23 16 22.7761 16 22.5V20.5ZM18 12.5C18 12.2239 18.2239 12 18.5 12H20.5C20.7761 12 21 12.2239 21 12.5V14.5C21 14.7761 20.7761 15 20.5 15H18.5C18.2239 15 18 14.7761 18 14.5V12.5ZM21 16.5C21 16.2239 20.7761 16 20.5 16H18.5C18.2239 16 18 16.2239 18 16.5V22.5C18 22.7761 18.2239 23 18.5 23H20.5C20.7761 23 21 22.7761 21 22.5V16.5Z"
  />
</svg>
