<!-- ##color:multiple ##group:seismic -->
<svg viewBox="0 0 16 16" fill="none" xmlns="http://www.w3.org/2000/svg">
  <path
    d="M14 2.86798C14 2.42165 13.5879 2.08932 13.1517 2.18386L2.78817 4.43015C2.3282 4.52985 2 4.9368 2 5.40746V13.132C2 13.5783 2.41208 13.9107 2.84828 13.8161L13.2118 11.5698C13.6718 11.4702 14 11.0632 14 10.5925V2.86798Z"
    fill="var(--color-bg-ghost)"
  />
  <path
    d="M14 9.22171C13.7468 9.16399 13.4794 9.08989 13.1929 9.01051C11.7826 8.61975 9.91033 8.101 7.00227 8.77914C4.50308 9.36194 2.83696 11.1334 2.0039 12.0191V10.3596C2.0039 10.3596 5.50276 7.05442 9.50146 6.12195C13.5002 5.18947 14 7.56219 14 7.56219V9.22171Z"
    fill="var(--color-bg-normal)"
  />
  <path
    d="M2.00002 12.1423C2.43841 11.8492 2.91629 11.6289 3.38585 11.4124C3.52134 11.35 3.65629 11.2878 3.78925 11.2243C4.89895 10.6945 6.49493 10.0529 8.45579 9.59566C10.1916 9.19088 12.502 8.92723 14 9.44356L14 10.5112C12.5891 9.97985 10.0287 10.2846 8.45579 10.6513C6.8769 11.0195 4.71137 11.862 2.07754 13.453C2.02817 13.3575 2.00002 13.2487 2.00002 13.132L2.00002 12.1423Z"
    fill="var(--color-bg-alert)"
  />
  <path
    d="M14 5.52061V6.64842C13.1916 6.14617 12.3298 5.81078 11.3777 5.58577C10.13 5.29088 8.4629 5.11146 6.70954 5.52033C5.84941 5.72091 3.80458 6.43201 2 8.74282V7.64765C3.35504 5.87141 4.93201 5.13284 6.70954 4.71833C8.68286 4.25816 10.5095 4.46701 11.8239 4.77766C12.4847 4.93385 13.0253 5.11799 13.4015 5.26344C13.5898 5.33624 13.7375 5.39954 13.839 5.44512C13.8898 5.46792 13.929 5.4863 13.9561 5.49924L13.9876 5.51444L13.9963 5.51875L13.9989 5.52003L14 5.52061Z"
    fill="var(--color-bg-warning)"
  />
  <path
    d="M8 12.6995V3.30049L13.2118 4.43015C13.6718 4.52985 14 4.9368 14 5.40746V13.132C14 13.5783 13.5879 13.9107 13.1517 13.8161L8 12.6995Z"
    fill="#CCD9E0"
  />
  <path
    d="M8 5.31686V4.50436C8.42022 4.54677 8.85172 4.61601 9.29046 4.71832C11.068 5.13283 12.645 5.8714 14 7.64764V8.74281C12.1954 6.432 10.1506 5.7209 9.29046 5.52032C8.85322 5.41836 8.42135 5.35298 8 5.31686Z"
    fill="var(--color-bg-warning)"
  />
  <path
    d="M8 8.58526V6.58353C11.3339 7.8448 13.9961 10.3596 13.9961 10.3596V12.0191C13.163 11.1334 11.4969 9.36193 8.99773 8.77914C8.65073 8.69822 8.31848 8.63434 8 8.58526Z"
    fill="var(--color-bg-normal)"
  />
  <path
    d="M8 10.7666V9.70682C9.75309 10.1531 11.1883 10.7361 12.2107 11.2243C12.3437 11.2878 12.4787 11.35 12.6142 11.4124C13.0837 11.6289 13.5616 11.8492 14 12.1423L14 13.132C14 13.2487 13.9718 13.3575 13.9225 13.453C11.5337 12.01 9.53007 11.1828 8 10.7666Z"
    fill="var(--color-bg-alert)"
  />
</svg>
