<!-- ##color:multiple ##group:geo -->
<svg viewBox="0 0 16 16" fill="none" xmlns="http://www.w3.org/2000/svg">
  <path
    d="M0 1.7C0 1.3134 0.313401 1 0.7 1H6.58579C6.851 1 7.10536 1.10536 7.29289 1.29289L8.70711 2.70711C8.89464 2.89464 9.149 3 9.41421 3H13C13.5523 3 14 3.44772 14 4V12.3C14 12.6866 13.6866 13 13.3 13H1C0.447716 13 0 12.5523 0 12V1.7Z"
    fill="var(--color-bg-caution)"
  />
  <path
    d="M0 3.7C0 3.3134 0.313401 3 0.7 3H13C13.5523 3 14 3.44772 14 4V12.3C14 12.6866 13.6866 13 13.3 13H1C0.447716 13 0 12.5523 0 12V3.7Z"
    fill="var(--color-bg-warning)"
  />
  <path
    d="M11.8737 7.64011C11.9551 7.37502 11.7949 7.09745 11.5158 7.02013C11.2368 6.94281 10.9446 7.09503 10.8632 7.36012L9.02119 13.3599C8.9398 13.625 9.10003 13.9026 9.37907 13.9799C9.65811 14.0572 9.95029 13.905 10.0317 13.6399L10.763 11.2577C11.0583 11.268 11.3346 11.2878 11.5902 11.3138C12.0504 11.3607 12.4434 11.4275 12.7587 11.494C13.0467 11.5548 13.2695 11.6154 13.4191 11.6602C13.4938 11.6827 13.5502 11.7011 13.5872 11.7138C13.6057 11.7201 13.6194 11.7249 13.6281 11.7281L13.6373 11.7314L13.6391 11.7321C13.7739 11.7832 13.9272 11.7209 13.9811 11.5928C14.0351 11.4646 13.9695 11.3191 13.8345 11.2679L13.7368 11.5C13.8345 11.2679 13.8346 11.2679 13.8345 11.2679L13.8337 11.2676L13.8325 11.2671L13.8285 11.2656L13.8149 11.2606C13.8033 11.2564 13.7866 11.2506 13.765 11.2432C13.7219 11.2285 13.659 11.2079 13.5775 11.1835C13.4146 11.1346 13.1769 11.0701 12.8729 11.0059C12.3821 10.9023 11.7178 10.7992 10.9148 10.7633L11.8737 7.64011Z"
    fill="var(--color-typo-normal)"
  />
  <path
    fill-rule="evenodd"
    clip-rule="evenodd"
    d="M10.9149 10.7633C11.1714 10.7748 11.4138 10.7931 11.6409 10.8162C11.7418 10.8264 11.8397 10.8375 11.9345 10.8494C12.2886 10.8938 12.5991 10.9485 12.8609 11.0034L12.8622 11.0037C12.8647 11.0042 12.8672 11.0047 12.8696 11.0053L12.8729 11.0059C12.9669 11.0258 13.0546 11.0457 13.1357 11.0651C13.3093 11.1067 13.4527 11.1463 13.5634 11.1792C13.5682 11.1807 13.5729 11.1821 13.5776 11.1835C13.6498 11.2051 13.7073 11.2237 13.7495 11.2379C13.755 11.2398 13.7602 11.2415 13.7651 11.2432C13.7781 11.2477 13.7894 11.2516 13.7988 11.2549L13.8006 11.2555C13.8039 11.2567 13.807 11.2578 13.8099 11.2588L13.8127 11.2599L13.8145 11.2605L13.8286 11.2656L13.8325 11.2671L13.8338 11.2676C13.8399 11.2699 13.8467 11.2727 13.8525 11.2754C13.8737 11.2853 13.893 11.2975 13.9101 11.3117C13.9918 11.3796 14.0238 11.4916 13.9811 11.5928C13.9799 11.5957 13.9787 11.5985 13.9774 11.6013C13.923 11.7181 13.7842 11.7767 13.657 11.7382L13.656 11.7379L13.6529 11.7369C13.65 11.736 13.6471 11.735 13.6442 11.734L13.6424 11.7333L13.6391 11.7321L13.6374 11.7315L13.6281 11.7281C13.6221 11.7259 13.6136 11.7229 13.6028 11.7191C13.5981 11.7175 13.5929 11.7157 13.5873 11.7138C13.5526 11.702 13.501 11.685 13.4333 11.6645C13.4286 11.6631 13.4239 11.6617 13.4191 11.6602C13.3144 11.6288 13.1737 11.5897 12.9999 11.5482C12.9573 11.538 12.9128 11.5277 12.8663 11.5174C12.8348 11.5104 12.8026 11.5033 12.7694 11.4963C12.7658 11.4955 12.7623 11.4948 12.7587 11.494C12.4435 11.4275 12.0504 11.3607 11.5902 11.3138C11.4319 11.2977 11.2656 11.284 11.0918 11.2734C11.0264 11.2694 10.96 11.2659 10.8925 11.2629C10.8498 11.261 10.8066 11.2592 10.7631 11.2577L10.0317 13.6399C9.95033 13.905 9.65815 14.0572 9.37911 13.9799C9.10007 13.9026 8.93984 13.625 9.02123 13.3599L10.8633 7.36013C10.9446 7.09504 11.2368 6.94283 11.5159 7.02014C11.7949 7.09746 11.9551 7.37503 11.8737 7.64012L10.9149 10.7633ZM11.4866 12.3085L10.9877 13.9334C10.736 14.7532 9.87491 15.1549 9.11208 14.9436C8.33179 14.7274 7.80628 13.91 8.06527 13.0664L9.9073 7.06663C10.159 6.24687 11.0201 5.84509 11.7829 6.05645C12.5632 6.27266 13.0887 7.09007 12.8297 7.93362L12.2321 9.88008C12.5501 9.92425 12.8337 9.97562 13.0795 10.0275C13.4127 10.0979 13.6774 10.1694 13.8649 10.2256C13.9588 10.2538 14.0334 10.2782 14.0878 10.2967C14.1151 10.306 14.1373 10.3139 14.1543 10.32L14.158 10.3213L14.1778 10.3286L14.1846 10.3311L14.1859 10.3316L14.1877 10.3323L14.1891 10.3328C14.8184 10.572 15.1906 11.2972 14.9028 11.9809C14.6277 12.6343 13.8953 12.8948 13.291 12.6696L13.2887 12.6687L13.2645 12.6603C13.2388 12.6515 13.1942 12.6368 13.1318 12.6181C13.0068 12.5806 12.8109 12.5271 12.5522 12.4725C12.2689 12.4127 11.911 12.3517 11.489 12.3087L11.4866 12.3085Z"
    fill="var(--color-typo-primary)"
  />
</svg>
