<!-- ##color:mono ##group:direction -->
<svg viewBox="0 0 16 16" xmlns="http://www.w3.org/2000/svg">
  <path
    d="M5.87264 4.95714L6.93176 6L8.45513 1L3.37721 2.5L4.43639 3.54293L2.93936 5.01699C1.68691 6.25022 1.68688 8.24967 2.93929 9.48294C4.19175 10.7163 6.22248 10.7163 7.47498 9.48301L10.3948 6.60802C10.7549 6.25346 11.3387 6.25345 11.6987 6.60799C12.0589 6.96255 12.0589 7.53742 11.6988 7.89199L9.261 10.2924C9.88839 10.588 10.397 11.0888 10.6973 11.7065L13.135 9.3062C14.2884 8.17056 14.2883 6.32932 13.1349 5.19373C11.9816 4.05819 10.1118 4.05822 8.95853 5.1938L6.03873 8.0688C5.57946 8.52102 4.83484 8.52101 4.37559 8.06877C3.91635 7.61656 3.91636 6.8834 4.37561 6.4312L5.87264 4.95714Z"
  />
  <path
    d="M9.90982 12.4819C9.72289 11.7937 9.17248 11.2518 8.47353 11.0677C8.30573 11.0235 8.12935 11 7.9474 11C6.82561 11 5.91623 11.8954 5.91623 13C5.91623 14.1046 6.82561 15 7.9474 15C9.06918 15 9.97857 14.1046 9.97857 13C9.97857 12.8208 9.95469 12.6471 9.90982 12.4819Z"
  />
</svg>
