<!-- ##color:mono ##group:objects -->
<svg viewBox="0 0 28 28" fill="none" xmlns="http://www.w3.org/2000/svg">
  <path
    fill-rule="evenodd"
    clip-rule="evenodd"
    d="M7 8V5C7 3.89543 7.89543 3 9 3H19C20.1046 3 21 3.89543 21 5V8H24C25.1046 8 26 8.89543 26 10V10.8339L14.1437 14.3908C14.05 14.4189 13.9501 14.4189 13.8563 14.3908L2 10.8339V10C2 8.89543 2.89543 8 4 8H7ZM10 8V6H18V8H10Z"
  />
  <path
    d="M15.0057 17.2643L26 13.966V23C26 24.1046 25.1046 25 24 25H4C2.89543 25 2 24.1046 2 23V13.966L12.9943 17.2643C13.6503 17.4611 14.3497 17.4611 15.0057 17.2643Z"
  />
</svg>
