<!-- ##color:multiple ##group:colored -->
<svg viewBox="0 0 12 12" fill="none" xmlns="http://www.w3.org/2000/svg">
  <path
    fill-rule="evenodd"
    clip-rule="evenodd"
    d="M4 9C4.39806 9 4.77802 8.92247 5.12559 8.78169C4.4288 8.06182 4 7.08099 4 6C4 5.93244 4.00168 5.86527 4.00499 5.79853C4.05465 4.79743 4.47235 3.89318 5.12559 3.21831C4.77802 3.07753 4.39806 3 4 3C2.34315 3 1 4.34315 1 6C1 7.65685 2.34315 9 4 9ZM6 2.53513C5.41165 2.19479 4.72857 2 4 2C1.79086 2 0 3.79086 0 6C0 8.20914 1.79086 10 4 10C4.72857 10 5.41165 9.80521 6 9.46487C6.58835 9.80521 7.27143 10 8 10C10.2091 10 12 8.20914 12 6C12 3.79086 10.2091 2 8 2C7.27143 2 6.58835 2.19479 6 2.53513ZM6.87441 3.21831C7.5712 3.93818 8 4.91901 8 6C8 7.08099 7.5712 8.06182 6.87441 8.78169C7.22198 8.92247 7.60194 9 8 9C9.65685 9 11 7.65685 11 6C11 4.34315 9.65685 3 8 3C7.60194 3 7.22198 3.07753 6.87441 3.21831Z"
    fill="var(--color-bg-success)"
  />
</svg>
