<!-- ##color:mono ##group:media -->
<svg viewBox="0 0 12 12" xmlns="http://www.w3.org/2000/svg">
  <path
    d="M6.11463 2.14655L3.99979 4.00001H3C2.44772 4.00001 2 4.44773 2 5.00001V7.00002C2 7.5523 2.44772 8.00002 3 8.00002H3.99986L6.1147 9.85345C6.44135 10.1683 6.99987 9.94532 6.99987 9.5L6.99979 2.5C6.99979 2.05468 6.44128 1.83166 6.11463 2.14655Z"
  />
  <path
    d="M9.85355 3.1465C9.65829 2.95123 9.34171 2.95123 9.14645 3.1465C8.95118 3.34176 8.95118 3.65834 9.14645 3.8536C9.55921 4.26636 10.0001 5.14161 10.0001 5.9964C10.0001 6.85224 9.55842 7.73453 9.14645 8.1465C8.95118 8.34176 8.95118 8.65834 9.14645 8.8536C9.34171 9.04887 9.65829 9.04887 9.85355 8.8536C10.4416 8.26557 11.0001 7.13325 11.0001 5.9964C11.0001 4.85849 10.4408 3.73374 9.85355 3.1465Z"
  />
</svg>
