<!-- ##color:mono ##group:media -->
<svg viewBox="0 0 24 24" xmlns="http://www.w3.org/2000/svg">
  <path
    d="M7.94444 8L12.1032 4.33693C12.8032 3.61718 14 4.12694 14 5.14482V18.8552C14 19.8731 12.8032 20.3828 12.1032 19.6631L8 16L5.00018 16C4.4479 16 4 15.5523 4 15V9C4 8.44771 4.44787 8 5.00015 8L7.94444 8Z"
  />
  <path
    d="M18.4205 7.5709C18.071 7.14323 17.4411 7.07983 17.0134 7.42928C16.5857 7.77873 16.5223 8.40871 16.8718 8.83638C17.6022 9.73027 18.0008 10.8493 17.9999 12.0037C17.9991 13.158 17.5989 14.2765 16.8672 15.1694C16.5171 15.5965 16.5796 16.2266 17.0068 16.5767C17.434 16.9267 18.064 16.8642 18.4141 16.4371C19.4385 15.1871 19.9988 13.6212 19.9999 12.0051C20.0011 10.389 19.4431 8.82234 18.4205 7.5709Z"
  />
</svg>
