<!-- ##color:mono ##group:social -->
<svg viewBox="0 0 12 12" xmlns="http://www.w3.org/2000/svg">
  <path
    d="M10.947 8.15264C10.9349 8.12654 10.9236 8.1049 10.9131 8.08755C10.7396 7.77507 10.408 7.39153 9.91862 6.93681L9.90829 6.9264L9.90311 6.92129L9.89787 6.91606H9.89262C9.6705 6.70432 9.52985 6.56195 9.47094 6.48906C9.36317 6.35021 9.33902 6.20966 9.39793 6.06725C9.43954 5.95966 9.59586 5.73244 9.86652 5.38527C10.0089 5.20129 10.1216 5.05383 10.2049 4.94273C10.8055 4.14435 11.0658 3.63418 10.9859 3.412L10.9549 3.36009C10.9341 3.32883 10.8803 3.30023 10.7936 3.27416C10.7067 3.24813 10.5957 3.24383 10.4603 3.26117L8.96082 3.27153C8.93653 3.26292 8.90185 3.26373 8.85666 3.27416C8.81152 3.28459 8.78895 3.28982 8.78895 3.28982L8.76285 3.30286L8.74213 3.31853C8.72477 3.32888 8.70568 3.3471 8.68483 3.37314C8.6641 3.39909 8.64676 3.42955 8.6329 3.46425C8.46965 3.88425 8.28404 4.27474 8.07573 4.63571C7.94729 4.85095 7.82934 5.03749 7.72162 5.19543C7.61404 5.35332 7.52379 5.46965 7.45095 5.54422C7.37801 5.61886 7.31218 5.67866 7.25305 5.72383C7.19402 5.76902 7.14896 5.78811 7.11776 5.78113C7.08648 5.77414 7.05703 5.76721 7.02915 5.76028C6.98059 5.72903 6.94152 5.68652 6.91207 5.63272C6.88249 5.57892 6.86258 5.51121 6.85217 5.42964C6.84181 5.34802 6.83568 5.27781 6.83393 5.21878C6.83231 5.15982 6.83306 5.07642 6.83658 4.96883C6.84019 4.86118 6.84181 4.78835 6.84181 4.75016C6.84181 4.61824 6.84438 4.47507 6.84954 4.32061C6.85479 4.16614 6.85904 4.04376 6.8626 3.9536C6.86614 3.86335 6.86778 3.76787 6.86778 3.6672C6.86778 3.56654 6.86165 3.48759 6.84954 3.43029C6.83758 3.37307 6.81921 3.31752 6.79502 3.26367C6.77067 3.20987 6.73504 3.16826 6.68828 3.13872C6.64143 3.10921 6.58318 3.08579 6.51387 3.0684C6.32988 3.02676 6.0956 3.00424 5.81092 3.00074C5.16534 2.99381 4.75052 3.0355 4.56655 3.12575C4.49366 3.16388 4.4277 3.21598 4.36872 3.28189C4.30623 3.35828 4.29751 3.39997 4.34263 3.40683C4.55092 3.43803 4.69838 3.51267 4.78517 3.63067L4.81644 3.69321C4.84077 3.73832 4.86506 3.8182 4.88937 3.93272C4.91364 4.04724 4.9293 4.17393 4.9362 4.31271C4.95352 4.56614 4.95352 4.78308 4.9362 4.96354C4.91882 5.14408 4.90241 5.28463 4.88674 5.38529C4.87108 5.48595 4.84766 5.56753 4.81644 5.62998C4.78516 5.69246 4.76436 5.73065 4.75393 5.74451C4.74351 5.75837 4.73483 5.7671 4.72794 5.77053C4.68282 5.78782 4.6359 5.79663 4.58734 5.79663C4.5387 5.79663 4.47973 5.7723 4.41032 5.72368C4.34093 5.67506 4.26892 5.60828 4.19427 5.52323C4.11963 5.43816 4.03546 5.31928 3.9417 5.16657C3.84802 5.01386 3.75082 4.83337 3.65016 4.62511L3.56688 4.47408C3.51481 4.37692 3.44369 4.23544 3.35344 4.04978C3.26313 3.86404 3.18331 3.68438 3.11392 3.51083C3.08619 3.43794 3.04452 3.38244 2.98899 3.34426L2.96293 3.32859C2.9456 3.31473 2.91779 3.30002 2.87964 3.28433C2.84144 3.26867 2.80157 3.25743 2.75989 3.25052L1.33329 3.26088C1.1875 3.26088 1.08859 3.29391 1.03651 3.35987L1.01566 3.39107C1.00525 3.40845 1 3.4362 1 3.47441C1 3.5126 1.01041 3.55946 1.03126 3.61496C1.23951 4.10442 1.46599 4.57646 1.71068 5.03116C1.95538 5.48586 2.16801 5.85214 2.34846 6.12966C2.52894 6.40738 2.71291 6.66949 2.90036 6.91586C3.08781 7.16232 3.21189 7.32026 3.2726 7.38965C3.33338 7.45917 3.38112 7.51114 3.41583 7.54585L3.54601 7.67078C3.62932 7.7541 3.75165 7.85389 3.91305 7.97015C4.0745 8.08648 4.25323 8.201 4.44934 8.3139C4.64549 8.42662 4.87368 8.5186 5.13404 8.58974C5.39436 8.66095 5.64774 8.68953 5.8942 8.67574H6.49297C6.6144 8.66526 6.70641 8.62707 6.76894 8.56117L6.78965 8.53507C6.80359 8.51435 6.81663 8.48217 6.82866 8.43886C6.84084 8.39547 6.8469 8.34767 6.8469 8.29568C6.84334 8.14646 6.8547 8.01196 6.88067 7.89222C6.90662 7.77252 6.9362 7.68227 6.96928 7.62149C7.00234 7.56076 7.03965 7.50952 7.08118 7.46798C7.12279 7.42634 7.15245 7.40112 7.16984 7.39244C7.18713 7.38371 7.20094 7.37778 7.21135 7.37422C7.29465 7.34647 7.39269 7.37335 7.50561 7.45499C7.61844 7.53656 7.72426 7.63728 7.82325 7.75698C7.92218 7.8768 8.04104 8.01122 8.17986 8.16044C8.31876 8.30972 8.44021 8.42069 8.54431 8.49369L8.6484 8.55617C8.71792 8.59786 8.80817 8.63604 8.91926 8.67075C9.03016 8.70543 9.12732 8.71411 9.21075 8.69677L10.5436 8.67598C10.6754 8.67598 10.778 8.65415 10.8508 8.61084C10.9237 8.56746 10.967 8.51966 10.9809 8.46767C10.9949 8.41562 10.9956 8.35657 10.9836 8.29056C10.9712 8.22471 10.9591 8.17866 10.947 8.15264Z"
  />
</svg>
