<!-- ##color:mono ##group:social -->
<svg viewBox="0 0 12 12" xmlns="http://www.w3.org/2000/svg">
  <path
    d="M10.794 3.76721C10.6787 3.33881 10.341 3.0011 9.91261 2.88574C9.13008 2.67163 5.99989 2.67163 5.99989 2.67163C5.99989 2.67163 2.86982 2.67163 2.08728 2.87762C1.66718 2.99286 1.32117 3.33887 1.20593 3.76721C1 4.54969 1 6.17243 1 6.17243C1 6.17243 1 7.80336 1.20593 8.57765C1.32129 9.00599 1.65894 9.3437 2.08734 9.45906C2.87806 9.67323 6.00001 9.67323 6.00001 9.67323C6.00001 9.67323 9.13008 9.67323 9.91261 9.46724C10.341 9.35194 10.6787 9.01423 10.7941 8.58589C11 7.80336 11 6.18067 11 6.18067C11 6.18067 11.0082 4.54969 10.794 3.76721ZM5.0033 7.67158V4.67328L7.60621 6.17243L5.0033 7.67158Z"
  />
</svg>
