<!-- ##color:mono ##group:geology -->
<svg viewBox="0 0 28 28" fill="none" xmlns="http://www.w3.org/2000/svg">
  <path
    fill-rule="evenodd"
    clip-rule="evenodd"
    d="M19 2H9V5H11L8.27273 15H5V18H23V15H19.7273L17 5H19V2ZM16.7273 15H11.2727L13.1818 8H14.8182L16.7273 15Z"
  />
  <path
    d="M6 22.0846L6 26H9V22.6036C9.3044 22.5588 9.60233 22.4784 9.88432 22.3629L11.401 21.7416C11.688 21.624 12.0236 21.6159 12.3186 21.7195L14.1813 22.3735C15.1472 22.7127 16.2531 22.6512 17.1543 22.2082L17.8979 21.8427C18.2177 21.6854 18.6134 21.673 18.947 21.8096L19 21.8313V26H22V22.6743C22.262 22.6636 22.5234 22.6272 22.7786 22.5645L26 21.4651L26 19L22.1517 20.1747C21.8855 20.2401 21.5989 20.2199 21.3503 20.118L19.9228 19.5332C18.9219 19.1232 17.7348 19.1606 16.7753 19.6322L16.0317 19.9978C15.7313 20.1455 15.3627 20.166 15.0407 20.0529L13.178 19.3989C12.2932 19.0882 11.2863 19.1124 10.4252 19.4651L8.90856 20.0865C8.63724 20.1976 8.32168 20.2112 8.03765 20.1239L5.45571 19.3306C4.60361 19.0688 3.65694 19.1095 2.84297 19.443L2 19.8977L2.00002 22.3629L3.81873 21.7194C4.09005 21.6083 4.40561 21.5947 4.68964 21.6819L6 22.0846Z"
  />
</svg>
