<!-- ##color:multiple ##group:colored -->
<svg viewBox="0 0 16 16" fill="none" xmlns="http://www.w3.org/2000/svg">
  <path
    d="M3 11L1.5 12.5H3L4.5 8L3 11Z"
    fill="var(--color-bg-success)"
    stroke="var(--color-bg-success)"
    stroke-width="1.5"
    stroke-linejoin="round"
  />
  <path
    fill-rule="evenodd"
    clip-rule="evenodd"
    d="M11.3704 9.08585C11.1406 9.0202 10.8985 9.0104 10.6642 9.05727L6.25909 9.93828C5.91301 10.0075 5.60243 10.1965 5.38196 10.4721L4.90927 11.063C4.12356 12.0451 4.82281 13.5 6.08057 13.5H14.0229C15.0841 13.5 15.8098 12.4282 15.4156 11.4429L15.1463 10.7697C14.974 10.3388 14.6119 10.012 14.1657 9.88451L11.3704 9.08585Z"
    fill="var(--color-bg-success)"
  />
  <path
    d="M14 4.5V8.30629C14 8.64757 13.6657 8.88855 13.3419 8.78063L11.1381 8.04604C11.0479 8.01597 10.951 8.01225 10.8587 8.03531L8.05465 8.73634C7.64023 8.83994 7.29513 8.40974 7.48617 8.02766L8.3618 6.27639C8.4465 6.107 8.61963 6 8.80902 6H10.191C10.3804 6 10.5535 5.893 10.6382 5.72361L11.3618 4.27639C11.4465 4.107 11.6196 4 11.809 4H13.5C13.7761 4 14 4.22386 14 4.5Z"
    fill="var(--color-bg-success)"
  />
</svg>
