<!-- ##color:mono ##group:social -->
<svg viewBox="0 0 16 16" xmlns="http://www.w3.org/2000/svg">
  <path
    d="M2.42514 11.1625C2.30136 11.3724 2.16117 11.6184 2.05052 11.8132C2.02614 11.8567 2.01066 11.905 2.00363 11.9548C1.99696 12.0048 1.9995 12.0557 2.01113 12.1047C2.02239 12.154 2.04302 12.1999 2.07115 12.2409C2.09928 12.2819 2.13491 12.3171 2.1757 12.3444L4.66208 13.9403C4.70475 13.9681 4.75304 13.9867 4.80321 13.995C4.85291 14.0033 4.90449 14.0013 4.95372 13.9886C5.00295 13.976 5.04937 13.9535 5.09016 13.9223C5.13095 13.891 5.16517 13.8515 5.19096 13.8061C5.2913 13.6323 5.41836 13.4072 5.5548 13.167C6.54035 11.4842 7.53903 11.6902 9.32305 12.5734L11.7893 13.7909C11.8354 13.814 11.8856 13.8271 11.9368 13.8296C11.9879 13.832 12.039 13.8237 12.087 13.8051C12.1348 13.7865 12.1789 13.7582 12.2159 13.7216C12.2534 13.685 12.283 13.641 12.3036 13.5922L13.4875 10.8129C13.5077 10.7661 13.5189 10.7158 13.5203 10.6645C13.5222 10.6137 13.5142 10.5625 13.4973 10.5146C13.4805 10.4668 13.4551 10.4224 13.4223 10.3843C13.3895 10.3462 13.3501 10.3154 13.3056 10.2925C12.7856 10.0377 11.7508 9.53629 10.8234 9.06371C7.44994 7.36918 4.60348 7.48098 2.42514 11.1625Z"
  />
  <path
    d="M13.5733 4.84471C13.6985 4.63479 13.8387 4.38922 13.9479 4.19443C13.9728 4.15001 13.9892 4.1007 13.9962 4.04944C14.0032 3.99867 14.0004 3.94643 13.9882 3.89663C13.9758 3.84671 13.9541 3.79979 13.9245 3.75847C13.8949 3.71703 13.8578 3.68203 13.8152 3.65546L11.3326 2.05955C11.2895 2.03172 11.2416 2.01317 11.1915 2.00487C11.1413 1.99657 11.0902 1.99901 11.041 2.01121C10.9917 2.02391 10.9453 2.04636 10.9045 2.07761C10.8637 2.10885 10.8295 2.1484 10.8033 2.1938C10.7053 2.3676 10.5759 2.59266 10.4394 2.83285C9.45011 4.52348 8.46081 4.31746 6.67491 3.43431L4.21104 2.21626C4.16509 2.19331 4.11539 2.17964 4.06475 2.17671C4.01412 2.1733 3.96301 2.18111 3.91519 2.19868C3.86736 2.21626 3.82329 2.2436 3.78578 2.27923C3.7478 2.31487 3.71779 2.35783 3.69623 2.40568L2.51235 5.1928C2.47166 5.28733 2.46779 5.39462 2.50156 5.49206C2.51844 5.54039 2.54423 5.58482 2.57705 5.6229C2.60987 5.66098 2.64972 5.69222 2.69427 5.71468C3.21611 5.97001 4.25089 6.4709 5.17643 6.94396C8.54099 8.638 11.3964 8.5267 13.5733 4.84471Z"
  />
</svg>
