<!-- ##color:mono ##group:social -->
<svg viewBox="0 0 24 24" xmlns="http://www.w3.org/2000/svg">
  <path
    d="M3.63771 16.7437C3.45204 17.0586 3.24175 17.4277 3.07578 17.7199C3.0392 17.785 3.016 17.8575 3.00545 17.9322C2.99543 18.0072 2.99925 18.0835 3.0167 18.157C3.03358 18.231 3.06452 18.2998 3.10672 18.3614C3.14892 18.4229 3.20237 18.4756 3.26356 18.5166L6.99313 20.9105C7.05713 20.9522 7.12957 20.98 7.20482 20.9925C7.27937 21.0049 7.35673 21.002 7.43058 20.983C7.50442 20.9639 7.57405 20.9302 7.63523 20.8834C7.69642 20.8365 7.74776 20.7772 7.78644 20.7091C7.93695 20.4484 8.12754 20.1108 8.3322 19.7505C9.81052 17.2263 11.3085 17.5353 13.9846 18.86L17.6839 20.6864C17.7532 20.721 17.8284 20.7407 17.9051 20.7443C17.9819 20.748 18.0585 20.7355 18.1305 20.7076C18.2022 20.6798 18.2683 20.6373 18.3239 20.5824C18.3802 20.5275 18.4245 20.4616 18.4554 20.3883L20.2312 16.2194C20.2615 16.1491 20.2784 16.0737 20.2805 15.9968C20.2833 15.9206 20.2713 15.8437 20.246 15.772C20.2207 15.7002 20.1827 15.6335 20.1335 15.5764C20.0843 15.5193 20.0252 15.4732 19.9584 15.4388C19.1784 15.0565 17.6262 14.3044 16.2351 13.5956C11.1749 11.0538 6.90521 11.2215 3.63771 16.7437Z"
  />
  <path
    d="M20.3599 7.26707C20.5477 6.95218 20.758 6.58384 20.9219 6.29165C20.9592 6.22501 20.9838 6.15105 20.9943 6.07416C21.0049 5.998 21.0006 5.91964 20.9824 5.84495C20.9637 5.77007 20.9312 5.69969 20.8867 5.63771C20.8423 5.57554 20.7866 5.52305 20.7228 5.48319L16.9989 3.08932C16.9342 3.04758 16.8625 3.01975 16.7872 3.0073C16.712 2.99485 16.6353 2.99851 16.5615 3.01682C16.4876 3.03586 16.418 3.06955 16.3568 3.11641C16.2956 3.16328 16.2443 3.2226 16.2049 3.2907C16.0579 3.5514 15.8638 3.88899 15.6591 4.24928C14.1752 6.78522 12.6912 6.47619 10.0124 5.15146L6.31656 3.32439C6.24764 3.28997 6.17309 3.26946 6.09713 3.26507C6.02117 3.25994 5.94451 3.27166 5.87278 3.29802C5.80104 3.32439 5.73493 3.36539 5.67867 3.41885C5.6217 3.47231 5.57669 3.53675 5.54434 3.60852L3.76852 7.78919C3.70749 7.931 3.70169 8.09193 3.75235 8.23809C3.77766 8.31059 3.81635 8.37723 3.86558 8.43435C3.91481 8.49147 3.97459 8.53833 4.0414 8.57202C4.82417 8.95501 6.37634 9.70634 7.76464 10.4159C12.8115 12.957 17.0946 12.79 20.3599 7.26707Z"
  />
</svg>
