<!-- ##color:multiple ##group:colored -->
<svg viewBox="0 0 16 16" fill="none" xmlns="http://www.w3.org/2000/svg">
  <path
    fill-rule="evenodd"
    clip-rule="evenodd"
    d="M10.2747 4.03849C9.74367 3.88677 9.19019 4.19426 9.03846 4.72529C8.88674 5.25633 9.19423 5.80981 9.72526 5.96154L11.4096 6.44278L9.09382 8.17964L7.70709 6.79291L7.08287 6.16869L6.38604 6.71066L1.88604 10.2107C1.4501 10.5497 1.37156 11.178 1.71063 11.614C2.0497 12.0499 2.67798 12.1284 3.11393 11.7894L6.9171 8.83134L8.29288 10.2071L8.90615 10.8204L9.59999 10.3L12.5 8.12501V9.50001C12.5 10.0523 12.9477 10.5 13.5 10.5C14.0523 10.5 14.5 10.0523 14.5 9.50001V6.00001V5.24571L13.7747 5.03849L10.2747 4.03849Z"
    fill="var(--color-bg-success)"
  />
</svg>
