<!-- ##color:mono ##group:action -->
<svg viewBox="0 0 24 24" xmlns="http://www.w3.org/2000/svg">
  <path
    d="M14.2 3.78963C14.4144 2.98943 13.9389 2.15483 13.1156 2.06241C11.3344 1.86245 9.52226 2.14406 7.87293 2.89136C5.7656 3.84618 4.05453 5.50215 3.03127 7.57711C2.00802 9.65207 1.73588 12.0176 2.26123 14.2708C2.78658 16.5239 4.07692 18.5251 5.91238 19.9335C7.74785 21.3419 10.0149 22.0703 12.3272 21.9946C14.6395 21.9189 16.854 21.0438 18.5935 19.5184C20.3329 17.993 21.4896 15.9116 21.8664 13.629C22.1614 11.8424 21.9644 10.0191 21.3102 8.35035C21.0079 7.57906 20.0787 7.33579 19.3612 7.75C18.6438 8.16422 18.4157 9.08008 18.6678 9.8692C19.0032 10.9186 19.0883 12.0394 18.9065 13.1403C18.6427 14.7381 17.833 16.1951 16.6154 17.2629C15.3978 18.3307 13.8476 18.9433 12.229 18.9963C10.6104 19.0492 9.02349 18.5394 7.73867 17.5535C6.45384 16.5676 5.55061 15.1667 5.18286 13.5895C4.81511 12.0123 5.00561 10.3564 5.72189 8.90398C6.43817 7.4515 7.63592 6.29233 9.11105 5.62395C10.1274 5.16347 11.232 4.95558 12.3324 5.00789C13.1599 5.04722 13.9856 4.58983 14.2 3.78963Z"
  />
</svg>
