<!-- ##color:mono ##group:action -->
<svg viewBox="0 0 12 12" xmlns="http://www.w3.org/2000/svg">
  <path
    d="M7.16469 1.65333C7.23616 1.3866 7.07798 1.10978 6.80545 1.06529C5.83621 0.907079 4.83771 1.03733 3.93647 1.44568C2.8828 1.92309 2.02727 2.75107 1.51564 3.78855C1.00401 4.82604 0.867939 6.00882 1.13061 7.13538C1.39329 8.26194 2.03846 9.26256 2.95619 9.96677C3.87392 10.671 5.00744 11.0352 6.16359 10.9973C7.31975 10.9595 8.42702 10.5219 9.29673 9.7592C10.1664 8.99649 10.7448 7.95581 10.9332 6.81448C11.0944 5.83826 10.9618 4.84007 10.5581 3.9448C10.4446 3.69307 10.1363 3.61193 9.89712 3.75C9.65797 3.88807 9.57926 4.19301 9.68644 4.44751C9.97801 5.13983 10.07 5.90377 9.94657 6.65158C9.79583 7.56464 9.33315 8.39719 8.63738 9.00736C7.94161 9.61753 7.0558 9.96758 6.13087 9.99786C5.20595 10.0281 4.29914 9.73677 3.56495 9.17341C2.83077 8.61005 2.31463 7.80955 2.10449 6.9083C1.89435 6.00706 2.00321 5.06083 2.41251 4.23084C2.82181 3.40086 3.50624 2.73847 4.34917 2.35654C5.03956 2.04374 5.80128 1.93491 6.54548 2.03736C6.81904 2.07502 7.09322 1.92007 7.16469 1.65333Z"
  />
</svg>
