<!-- ##color:mono ##group:action -->
<svg viewBox="0 0 16 16" xmlns="http://www.w3.org/2000/svg">
  <path
    d="M9.54903 2.21893C9.69412 1.67747 9.37246 1.113 8.81571 1.04768C7.5577 0.900076 6.27631 1.09598 5.11105 1.62395C3.63592 2.29232 2.43817 3.4515 1.72189 4.90398C1.00561 6.35645 0.815114 8.01235 1.18286 9.58953C1.55061 11.1667 2.45384 12.5676 3.73867 13.5535C5.02349 14.5394 6.61041 15.0492 8.22903 14.9963C9.84765 14.9433 11.3978 14.3307 12.6154 13.2629C13.833 12.1951 14.6427 10.7381 14.9065 9.14027C15.1149 7.87807 14.9725 6.58964 14.5043 5.4127C14.2971 4.89183 13.6686 4.72722 13.1832 5.0075C12.6977 5.28779 12.5427 5.90736 12.7187 6.43959C12.9696 7.19829 13.0354 8.01133 12.9036 8.80959C12.7163 9.94407 12.1414 10.9785 11.2769 11.7366C10.4125 12.4948 9.31183 12.9297 8.16261 12.9673C7.01339 13.005 5.88668 12.6429 4.97445 11.943C4.06223 11.243 3.42093 10.2484 3.15983 9.12857C2.89873 8.00877 3.03398 6.83308 3.54254 5.80182C4.0511 4.77057 4.9015 3.94755 5.94885 3.47301C6.6858 3.1391 7.48817 2.99226 8.28596 3.03823C8.8456 3.07047 9.40395 2.7604 9.54903 2.21893Z"
  />
</svg>
