<!-- ##color:mono ##group:objects -->
<svg viewBox="0 0 16 16" xmlns="http://www.w3.org/2000/svg">
  <path
    fill-rule="evenodd"
    clip-rule="evenodd"
    d="M1 6.99999C1 5.00227 2.30167 3.30869 4.10326 2.721C4.09906 2.57663 4.11283 2.42344 4.1545 2.26731C4.27302 1.82327 4.59762 1.44985 5.08719 1.292C5.61945 1.12039 6.49496 1 8.00003 1C9.50526 1 10.3808 1.12042 10.913 1.29207C11.4026 1.44994 11.7271 1.82337 11.8456 2.26735C11.8872 2.42347 11.901 2.57665 11.8968 2.72102C13.6984 3.30871 15 5.00228 15 6.99999V10.4998C15.6072 10.9559 16 11.6821 16 12.5C16 13.8807 14.8807 15 13.5 15H2.5C1.11929 15 0 13.8807 0 12.5C0 11.6821 0.392777 10.9559 1 10.4998V6.99999ZM6.2498 3.08711L7.44868 6.68377C7.62333 7.20772 7.34017 7.77404 6.81623 7.94868C6.29228 8.12333 5.72597 7.84017 5.55132 7.31623L4.66065 4.64423C3.69286 4.98904 3 5.91398 3 6.99999V9.99999H13V6.99999C13 5.91397 12.3071 4.98904 11.3393 4.64423L10.4487 7.31623C10.274 7.84017 9.70772 8.12333 9.18377 7.94868C8.65983 7.77404 8.37667 7.20772 8.55132 6.68377L9.7502 3.08711C9.38095 3.03945 8.82393 3 8.00003 3C7.1761 3 6.61907 3.03945 6.2498 3.08711ZM2.5 12H13.5C13.7761 12 14 12.2239 14 12.5C14 12.7761 13.7761 13 13.5 13H2.5C2.22386 13 2 12.7761 2 12.5C2 12.2239 2.22386 12 2.5 12Z"
  />
</svg>
