<!-- ##color:mono ##group:objects -->
<svg viewBox="0 0 12 12" xmlns="http://www.w3.org/2000/svg">
  <path
    fill-rule="evenodd"
    clip-rule="evenodd"
    d="M10 5.49999C10 4.31727 9.31559 3.2944 8.32121 2.80584C8.23551 2.53458 8.03425 2.30167 7.70897 2.19601C7.34965 2.0793 6.81382 2 6.00003 2C5.18624 2 4.6504 2.0793 4.29108 2.19601C3.96581 2.30166 3.76456 2.53456 3.67885 2.80581C2.68444 3.29436 2 4.31725 2 5.49999V7.08535C1.4174 7.29127 1 7.84689 1 8.5C1 9.32843 1.67157 10 2.5 10H9.5C10.3284 10 11 9.32843 11 8.5C11 7.84689 10.5826 7.29127 10 7.08535V5.49999ZM4.62967 3.13781C4.62962 3.15189 4.63072 3.17045 4.63424 3.19377C4.64104 3.23882 4.65553 3.29247 4.67883 3.35073L5.46426 5.3143C5.56682 5.5707 5.44211 5.86168 5.18572 5.96424C4.92933 6.0668 4.63834 5.94209 4.53579 5.6857L3.81653 3.88756C3.32136 4.25161 3 4.83827 3 5.49999V6.99999H9V5.49999C9 4.83829 8.67865 4.25164 8.18351 3.88759L7.46426 5.6857C7.36171 5.94209 7.07072 6.0668 6.81433 5.96424C6.55794 5.86168 6.43323 5.5707 6.53579 5.3143L7.32122 3.35073C7.34452 3.29247 7.35901 3.23882 7.36581 3.19377C7.36933 3.17045 7.37043 3.15189 7.37038 3.13781C7.14357 3.06936 6.72848 3 6.00003 3C5.27158 3 4.85649 3.06936 4.62967 3.13781ZM2.5 8H9.5C9.77614 8 10 8.22386 10 8.5C10 8.77614 9.77614 9 9.5 9H2.5C2.22386 9 2 8.77614 2 8.5C2 8.22386 2.22386 8 2.5 8Z"
  />
</svg>
