<!-- ##color:mono ##group:communication -->
<svg viewBox="0 0 12 12" fill="none" xmlns="http://www.w3.org/2000/svg">
  <path
    d="M9.05721 2.13801C8.85857 1.94619 8.54203 1.95171 8.35021 2.15035L1.513 9.21878C1.32118 9.41742 1.3267 9.73396 1.52534 9.92578C1.72398 10.1176 2.04052 10.1121 2.23234 9.91344L6.22065 5.79515L7.43924 4.53324L8.20115 3.74429L9.06955 2.84501C9.26137 2.64637 9.25585 2.32984 9.05721 2.13801Z"
  />
  <path
    d="M6.00012 2.99997C6.05332 2.99997 6.10649 3.00056 6.15961 3.00174L5.14836 4.04892C3.8099 4.23604 2.61308 4.85779 1.70923 5.76482L1 5.0648C1.95972 4.10398 3.2016 3.41846 4.59304 3.13912C5.05509 3.04681 5.52643 2.99997 6.00012 2.99997Z"
  />
  <path
    d="M7.6466 5.7806L6.8799 6.57453C7.51254 6.7357 8.07606 7.06658 8.51764 7.51505L9.22691 6.81499C8.78403 6.36805 8.24662 6.01275 7.6466 5.7806Z"
  />
  <path
    d="M5.4894 8.01443L4.75688 8.77298L6.00001 9.99997L7.45363 8.56523C7.0882 8.18607 6.57207 7.94972 6.00001 7.94972C5.82356 7.94972 5.65243 7.97221 5.4894 8.01443Z"
  />
  <path
    d="M9.46262 3.90005L8.74544 4.64271C9.32048 4.93422 9.84178 5.31444 10.2908 5.76506L11 5.06504C10.546 4.61048 10.0289 4.21754 9.46262 3.90005Z"
  />
</svg>
