<!-- ##color:mono ##group:communication -->
<svg viewBox="0 0 24 24" fill="none" xmlns="http://www.w3.org/2000/svg">
  <path
    d="M20.8626 3.27892C20.4653 2.89765 19.8323 2.90863 19.4486 3.30345L4.8608 18.3159C4.47715 18.7107 4.4882 19.3398 4.88549 19.7211C5.28277 20.1024 5.91583 20.0914 6.29948 19.6966L13.2108 12.5841C13.2108 12.5841 13.2108 12.5841 13.2108 12.5841L15.191 10.5464C15.191 10.5464 15.191 10.5464 15.191 10.5464L17.7762 7.88584C17.7761 7.88582 17.7762 7.88585 17.7762 7.88584L19.5671 6.04288C19.5672 6.0429 19.5671 6.04287 19.5671 6.04288L20.8873 4.68414C21.271 4.28933 21.2599 3.66019 20.8626 3.27892Z"
  />
  <path
    d="M11.9854 4.03231C13.1884 4.03231 14.3845 4.17456 15.5501 4.45428L13.4643 6.60079C12.9789 6.5453 12.4854 6.5168 11.9854 6.5168C8.35599 6.5168 5.07021 8.01846 2.69177 10.4463C2.51452 10.2654 1 8.65973 1 8.65973C2.44034 7.19724 4.14713 6.03638 6.02429 5.24268C7.91418 4.44359 9.93976 4.03231 11.9854 4.03231Z"
  />
  <path
    d="M17.0805 11.4631L15.3035 13.2918C15.9881 13.6489 16.6101 14.1131 17.1485 14.6626L18.8695 12.9058C18.3318 12.357 17.7316 11.872 17.0805 11.4631Z"
  />
  <path
    d="M12.6559 16.0166L10.4114 18.3264L11.9854 19.933L14.739 17.1222C14.1841 16.5557 13.4626 16.1595 12.6559 16.0166Z"
  />
  <path
    d="M9.95594 10.2113L6.22396 14.0519L5.10122 12.9058C6.40695 11.573 8.08186 10.617 9.95594 10.2113Z"
  />
  <path
    d="M21.2623 7.15967L19.5279 8.94451C20.1538 9.39303 20.7397 9.89587 21.279 10.4463L23 8.68952C22.4572 8.1354 21.8762 7.62427 21.2623 7.15967Z"
  />
</svg>
