<!-- ##color:mono ##group:communication -->
<svg viewBox="0 0 16 16" fill="none" xmlns="http://www.w3.org/2000/svg">
  <path
    d="M13.3003 2.12397C13.1017 1.93215 12.7852 1.93767 12.5933 2.13631L2.91549 12.1427C2.72367 12.3413 2.72919 12.6579 2.92783 12.8497C3.12647 13.0415 3.44301 13.036 3.63483 12.8373L12.2256 3.95673L13.3127 2.83097C13.5045 2.63233 13.499 2.3158 13.3003 2.12397Z"
  />
  <path
    d="M7.99998 2.99997C8.72167 2.99997 9.43943 3.07968 10.1407 3.23658L8.4081 5.03073C8.27295 5.02378 8.13691 5.02027 8.00006 5.02027C5.81864 5.02027 3.84375 5.91344 2.41421 7.35751L1 5.92894C1.09213 5.83588 1.18606 5.74464 1.28175 5.65528C2.13928 4.85489 3.13102 4.21331 4.2116 3.76118C5.41266 3.25863 6.69996 2.99997 7.99998 2.99997Z"
  />
  <path
    d="M10.2361 7.45645L8.64006 9.10919C9.47196 9.23603 10.2249 9.60633 10.8253 10.1459L12.2412 8.71571C11.6632 8.17642 10.9842 7.74593 10.2361 7.45645Z"
  />
  <path
    d="M6.21504 7.30171L4.31093 9.27347L3.75887 8.71581C4.45103 8.06998 5.288 7.58018 6.21504 7.30171Z"
  />
  <path
    d="M13.1375 4.452L11.6953 5.94537C12.3944 6.31979 13.0312 6.79715 13.5858 7.35743L15 5.9289C14.4386 5.3618 13.813 4.86631 13.1375 4.452Z"
  />
  <path
    d="M9.37855 11.6074C9.01116 11.2799 8.52859 11.0812 8.00007 11.0812C7.47151 11.0812 6.9889 11.2799 6.6215 11.6075L7.99998 13L9.37855 11.6074Z"
  />
</svg>
