<!-- ##color:mono ##group:geology -->
<svg viewBox="0 0 28 28" fill="none" xmlns="http://www.w3.org/2000/svg">
  <path
    fill-rule="evenodd"
    clip-rule="evenodd"
    d="M15 2.5C15 2.22386 14.7761 2 14.5 2H5.5C5.22386 2 5 2.22386 5 2.5V4.5C5 4.77614 5.22386 5 5.5 5H7L4.23077 17H2.5C2.22386 17 2 17.2239 2 17.5V19.5C2 19.7761 2.22386 20 2.5 20H6L6 25.5C6 25.7761 6.22386 26 6.5 26H8.5C8.77614 26 9 25.7761 9 25.5V20H19V25.5C19 25.7761 19.2239 26 19.5 26H21.5C21.7761 26 22 25.7761 22 25.5V20H25.5C25.7761 20 26 19.7761 26 19.5V17.5C26 17.2239 25.7761 17 25.5 17H24V12.5C24 12.2239 23.7761 12 23.5 12H17.5C17.2239 12 17 12.2239 17 12.5V17H15.7692L13 5H14.5C14.7761 5 15 4.77614 15 4.5V2.5ZM19 17H22V15H19V17ZM12.7692 17H7.23077L9.30769 8H10.6923L12.7692 17Z"
  />
</svg>
