<!-- ##color:mono ##group:objects -->
<svg viewBox="0 0 28 28" xmlns="http://www.w3.org/2000/svg">
  <path
    d="M14 2C12.8954 2 12 2.89543 12 4C12 4.0964 12.0068 4.1912 12.02 4.28396C9.11824 5.13809 7 7.82167 7 11V18C5.89543 18 5 18.8954 5 20C5 21.1046 5.89543 22 7 22H21C22.1046 22 23 21.1046 23 20C23 18.8954 22.1046 18 21 18V11C21 7.82167 18.8818 5.13809 15.98 4.28396C15.9932 4.1912 16 4.0964 16 4C16 2.89543 15.1046 2 14 2Z"
  />
  <path
    d="M14 26C15.6569 26 17 24.6569 17 23H11C11 24.6569 12.3431 26 14 26Z"
  />
</svg>
