<!-- ##color:mono ##group:sort&filter -->
<svg viewBox="0 0 16 16" xmlns="http://www.w3.org/2000/svg">
  <path
    fill-rule="evenodd"
    clip-rule="evenodd"
    d="M2 2H14V3.2759C14 3.74377 13.836 4.19684 13.5364 4.55627L9.46356 9.44373C9.16403 9.80316 9 10.2562 9 10.7241V14L7 15V10.7241C7 10.2562 6.83597 9.80316 6.53644 9.44373L2.46356 4.55627C2.16403 4.19684 2 3.74377 2 3.2759V2ZM6.52509 4.47491L7.29286 5.24268L6.52509 6.01044L7.2322 6.71755L7.99996 5.94978L8.76773 6.71755L9.47484 6.01044L8.70707 5.24268L9.47484 4.47491L8.76773 3.7678L7.99996 4.53557L7.2322 3.7678L6.52509 4.47491Z"
  />
</svg>
