<!-- ##color:mono ##group:sort&filter -->
<svg viewBox="0 0 12 12" xmlns="http://www.w3.org/2000/svg">
  <path
    fill-rule="evenodd"
    clip-rule="evenodd"
    d="M1 2H11V2.58579C11 2.851 10.8946 3.10536 10.7071 3.29289L7.29289 6.70711C7.10536 6.89464 7 7.149 7 7.41421V10L5 11V7.41421C5 7.149 4.89464 6.89464 4.70711 6.70711L1.29289 3.29289C1.10536 3.10536 1 2.851 1 2.58579V2ZM4.52509 3.73223L5.29286 4.5L4.52509 5.26777L5.2322 5.97487L5.99996 5.20711L6.76773 5.97487L7.47484 5.26777L6.70707 4.5L7.47484 3.73223L6.76773 3.02513L5.99996 3.79289L5.2322 3.02513L4.52509 3.73223Z"
  />
</svg>
