<!-- ##color:mono ##group:sort&filter -->
<svg viewBox="0 0 24 24" xmlns="http://www.w3.org/2000/svg">
  <path
    fill-rule="evenodd"
    clip-rule="evenodd"
    d="M2 2H22V4.2396C22 4.72943 21.8202 5.20223 21.4948 5.56833L14.5052 13.4317C14.1798 13.7978 14 14.2706 14 14.7604V21L10 23V14.7604C10 14.2706 9.82024 13.7978 9.49482 13.4317L2.50518 5.56833C2.17976 5.20223 2 4.72943 2 4.2396V2ZM9.17154 5.82846L10.5858 7.24268L9.17154 8.65689L10.5858 10.0711L12 8.65689L13.4142 10.0711L14.8284 8.65689L13.4142 7.24268L14.8284 5.82846L13.4142 4.41425L12 5.82846L10.5858 4.41425L9.17154 5.82846Z"
  />
</svg>
