<!-- ##color:mono ##group:files -->
<svg
  width="12"
  height="12"
  viewBox="0 0 12 12"
  fill="none"
  xmlns="http://www.w3.org/2000/svg"
>
  <path
    fill-rule="evenodd"
    clip-rule="evenodd"
    d="M8.24371 6.5H3.74083V5.5H8.24371V6.5Z"
    fill="black"
  />
  <path
    fill-rule="evenodd"
    clip-rule="evenodd"
    d="M3.00192 4C1.89665 4 1.00064 4.89543 1.00064 6C1.00064 7.10457 1.89665 8 3.00192 8H4.99538V9H3.00192C1.34401 9 0 7.65685 0 6C0 4.34315 1.34401 3 3.00192 3H4.99538V4H3.00192Z"
    fill="black"
  />
  <path
    fill-rule="evenodd"
    clip-rule="evenodd"
    d="M9.00577 8C10.111 8 10.9994 7.1003 10.9994 5.99573C10.9994 4.89116 10.111 4 9.00577 4L7.01231 4V3L9.00577 3C10.6637 3 12 4.33887 12 5.99573C12 7.65258 10.6637 9 9.00577 9H7.01231V8H9.00577Z"
    fill="black"
  />
</svg>
