<!-- ##color:multiple ##group:seismic -->
<svg viewBox="0 0 16 16" fill="none" xmlns="http://www.w3.org/2000/svg">
  <path
    d="M0 1.7C0 1.3134 0.313401 1 0.7 1H6.58579C6.851 1 7.10536 1.10536 7.29289 1.29289L8.70711 2.70711C8.89464 2.89464 9.149 3 9.41421 3H13C13.5523 3 14 3.44772 14 4V12.3C14 12.6866 13.6866 13 13.3 13H1C0.447716 13 0 12.5523 0 12V1.7Z"
    fill="var(--color-bg-caution)"
  />
  <path
    d="M0 3.7C0 3.3134 0.313401 3 0.7 3H13C13.5523 3 14 3.44772 14 4V12.3C14 12.6866 13.6866 13 13.3 13H1C0.447716 13 0 12.5523 0 12V3.7Z"
    fill="var(--color-bg-warning)"
  />
  <path
    d="M13.1428 10.7143H7.07141V7.85714H13.1428L14.9286 6.07143V8.92857L13.1428 10.7143Z"
    fill="var(--color-bg-success)"
  />
  <path
    d="M13.1428 12.5H7.07141V9.64286H13.1428L14.9286 7.85715V10.7143L13.1428 12.5Z"
    fill="var(--color-bg-caution)"
  />
  <path
    d="M13.1428 13.9286H7.07141V12.1429H13.1428L14.9286 10.3571V12.1429L13.1428 13.9286Z"
    fill="var(--color-bg-alert)"
  />
  <path
    d="M7.07141 8L8.99998 6.07143H14.9286L13.0076 8H7.07141Z"
    fill="var(--color-bg-success)"
  />
  <path
    fill-rule="evenodd"
    clip-rule="evenodd"
    d="M8.65004 5.21428H15.7857V12.35L13.35 14.7857H6.21429V7.65003L8.65004 5.21428ZM9.06426 6.21428L7.92139 7.35715H12.9358L14.0786 6.21428H9.06426ZM14.7857 6.92139L13.6429 8.06425V13.0786L14.7857 11.9357V6.92139ZM7.21429 13.7857V8.35715H12.6429V13.7857H7.21429Z"
    fill="var(--color-typo-primary)"
  />
</svg>
