<!-- ##color:mono ##group:geology -->
<svg viewBox="0 0 28 28" fill="none" xmlns="http://www.w3.org/2000/svg">
  <path
    fill-rule="evenodd"
    clip-rule="evenodd"
    d="M9 2.5C9 2.22386 9.22386 2 9.5 2H18.5C18.7761 2 19 2.22386 19 2.5V4.5C19 4.77614 18.7761 5 18.5 5H17L19.7273 15H22.5C22.7761 15 23 15.2239 23 15.5V17.5C23 17.7761 22.7761 18 22.5 18H5.5C5.22385 18 5 17.7761 5 17.5V15.5C5 15.2239 5.22385 15 5.5 15H8.27272L11 5H9.5C9.22386 5 9 4.77614 9 4.5V2.5ZM14.8182 8L16.7273 15H11.2727L13.1818 8H14.8182Z"
  />
  <path
    d="M25 24.5C25 24.2239 24.7761 24 24.5 24H3.5C3.22385 24 3 24.2239 3 24.5V25.5C3 25.7761 3.22385 26 3.5 26H24.5C24.7761 26 25 25.7761 25 25.5V24.5Z"
  />
  <path
    d="M22.7786 22.5645L25.6615 21.5807C25.8639 21.5116 26 21.3214 26 21.1075L26 19.6754C26 19.3395 25.6753 19.0991 25.354 19.1972L22.1517 20.1747C21.8855 20.2401 21.5989 20.2199 21.3503 20.118L19.9228 19.5332C18.9219 19.1232 17.7348 19.1606 16.7753 19.6322L16.0317 19.9978C15.7313 20.1455 15.3627 20.166 15.0407 20.0529L13.178 19.3989C12.2932 19.0882 11.2863 19.1124 10.4252 19.4651L8.90856 20.0865C8.63724 20.1976 8.32168 20.2112 8.03765 20.1239L5.4557 19.3306C4.6036 19.0688 3.65693 19.1095 2.84296 19.443L2.2626 19.7561C2.10084 19.8433 2 20.0123 2 20.1961L2.00001 21.6556C2.00002 22.0007 2.34142 22.2421 2.66679 22.127L3.81873 21.7194C4.09005 21.6083 4.40561 21.5947 4.68964 21.6819L7.27158 22.4752C8.12368 22.737 9.07035 22.6963 9.88432 22.3629L11.401 21.7416C11.688 21.624 12.0236 21.6159 12.3186 21.7195L14.1813 22.3735C15.1472 22.7127 16.2531 22.6512 17.1543 22.2082L17.8979 21.8427C18.2177 21.6854 18.6134 21.673 18.947 21.8096L20.3746 22.3945C21.1203 22.6999 21.9801 22.7607 22.7786 22.5645Z"
  />
</svg>
