<!-- ##color:mono ##group:map -->
<svg viewBox="0 0 28 28" fill="none" xmlns="http://www.w3.org/2000/svg">
  <path
    d="M3.48651 8.64943L13.1228 3.23094C13.6704 2.92302 14.3296 2.92302 14.8772 3.23094L24.5135 8.64943C25.1622 9.01418 25.1622 9.98582 24.5135 10.3506L14.8772 15.7691C14.3296 16.077 13.6704 16.077 13.1228 15.7691L3.4865 10.3506C2.83783 9.98582 2.83783 9.01418 3.48651 8.64943Z"
  />
  <path
    d="M4.38419 12.7489C4.40287 12.7616 4.42223 12.7737 4.44228 12.7851L13.2026 17.7868C13.7004 18.071 14.2996 18.071 14.7974 17.7868L23.5577 12.7851C23.5778 12.7737 23.5971 12.7616 23.6158 12.7489L24.5135 13.2148C25.1622 13.5515 25.1622 14.4484 24.5135 14.7851L14.8772 19.7868C14.3296 20.071 13.6704 20.071 13.1228 19.7868L3.4865 14.7851C2.83783 14.4484 2.83783 13.5515 3.48651 13.2148L4.38419 12.7489Z"
  />
  <path
    d="M4.7307 16.9498L13.2026 21.7868C13.7004 22.0711 14.2996 22.0711 14.7974 21.7868L23.2693 16.9498L24.5135 17.6494C25.1622 18.0142 25.1622 18.9858 24.5135 19.3506L14.8772 24.7691C14.3296 25.077 13.6704 25.077 13.1228 24.7691L3.4865 19.3506C2.83783 18.9858 2.83783 18.0142 3.48651 17.6494L4.7307 16.9498Z"
  />
</svg>
