<!-- ##color:multiple ##group:seismic -->
<svg viewBox="0 0 16 16" fill="none" xmlns="http://www.w3.org/2000/svg">
  <path
    d="M0 1.7C0 1.3134 0.313401 1 0.7 1H6.58579C6.851 1 7.10536 1.10536 7.29289 1.29289L8.70711 2.70711C8.89464 2.89464 9.149 3 9.41421 3H13C13.5523 3 14 3.44772 14 4V12.3C14 12.6866 13.6866 13 13.3 13H1C0.447716 13 0 12.5523 0 12V1.7Z"
    fill="var(--color-bg-caution)"
  />
  <path
    d="M0 3.7C0 3.3134 0.313401 3 0.7 3H13C13.5523 3 14 3.44772 14 4V12.3C14 12.6866 13.6866 13 13.3 13H1C0.447716 13 0 12.5523 0 12V3.7Z"
    fill="var(--color-bg-warning)"
  />
  <path
    d="M14.1428 12.2857H8.57141V9.5H14.1428L16 7.64285V10.5L14.1428 12.2857Z"
    fill="var(--color-bg-success)"
  />
  <path
    d="M14.1428 13.2143H8.57141V11.3571H14.1428L16 9.5V11.3571L14.1428 13.2143Z"
    fill="var(--color-bg-caution)"
  />
  <path
    d="M14.1428 15.0714H8.57141V13.2143H14.1428L16 11.3571V13.2143L14.1428 15.0714Z"
    fill="var(--color-bg-alert)"
  />
  <path
    d="M8.57141 9.5L10.8928 7.64285H16L14.1838 9.5H8.57141Z"
    fill="var(--color-bg-success)"
  />
  <path
    d="M9.07141 4.39285C9.07141 4.11671 8.84755 3.89285 8.57141 3.89285C8.29527 3.89285 8.07141 4.11671 8.07141 4.39285V9H3.46429C3.18815 9 2.96429 9.22386 2.96429 9.5C2.96429 9.77614 3.18815 10 3.46429 10H7.3643L6.36072 11.0036C6.16546 11.1988 6.16546 11.5154 6.36072 11.7107C6.55598 11.906 6.87257 11.906 7.06783 11.7107L8.07141 10.7071V14.6071C8.07141 14.8833 8.29527 15.1071 8.57141 15.1071C8.84755 15.1071 9.07141 14.8833 9.07141 14.6071V10H13.6786C13.9547 10 14.1786 9.77614 14.1786 9.5C14.1786 9.22386 13.9547 9 13.6786 9H9.77852L10.7821 7.9964C10.9774 7.80114 10.9774 7.48456 10.7821 7.2893C10.5869 7.09403 10.2703 7.09403 10.075 7.2893L9.07141 8.29289V4.39285Z"
    fill="var(--color-typo-primary)"
  />
  <path
    d="M4.50358 13.5678C4.30832 13.3726 4.30832 13.056 4.50358 12.8607L5.12263 12.2417C5.31789 12.0464 5.63447 12.0464 5.82973 12.2417C6.02499 12.4369 6.02499 12.7535 5.82973 12.9488L5.21068 13.5678C5.01542 13.7631 4.69884 13.7631 4.50358 13.5678Z"
    fill="var(--color-typo-primary)"
  />
  <path
    d="M11.3131 6.75831C11.1178 6.56305 11.1178 6.24646 11.3131 6.0512L11.9321 5.43215C12.1274 5.23689 12.444 5.23689 12.6393 5.43215C12.8345 5.62742 12.8345 5.944 12.6393 6.13926L12.0202 6.75831C11.8249 6.95357 11.5084 6.95357 11.3131 6.75831Z"
    fill="var(--color-typo-primary)"
  />
</svg>
