<!-- ##color:multiple ##group:seismic -->
<svg viewBox="0 0 16 16" fill="none" xmlns="http://www.w3.org/2000/svg">
  <path
    d="M0 1.7C0 1.3134 0.313401 1 0.7 1H6.58579C6.851 1 7.10536 1.10536 7.29289 1.29289L8.70711 2.70711C8.89464 2.89464 9.149 3 9.41421 3H13C13.5523 3 14 3.44772 14 4V12.3C14 12.6866 13.6866 13 13.3 13H1C0.447716 13 0 12.5523 0 12V1.7Z"
    fill="var(--color-bg-caution)"
  />
  <path
    d="M0 3.7C0 3.3134 0.313401 3 0.7 3H13C13.5523 3 14 3.44772 14 4V12.3C14 12.6866 13.6866 13 13.3 13H1C0.447716 13 0 12.5523 0 12V3.7Z"
    fill="var(--color-bg-warning)"
  />
  <path
    d="M7.5 6.59392C7.5 6.44797 7.65127 6.35117 7.78379 6.41232L10.479 7.65595L7.5 8.36668V6.59392Z"
    fill="#EBEEEF"
    stroke="var(--color-typo-primary)"
  />
  <path
    d="M15.5 6.88502C15.5 6.75594 15.3795 6.66067 15.2539 6.6904L6.88484 8.67121C6.65929 8.7246 6.5 8.92599 6.5 9.15777V14.115C6.5 14.2441 6.62045 14.3393 6.74606 14.3096L15.1152 12.3288C15.3407 12.2754 15.5 12.074 15.5 11.8422V6.88502Z"
    fill="var(--color-bg-ghost)"
  />
  <path
    d="M15.5 6.88502C15.5 6.75594 15.3795 6.66067 15.2539 6.6904L6.88484 8.67121C6.65929 8.7246 6.5 8.92599 6.5 9.15777V14.115C6.5 14.2441 6.62045 14.3393 6.74606 14.3096L15.1152 12.3288C15.3407 12.2754 15.5 12.074 15.5 11.8422V6.88502Z"
    fill="#EBEEEF"
  />
  <path
    d="M15.5 6.88502C15.5 6.75594 15.3795 6.66067 15.2539 6.6904L6.88484 8.67121C6.65929 8.7246 6.5 8.92599 6.5 9.15777V14.115C6.5 14.2441 6.62045 14.3393 6.74606 14.3096L15.1152 12.3288C15.3407 12.2754 15.5 12.074 15.5 11.8422V6.88502Z"
    stroke="var(--color-typo-primary)"
  />
  <path
    d="M6.99995 10.4974C7.07176 10.4461 7.16217 10.3822 7.29569 10.293C7.56259 10.1146 7.94561 9.87155 8.41329 9.61063C9.34659 9.08993 10.6272 8.49231 12 8.20054C13.3743 7.90842 14.1863 8.06233 14.6629 8.32314C14.8047 8.40072 14.9148 8.48677 15 8.57092V9.72018C14.9996 9.59866 14.8523 9.32436 14.7276 9.18969C14.6728 9.1121 14.5159 8.97112 14.337 8.87322C13.9803 8.67803 13.2923 8.51764 12 8.79234C10.706 9.06738 9.48665 9.63428 8.58662 10.1364C8.13762 10.3869 7.77064 10.6198 7.51672 10.7896C7.33732 10.9095 7.1232 11.0655 6.99995 11.177L6.99995 10.4974Z"
    fill="var(--color-bg-warning)"
  />
  <path
    d="M10 10.0229C7.33333 10.5897 7 11.9018 7 11.9018V12.7293C8 12.1719 9.33333 11.199 11.6667 10.703C13.3333 10.3487 14.4444 10.8021 15 11.0288V10.2013C15 10.2013 12.6667 9.45607 10 10.0229Z"
    fill="var(--color-bg-normal)"
  />
  <path
    fill-rule="evenodd"
    clip-rule="evenodd"
    d="M6.9679 13.5555C6.9679 13.5555 6.96813 13.5554 6.863 13.289C6.75787 13.0226 6.75812 13.0225 6.75812 13.0225L6.76051 13.0209L6.76464 13.0183L6.77748 13.0103C6.78809 13.0038 6.80283 12.995 6.82185 12.984C6.8599 12.962 6.9151 12.9313 6.98875 12.8935C7.13607 12.8178 7.35721 12.7132 7.66268 12.5913C8.27354 12.3475 9.22191 12.0341 10.5919 11.7429C11.9619 11.4517 13.0763 11.3267 13.8498 11.2745C14.2366 11.2484 14.5383 11.2405 14.7443 11.2392C14.8473 11.2386 14.9264 11.2395 14.9803 11.2407C15.0072 11.2413 15.0279 11.2419 15.042 11.2424L15.0584 11.2431L15.0629 11.2433L15.0642 11.2433C15.0642 11.2433 15.0649 11.2434 14.9988 11.5597C14.9844 11.629 15.0174 11.8683 14.9988 11.8724C14.9803 11.8765 14.915 11.8573 14.8876 11.876C14.8382 11.875 14.7372 11.8718 14.639 11.8724C14.4424 11.8736 14.1509 11.8812 13.775 11.9065C13.023 11.9572 11.9339 12.0792 10.5919 12.3644C9.25 12.6497 8.3339 12.9539 7.75829 13.1837C7.47051 13.2985 7.26792 13.3947 7.1398 13.4606C7.07574 13.4935 7.0303 13.5188 7.00214 13.5351C6.98806 13.5433 6.97829 13.5491 6.97268 13.5526L6.863 13.5936L6.9679 13.5555Z"
    fill="var(--color-bg-alert)"
  />
  <path
    d="M11 7.24142L13.8532 8.64846C14.3485 8.89273 14.7501 9.53847 14.7501 10.0908V14.6848C14.7501 15.2371 14.3485 15.4868 13.8532 15.2425L11 13.8355V7.24142Z"
    fill="#CCD9E0"
  />
  <path
    fill-rule="evenodd"
    clip-rule="evenodd"
    d="M6.68806 7.65301C6.68806 7.65301 6.68817 7.65299 6.5091 7.25459C6.33003 6.85619 6.3302 6.85616 6.3302 6.85616L6.33104 6.856L6.33294 6.85564L6.33936 6.85447L6.36251 6.85048C6.38246 6.84715 6.41139 6.84258 6.44879 6.83734C6.52358 6.82685 6.63231 6.81364 6.77093 6.80223C7.04801 6.77942 7.44554 6.76368 7.93102 6.79144C8.89873 6.84678 10.1674 6.94862 11.6006 7.65541C13.0402 8.36534 13.9629 9.34886 14.4659 10.0792C14.5863 10.2541 14.6842 10.4187 14.7637 10.5687C14.7592 10.6025 14.7592 11.3352 14.7592 11.7015C14.7592 11.7015 14.4185 10.9867 14.0213 10.4099C13.6649 9.89221 12.9286 9.09 11.6182 8.44376C10.3014 7.79438 9.10393 7.64769 8.18098 7.59491C7.72114 7.56862 7.34521 7.58359 7.08517 7.605C6.95524 7.6157 6.85449 7.62798 6.78694 7.63745C6.75317 7.64219 6.72772 7.64622 6.71108 7.64899L6.69282 7.65214L6.68877 7.65288L6.68806 7.65301Z"
    fill="var(--color-bg-warning)"
    style="mix-blend-mode: multiply"
  />
  <path
    d="M9.58377 8.59551C6.83372 7.23934 6.49994 8.86878 6.49994 8.86878V9.9678C7.53121 10.0184 8.88037 9.74105 11.2867 10.9277C12.9978 11.7715 14.1667 13.2823 14.7424 14.0264L14.7501 14.0363V12.9373C14.7501 12.9373 12.3338 9.95168 9.58377 8.59551Z"
    fill="var(--color-bg-normal)"
    style="mix-blend-mode: multiply"
  />
  <path
    fill-rule="evenodd"
    clip-rule="evenodd"
    d="M6.64746 11.4688C6.64746 11.4688 6.64775 11.4688 6.49995 11.0668C6.35216 10.6649 6.35248 10.6649 6.35248 10.6649L6.35359 10.6648L6.3554 10.6648L6.36017 10.6646L6.37437 10.6646C6.38593 10.6646 6.40168 10.6649 6.4218 10.6658C6.46204 10.6677 6.51972 10.6719 6.59617 10.6814C6.74908 10.7004 6.97693 10.7403 7.29033 10.8233C7.91709 10.9893 8.87563 11.2352 10.2712 11.9234C11.6666 12.6116 12.8122 13.4032 13.6011 13.9324C13.9956 14.197 14.3037 14.4192 14.5145 14.5764C14.6199 14.655 14.701 14.7174 14.7565 14.7607C14.7843 14.7823 14.8056 14.7992 14.8204 14.8109L14.8376 14.8247L14.8425 14.8286L14.844 14.8298L14.8447 14.8304C14.8447 14.8304 14.8448 14.8305 14.7501 15.1353C14.6554 15.4401 14.6555 15.4402 14.6555 15.4402L14.6525 15.4379L14.6398 15.4277C14.6281 15.4183 14.6098 15.4039 14.5852 15.3847C14.5359 15.3462 14.4613 15.2889 14.3626 15.2153C14.1653 15.0681 13.8717 14.8563 13.4928 14.6021C12.7348 14.0937 11.6257 13.3682 10.2712 12.7002C8.91663 12.0322 8.00475 11.7611 7.42836 11.6084C7.14018 11.5321 6.93834 11.4975 6.81195 11.4818C6.74875 11.4739 6.70438 11.4708 6.67748 11.4696C6.66403 11.469 6.65494 11.4688 6.65004 11.4688L6.64582 11.4688L6.6467 11.4688L6.64746 11.4688Z"
    fill="var(--color-bg-alert)"
    style="mix-blend-mode: multiply"
  />
  <path
    d="M11.4484 7.96257L13.8532 9.14846C14.1009 9.2706 14.3016 9.59346 14.3016 9.86961V14.4637C14.3016 14.7398 14.1009 14.8647 13.8532 14.7425L11.4484 13.5567V7.96257Z"
    stroke="var(--color-typo-primary)"
  />
</svg>
