<!-- ##color:mono ##group:map -->
<svg viewBox="0 0 28 28" fill="none" xmlns="http://www.w3.org/2000/svg">
  <path
    d="M7.5 5.93431C7.5 5.53496 7.05493 5.29677 6.72265 5.51829L3.4453 7.70319C3.1671 7.88865 3 8.20088 3 8.53524V23.0658C3 23.4651 3.44507 23.7033 3.77735 23.4818L7.0547 21.2969C7.3329 21.1115 7.5 20.7992 7.5 20.4649V5.93431Z"
  />
  <path
    d="M11.1286 20.8515C10.749 20.6996 10.5 20.3319 10.5 19.923L10.5 5.33857C10.5 4.98484 10.8573 4.74296 11.1857 4.87433L16.8714 7.14861C17.251 7.30047 17.5 7.66818 17.5 8.07709L17.5 22.6615C17.5 23.0153 17.1427 23.2571 16.8143 23.1258L11.1286 20.8515Z"
  />
  <path
    d="M20.5 22.441C20.5 22.8127 20.8912 23.0545 21.2236 22.8883L24.4472 21.2764C24.786 21.1071 25 20.7608 25 20.382V4.93431C25 4.53497 24.5549 4.29677 24.2227 4.51829L20.9453 6.70319C20.6671 6.88865 20.5 7.20088 20.5 7.53524V22.441Z"
  />
</svg>
