<!-- ##color:multiple ##group:solver -->
<svg viewBox="0 0 24 24" fill="none" xmlns="http://www.w3.org/2000/svg">
  <path
    fill-rule="evenodd"
    clip-rule="evenodd"
    d="M7.25893 14.467C7.53029 14.168 7.89832 14 8.28208 14C8.7973 14 9.27365 14.3019 9.53275 14.7926L9.76092 15.2247C10.995 17.5621 13.2639 19 15.7179 19C17.5458 19 19.2987 18.1999 20.5912 16.7756L23 14.1213L21.8563 12.861L19.521 15.3614C18.5411 16.4106 17.2121 17 15.8264 17C13.9659 17 12.2458 15.9408 11.3101 14.219L11.0753 13.7868C10.4742 12.6806 9.369 12 8.17365 12C7.2833 12 6.42941 12.3787 5.79984 13.0528L3.44556 15.5735L4.85016 17.1213L7.25893 14.467ZM2.14373 14.139L1 12.8787L3.40877 10.2244C4.70125 8.80013 6.45424 8 8.28208 8C10.7361 8 13.005 9.43791 14.2391 11.7752L14.4673 12.2074C14.7263 12.6981 15.2027 13 15.7179 13C16.1017 13 16.4697 12.832 16.7411 12.533L19.1498 9.87868L20.5544 11.4265L18.2002 13.9472C17.5706 14.6213 16.7167 15 15.8264 15C14.631 15 13.5258 14.3194 12.9247 13.2132L12.6899 12.781C11.7542 11.0592 10.0341 10 8.17365 10C6.78789 10 5.4589 10.5894 4.47902 11.6386L2.14373 14.139Z"
    fill="var(--color-control-typo-ghost)"
  />
  <path
    d="M19.25 8L19.25 6.2L13 6.2L13 3.8L19.25 3.8L19.25 2L23 5L19.25 8Z"
    fill="#91C2A6"
  />
</svg>
