<!-- ##color:multiple ##group:geo -->
<svg viewBox="0 0 16 16" fill="none" xmlns="http://www.w3.org/2000/svg">
  <path
    d="M10.96 2.27999C11.1147 1.74979 10.8102 1.19463 10.28 1.03999C9.74982 0.885346 9.19466 1.18979 9.04002 1.71999L5.54002 13.72C5.38538 14.2502 5.68982 14.8053 6.22002 14.96C6.75021 15.1146 7.30538 14.8102 7.46002 14.28L8.84967 9.51545C9.41059 9.53595 9.93561 9.57567 10.4213 9.6277C11.2957 9.72138 12.0425 9.85497 12.6415 9.98808C13.1888 10.1097 13.6122 10.2308 13.8963 10.3205C14.0383 10.3654 14.1455 10.4024 14.2158 10.4276C14.251 10.4402 14.2769 10.4499 14.2934 10.4562L14.311 10.463L14.3143 10.4642C14.5706 10.5664 14.8617 10.4419 14.9642 10.1857C15.0668 9.92929 14.9421 9.63831 14.6857 9.53575L14.5 9.99999C14.6857 9.53575 14.6858 9.53581 14.6857 9.53575L14.6842 9.53517L14.6818 9.53422L14.6743 9.53128L14.6484 9.52133C14.6264 9.51294 14.5947 9.50114 14.5537 9.48642C14.4717 9.45698 14.3523 9.41584 14.1974 9.36694C13.8878 9.26916 13.4362 9.14029 12.8585 9.01189C11.926 8.80467 10.6637 8.59848 9.13807 8.52665L10.96 2.27999Z"
    fill="var(--color-typo-normal)"
  />
</svg>
