<!-- ##color:mono ##group:social -->
<svg viewBox="0 0 24 24" fill="none" xmlns="http://www.w3.org/2000/svg">
  <path
    d="M21.2921 13.6415C21.2858 13.6766 21.2813 13.7121 21.2747 13.7472L21.2405 13.5458C21.2592 13.5772 21.2747 13.6098 21.2921 13.6415C21.3954 13.0796 21.4495 12.5044 21.4495 11.9295C21.4495 10.6547 21.1999 9.41785 20.7068 8.25354C20.2311 7.12883 19.5504 6.11877 18.6826 5.25156C17.816 4.38435 16.8053 3.7037 15.6812 3.22797C14.5172 2.73545 13.2804 2.48587 12.0055 2.48587C11.4047 2.48587 10.8029 2.54224 10.2173 2.65468C10.216 2.655 10.2144 2.655 10.2128 2.65532C10.2458 2.67274 10.279 2.68826 10.3113 2.70631L10.1128 2.67527C10.146 2.66894 10.1796 2.66197 10.2128 2.65532C9.4093 2.22805 8.50566 2 7.59094 2C6.09755 2 4.69348 2.58152 3.6375 3.63782C2.58184 4.6938 2 6.09787 2 7.59126C2 8.54177 2.24452 9.47613 2.70346 10.3018C2.70948 10.2676 2.7136 10.2331 2.72025 10.1989L2.75445 10.3969C2.73672 10.3658 2.7212 10.3335 2.70346 10.3018C2.61034 10.8368 2.56125 11.3835 2.56125 11.9295C2.56125 13.2047 2.81083 14.4412 3.30398 15.6058C3.77908 16.7309 4.46005 17.7403 5.32695 18.6075C6.19479 19.4747 7.20421 20.1563 8.32956 20.6308C9.49355 21.1242 10.7307 21.3741 12.0055 21.3741C12.5605 21.3741 13.1166 21.3235 13.6595 21.2272C13.6278 21.2094 13.5955 21.1933 13.5632 21.1746L13.765 21.2101C13.7301 21.2167 13.695 21.2208 13.6595 21.2272C14.496 21.7004 15.443 21.9519 16.41 21.9519C17.9031 21.9519 19.3065 21.3713 20.3625 20.3147C21.4188 19.2593 22 17.8549 22 16.3615C22 15.4079 21.7542 14.4703 21.2921 13.6415ZM12.0432 17.7134C8.6881 17.7134 7.18711 16.0638 7.18711 14.8276C7.18711 14.1935 7.65524 13.7491 8.30042 13.7491C9.73616 13.7491 9.36432 15.8108 12.0432 15.8108C13.4147 15.8108 14.172 15.0661 14.172 14.3041C14.172 13.8458 13.9458 13.3377 13.0428 13.1151L10.0586 12.3701C7.65524 11.7674 7.2191 10.4681 7.2191 9.24681C7.2191 6.71106 9.60662 5.75897 11.8488 5.75897C13.9142 5.75897 16.3489 6.90047 16.3489 8.42173C16.3489 9.07356 15.7845 9.45269 15.1396 9.45269C13.9142 9.45269 14.1397 7.75659 11.6714 7.75659C10.4466 7.75659 9.76815 8.31119 9.76815 9.10492C9.76815 9.89706 10.7355 10.1501 11.5754 10.3414L13.7843 10.8317C16.2038 11.3708 16.8173 12.7834 16.8173 14.114C16.8173 16.1747 15.2356 17.7134 12.0432 17.7134ZM13.5632 21.1746C13.5955 21.1933 13.6278 21.2094 13.6595 21.2272C13.695 21.2208 13.7301 21.2167 13.765 21.2101L13.5632 21.1746ZM21.2747 13.7472C21.2813 13.7121 21.2858 13.6766 21.2921 13.6415C21.2747 13.6098 21.2592 13.5772 21.2405 13.5458L21.2747 13.7472ZM2.72025 10.1989C2.7136 10.2331 2.70948 10.2676 2.70346 10.3018C2.7212 10.3335 2.73672 10.3658 2.75445 10.3969L2.72025 10.1989ZM10.3113 2.70631C10.279 2.68826 10.2458 2.67274 10.2128 2.65532C10.1796 2.66197 10.146 2.66894 10.1128 2.67527L10.3113 2.70631Z"
  />
</svg>
