<!-- ##color:mono ##group:social -->
<svg viewBox="0 0 16 16" fill="none" xmlns="http://www.w3.org/2000/svg">
  <path
    d="M13.5753 9.00173C13.5715 9.02288 13.5688 9.04421 13.5648 9.06536L13.5443 8.9442C13.5555 8.96306 13.5648 8.98268 13.5753 9.00173C13.6372 8.66379 13.6697 8.31784 13.6697 7.97209C13.6697 7.20534 13.52 6.46145 13.2241 5.76118C12.9386 5.08472 12.5302 4.47723 12.0095 3.95565C11.4896 3.43406 10.8832 3.02469 10.2087 2.73856C9.51033 2.44233 8.76823 2.29222 8.00333 2.29222C7.64282 2.29222 7.28175 2.32613 6.93037 2.39376C6.92961 2.39395 6.92866 2.39395 6.92771 2.39414C6.94747 2.40462 6.96742 2.41395 6.98681 2.42481L6.86765 2.40614C6.88761 2.40233 6.90775 2.39814 6.92771 2.39414C6.44558 2.13716 5.9034 2 5.35456 2C4.45853 2 3.61609 2.34975 2.9825 2.98506C2.3491 3.62018 2 4.46465 2 5.36285C2 5.93453 2.14671 6.4965 2.42208 6.99313C2.42569 6.97255 2.42816 6.95179 2.43215 6.93121L2.45267 7.05028C2.44203 7.03161 2.43272 7.01218 2.42208 6.99313C2.3662 7.31488 2.33675 7.64367 2.33675 7.97209C2.33675 8.73903 2.4865 9.48274 2.78239 10.1832C3.06745 10.8598 3.47603 11.467 3.99617 11.9885C4.51687 12.5101 5.12253 12.9201 5.79774 13.2054C6.49613 13.5022 7.23842 13.6525 8.00333 13.6525C8.33627 13.6525 8.66998 13.6221 8.99571 13.5641C8.9767 13.5535 8.95732 13.5438 8.93794 13.5325L9.05899 13.5539C9.03809 13.5579 9.01699 13.5603 8.99571 13.5641C9.4976 13.8487 10.0658 14 10.646 14C11.5418 14 12.3839 13.6508 13.0175 13.0153C13.6513 12.3806 14 11.5359 14 10.6377C14 10.0641 13.8525 9.50026 13.5753 9.00173ZM8.02594 11.4508C6.01286 11.4508 5.11227 10.4587 5.11227 9.71514C5.11227 9.33377 5.39314 9.0665 5.78025 9.0665C6.6417 9.0665 6.41859 10.3064 8.02594 10.3064C8.84881 10.3064 9.30319 9.85859 9.30319 9.40025C9.30319 9.1246 9.1675 8.81904 8.6257 8.68512L6.83516 8.23707C5.39314 7.87456 5.13146 7.09314 5.13146 6.35858C5.13146 4.83346 6.56397 4.26082 7.90926 4.26082C9.1485 4.26082 10.6093 4.94737 10.6093 5.86233C10.6093 6.25438 10.2707 6.4824 9.88376 6.4824C9.1485 6.4824 9.28381 5.46229 7.80283 5.46229C7.06795 5.46229 6.66089 5.79585 6.66089 6.27324C6.66089 6.74967 7.24127 6.90188 7.74525 7.01694L9.07058 7.31183C10.5223 7.63605 10.8904 8.48567 10.8904 9.28595C10.8904 10.5253 9.94134 11.4508 8.02594 11.4508ZM8.93794 13.5325C8.95732 13.5438 8.9767 13.5535 8.99571 13.5641C9.01699 13.5603 9.03809 13.5579 9.05899 13.5539L8.93794 13.5325ZM13.5648 9.06536C13.5688 9.04421 13.5715 9.02288 13.5753 9.00173C13.5648 8.98268 13.5555 8.96306 13.5443 8.9442L13.5648 9.06536ZM2.43215 6.93121C2.42816 6.95179 2.42569 6.97255 2.42208 6.99313C2.43272 7.01218 2.44203 7.03161 2.45267 7.05028L2.43215 6.93121ZM6.98681 2.42481C6.96742 2.41395 6.94747 2.40462 6.92771 2.39414C6.90775 2.39814 6.88761 2.40233 6.86765 2.40614L6.98681 2.42481Z"
  />
</svg>
