<!-- ##color:mono ##group:social -->
<svg viewBox="0 0 12 12" fill="none" xmlns="http://www.w3.org/2000/svg">
  <path
    d="M10.6461 6.83478C10.6429 6.8524 10.6407 6.87018 10.6373 6.8878L10.6202 6.78683C10.6296 6.80255 10.6373 6.8189 10.6461 6.83478C10.6977 6.55316 10.7248 6.26487 10.7248 5.97674C10.7248 5.33778 10.6 4.71787 10.3534 4.13432C10.1155 3.5706 9.7752 3.06436 9.34128 2.6297C8.90799 2.19505 8.40264 1.8539 7.84061 1.61547C7.25861 1.36861 6.64019 1.24352 6.00277 1.24352C5.70235 1.24352 5.40146 1.27178 5.10864 1.32813C5.10801 1.32829 5.10721 1.32829 5.10642 1.32845C5.12289 1.33718 5.13952 1.34496 5.15567 1.35401L5.05638 1.33845C5.07301 1.33528 5.08979 1.33178 5.10642 1.32845C4.70465 1.1143 4.25283 1 3.79547 1C3.04878 1 2.34674 1.29146 1.81875 1.82088C1.29092 2.35015 1 3.05388 1 3.80238C1 4.27878 1.12226 4.74708 1.35173 5.16094C1.35474 5.14379 1.3568 5.12649 1.36012 5.10935L1.37723 5.20856C1.36836 5.19301 1.3606 5.17681 1.35173 5.16094C1.30517 5.42906 1.28062 5.70306 1.28062 5.97674C1.28062 6.61586 1.40542 7.23561 1.65199 7.81933C1.88954 8.3832 2.23003 8.88913 2.66347 9.32378C3.09739 9.75843 3.60211 10.1001 4.16478 10.3379C4.74677 10.5852 5.36535 10.7104 6.00277 10.7104C6.28023 10.7104 6.55832 10.685 6.82976 10.6368C6.81392 10.6279 6.79777 10.6198 6.78161 10.6104L6.88249 10.6282C6.86507 10.6315 6.84749 10.6336 6.82976 10.6368C7.248 10.874 7.72151 11 8.205 11C8.95154 11 9.65326 10.709 10.1812 10.1794C10.7094 9.65049 11 8.9466 11 8.1981C11 7.72011 10.8771 7.25022 10.6461 6.83478ZM6.02162 8.87564C4.34405 8.87564 3.59355 8.04888 3.59355 7.42929C3.59355 7.11147 3.82762 6.88875 4.15021 6.88875C4.86808 6.88875 4.68216 7.92204 6.02162 7.92204C6.70734 7.92204 7.08599 7.54882 7.08599 7.16688C7.08599 6.93717 6.97292 6.68254 6.52142 6.57094L5.0293 6.19756C3.82762 5.89546 3.60955 5.24428 3.60955 4.63215C3.60955 3.36121 4.80331 2.88402 5.92438 2.88402C6.95708 2.88402 8.17444 3.45615 8.17444 4.21861C8.17444 4.54531 7.89223 4.73534 7.5698 4.73534C6.95708 4.73534 7.06984 3.88524 5.8357 3.88524C5.2233 3.88524 4.88408 4.16321 4.88408 4.56103C4.88408 4.95806 5.36773 5.0849 5.78771 5.18078L6.89215 5.42652C8.10191 5.69671 8.40866 6.40473 8.40866 7.07163C8.40866 8.10444 7.61778 8.87564 6.02162 8.87564ZM6.78161 10.6104C6.79777 10.6198 6.81392 10.6279 6.82976 10.6368C6.84749 10.6336 6.86507 10.6315 6.88249 10.6282L6.78161 10.6104ZM10.6373 6.8878C10.6407 6.87018 10.6429 6.8524 10.6461 6.83478C10.6373 6.8189 10.6296 6.80255 10.6202 6.78683L10.6373 6.8878ZM1.36012 5.10935C1.3568 5.12649 1.35474 5.14379 1.35173 5.16094C1.3606 5.17681 1.36836 5.19301 1.37723 5.20856L1.36012 5.10935ZM5.15567 1.35401C5.13952 1.34496 5.12289 1.33718 5.10642 1.32845C5.08979 1.33178 5.07301 1.33528 5.05638 1.33845L5.15567 1.35401Z"
  />
</svg>
