<!-- ##color:mono ##group:social -->
<svg viewBox="0 0 12 12" xmlns="http://www.w3.org/2000/svg">
  <path
    d="M11 6.00002C11 3.23829 8.76175 1 6.00002 1C3.23829 1 1 3.23829 1 6.00002C1 8.76175 3.23829 11 6.00002 11C6.02932 11 6.05861 11 6.08791 10.9981V7.10745H5.01369V5.85549H6.08791V4.93361C6.08791 3.86525 6.74026 3.28321 7.69339 3.28321C8.15042 3.28321 8.543 3.31642 8.65628 3.33204V4.44923H8.00003C7.48245 4.44923 7.38088 4.69533 7.38088 5.05666V5.85353H8.62112L8.45901 7.10549H7.38088V10.8067C9.47074 10.2071 11 8.28323 11 6.00002Z"
  />
</svg>
