<!-- ##color:multiple ##group:geo -->
<svg viewBox="0 0 16 16" fill="none" xmlns="http://www.w3.org/2000/svg">
  <path
    d="M4.32258 3.2L2 6.8L3.16129 12L7 14L12 12.5L14 9L12.8387 4L8.96774 2L4.32258 3.2Z"
    fill="var(--color-bg-caution)"
  />
  <path
    fill-rule="evenodd"
    clip-rule="evenodd"
    d="M9.0276 1.46814L13.2735 3.66185L14.5314 9.07786L12.335 12.9215L6.94913 14.5373L2.72402 12.336L1.46643 6.70478L4.00837 2.76478L9.0276 1.46814ZM2.81567 6.45804L5.31184 5.03166L9.43847 4H11.7494L8.90792 2.53189L4.63683 3.63525L2.81567 6.45804ZM12.5577 5H9.56157L5.68821 5.96834L2.70704 7.67187L3.48334 11.1479L6.31184 9.53166L10.4385 8.5H13.3706L12.5577 5ZM7.0509 13.4627L4.12017 11.9358L6.68821 10.4683L10.5616 9.5H13.1384L11.665 12.0785L7.0509 13.4627Z"
    fill="var(--color-typo-primary)"
  />
</svg>
