<!-- ##color:multiple ##group:geo -->
<svg viewBox="0 0 16 16" fill="none" xmlns="http://www.w3.org/2000/svg">
  <path
    fill-rule="evenodd"
    clip-rule="evenodd"
    d="M7.5 2C7.77614 2 8 2.20664 8 2.46154L8 13.5385C8 13.7934 7.77614 14 7.5 14C7.22386 14 7 13.7934 7 13.5385L7 2.46154C7 2.20664 7.22386 2 7.5 2Z"
    fill="var(--color-typo-primary)"
  />
  <path
    fill-rule="evenodd"
    clip-rule="evenodd"
    d="M11.5 2C11.7761 2 12 2.20664 12 2.46154L12 13.5385C12 13.7934 11.7761 14 11.5 14C11.2239 14 11 13.7934 11 13.5385L11 2.46154C11 2.20664 11.2239 2 11.5 2Z"
    fill="var(--color-typo-primary)"
  />
  <path
    fill-rule="evenodd"
    clip-rule="evenodd"
    d="M3.5 4C3.77614 4 4 4.1722 4 4.38462L4 13.6154C4 13.8278 3.77614 14 3.5 14C3.22386 14 3 13.8278 3 13.6154L3 4.38462C3 4.1722 3.22386 4 3.5 4Z"
    fill="var(--color-typo-primary)"
  />
  <rect
    x="2"
    y="5"
    width="12"
    height="2"
    rx="1"
    fill="var(--color-typo-normal)"
  />
  <rect
    x="2"
    y="9"
    width="12"
    height="2"
    rx="1"
    fill="var(--color-typo-caution)"
  />
</svg>
