<!-- ##color:multiple ##group:geo -->
<svg viewBox="0 0 16 16" fill="none" xmlns="http://www.w3.org/2000/svg">
  <path
    d="M6.5 7.10413C3.27909 7.10413 2 9.50272 2 9.50272L2 7.10413C3.92822 5.30412 7.29928 3.46398 10.5 4.10413C12.5 4.50412 13.6667 5.93746 14 6.60413V10.1041C14 10.1041 9.72091 7.10413 6.5 7.10413Z"
    fill="var(--color-typo-caution)"
  />
  <path
    d="M2 12.6249V10.5846C2.04008 10.5341 2.08165 10.4834 2.12476 10.4327C2.95075 9.46168 4.33008 8.49988 6.49999 8.49988C8.64015 8.49988 10.7667 9.49933 12.3209 10.4551C12.9873 10.8649 13.5607 11.2743 14 11.6099V12.8889C13.8945 12.8006 13.7611 12.6916 13.603 12.5673C13.1657 12.2234 12.5418 11.7649 11.7971 11.3069C10.2923 10.3815 8.35982 9.49988 6.49999 9.49988C4.66989 9.49988 3.55485 10.2949 2.88646 11.0806C2.54783 11.4788 2.32161 11.8782 2.18054 12.1776C2.11024 12.3268 2.06179 12.4497 2.03157 12.533C2.01677 12.5738 2.00639 12.605 2 12.6249Z"
    fill="var(--color-typo-caution)"
  />
</svg>
