<!-- ##color:mono ##group:objects -->
<svg viewBox="0 0 28 28" xmlns="http://www.w3.org/2000/svg">
  <path
    d="M18 15C18 17.2091 16.2091 19 14 19C11.7909 19 10 17.2091 10 15C10 12.7909 11.7909 11 14 11C16.2091 11 18 12.7909 18 15Z"
  />
  <path
    fill-rule="evenodd"
    clip-rule="evenodd"
    d="M9.61803 4C9.23926 4 8.893 4.214 8.72361 4.55279L8 7H4C2.89543 7 2 7.89543 2 9V22C2 23.1046 2.89543 24 4 24H24C25.1046 24 26 23.1046 26 22V9C26 7.89543 25.1046 7 24 7H20L19.2764 4.55279C19.107 4.214 18.7607 4 18.382 4H9.61803ZM20 15C20 18.3137 17.3137 21 14 21C10.6863 21 8 18.3137 8 15C8 11.6863 10.6863 9 14 9C17.3137 9 20 11.6863 20 15Z"
  />
</svg>
