<!-- ##color:mono ##group:sort&filter -->
<svg viewBox="0 0 28 28" fill="none" xmlns="http://www.w3.org/2000/svg">
  <path
    d="M15 8V9.5C15 9.77614 15.2239 10 15.5 10H16.5C16.7761 10 17 9.77614 17 9.5V3.5C17 3.22386 16.7761 3 16.5 3H15.5C15.2239 3 15 3.22386 15 3.5V5H3.5C3.22386 5 3 5.22386 3 5.5V7.5C3 7.77614 3.22386 8 3.5 8H15Z"
  />
  <path
    d="M23.5 25C23.2239 25 23 24.7761 23 24.5V23H3.5C3.22386 23 3 22.7761 3 22.5V20.5C3 20.2239 3.22386 20 3.5 20H23V18.5C23 18.2239 23.2239 18 23.5 18H24.5C24.7761 18 25 18.2239 25 18.5V24.5C25 24.7761 24.7761 25 24.5 25H23.5Z"
  />
  <path
    d="M20 5.5C20 5.22386 20.2239 5 20.5 5H24.5C24.7761 5 25 5.22386 25 5.5V7.5C25 7.77614 24.7761 8 24.5 8H20.5C20.2239 8 20 7.77614 20 7.5V5.5Z"
  />
  <path
    d="M10.5 10.5C10.7761 10.5 11 10.7239 11 11V12.5L24.5 12.5C24.7761 12.5 25 12.7239 25 13V15C25 15.2761 24.7761 15.5 24.5 15.5L11 15.5L11 17C11 17.2761 10.7761 17.5 10.5 17.5H9.5C9.22386 17.5 9 17.2761 9 17L9 11C9 10.7239 9.22386 10.5 9.5 10.5H10.5Z"
  />
  <path
    d="M3 15C3 15.2761 3.22386 15.5 3.5 15.5H5.5C5.77614 15.5 6 15.2761 6 15L6 13C6 12.7239 5.77614 12.5 5.5 12.5H3.5C3.22386 12.5 3 12.7239 3 13L3 15Z"
  />
</svg>
