<!-- ##color:multiple ##group:colored -->
<svg viewBox="0 0 12 12" fill="none" xmlns="http://www.w3.org/2000/svg">
  <path
    d="M6.61428 1.08124C8.18438 1.28287 9.82866 1.80519 10.6085 3.18052C11.3678 4.51942 10.8919 6.14127 10.2857 7.55579C9.72905 8.8546 8.79983 9.92734 7.48902 10.4594C6.05501 11.0416 4.39061 11.2973 3.07498 10.4829C1.73522 9.65351 1.21526 8.04047 1.0526 6.47505C0.888679 4.89754 1.06458 3.20633 2.20405 2.10125C3.34283 0.996843 5.03964 0.879028 6.61428 1.08124Z"
    fill="var(--color-bg-success)"
  />
  <path
    d="M7.67646 3.30478C8.63764 4.01291 9.97455 4.52645 10.0813 5.69778C10.196 6.95673 9.27379 8.11537 8.17565 8.78394C7.17638 9.39232 5.95829 9.19594 4.82022 8.90084C3.69075 8.60796 2.38006 8.25693 1.99162 7.1804C1.61848 6.14628 2.60071 5.22245 3.14742 4.26481C3.66054 3.36599 3.95287 2.15965 4.9825 1.9414C6.02235 1.72099 6.82695 2.67893 7.67646 3.30478Z"
    fill="var(--color-bg-caution)"
  />
  <path
    d="M4.27385 3.75313C4.67003 3.13564 5.43684 3.10246 6.09381 3.20674C6.65492 3.29581 7.10948 3.72012 7.45249 4.25768C7.78534 4.77933 8.01204 5.40524 7.89963 6.03684C7.78479 6.68213 7.38537 7.19161 6.88102 7.46878C6.37512 7.74682 5.78379 7.77992 5.27947 7.47683C4.77876 7.17592 4.50979 6.57239 4.33936 5.94128C4.14091 5.20644 3.88484 4.35945 4.27385 3.75313Z"
    fill="var(--color-bg-alert)"
  />
</svg>
