<!-- ##color:mono ##group:map -->
<svg viewBox="0 0 28 28" fill="none" xmlns="http://www.w3.org/2000/svg">
  <path
    fill-rule="evenodd"
    clip-rule="evenodd"
    d="M14 3C9.58172 3 6 6.58172 6 11V11.1992C6 12.3856 6.25748 13.5579 6.75466 14.6351L6.82538 14.7883C8.26664 17.9111 10.1772 20.7949 12.4907 23.3398L14 25L15.5093 23.3398C17.8228 20.7949 19.7334 17.9111 21.1746 14.7883L21.2453 14.6351C21.7425 13.5579 22 12.3856 22 11.1992V11C22 6.58172 18.4183 3 14 3ZM14 15C16.2091 15 18 13.2091 18 11C18 8.79086 16.2091 7 14 7C11.7909 7 10 8.79086 10 11C10 13.2091 11.7909 15 14 15Z"
  />
</svg>
