<!-- ##color:mono ##group:objects -->
<svg viewBox="0 0 12 12" xmlns="http://www.w3.org/2000/svg">
  <path
    fill-rule="evenodd"
    clip-rule="evenodd"
    d="M2 3V2C2 1.44772 2.44772 1 3 1H9C9.55228 1 10 1.44772 10 2V3C10.5523 3 11 3.44772 11 4V8C11 8.55228 10.5523 9 10 9H9V10C9 10.5523 8.55228 11 8 11H4C3.44772 11 3 10.5523 3 10V9H2C1.44772 9 1 8.55228 1 8V4C1 3.44772 1.44772 3 2 3ZM3 2H9V3H3V2ZM3 8V6C3 5.44772 3.44772 5 4 5H8C8.55228 5 9 5.44772 9 6V8H10V4H2V8H3ZM4 6H8V10H4V6Z"
  />
</svg>
