<!-- ##color:mono ##group:objects -->
<svg viewBox="0 0 16 16" xmlns="http://www.w3.org/2000/svg">
  <path
    fill-rule="evenodd"
    clip-rule="evenodd"
    d="M3 2V4H2C1.44772 4 1 4.44772 1 5V12C1 12.5523 1.44772 13 2 13H4V14C4 14.5523 4.44772 15 5 15H11C11.5523 15 12 14.5523 12 14V13H14C14.5523 13 15 12.5523 15 12V5C15 4.44772 14.5523 4 14 4H13V2C13 1.44772 12.5523 1 12 1H4C3.44772 1 3 1.44772 3 2ZM5 3V4H11V3H5ZM12 11H13V6H3V11H4V9C4 8.44772 4.44772 8 5 8H11C11.5523 8 12 8.44772 12 9V11ZM6 13V10H10V13H6Z"
  />
</svg>
