<!-- ##color:mono ##group:objects -->
<svg viewBox="0 0 24 24" xmlns="http://www.w3.org/2000/svg">
  <path
    fill-rule="evenodd"
    clip-rule="evenodd"
    d="M6 3V6H3C2.44772 6 2 6.44771 2 7V17C2 17.5523 2.44772 18 3 18H6V21C6 21.5523 6.44771 22 7 22H17C17.5523 22 18 21.5523 18 21V12C18 11.4477 17.5523 11 17 11H7C6.44772 11 6 11.4477 6 12V16H4V8H20V16H18.0007V18H21C21.5523 18 22 17.5523 22 17V7C22 6.44772 21.5523 6 21 6H18V3C18 2.44772 17.5523 2 17 2H7C6.44772 2 6 2.44772 6 3ZM8 4V6H16V4H8ZM8 20V13H16V20H8Z"
  />
</svg>
