<!-- ##color:mono ##group:objects -->
<svg viewBox="0 0 28 28" fill="none" xmlns="http://www.w3.org/2000/svg">
  <path
    d="M14 7.24363C8.96611 7.24363 5 11.3132 5 16.1842C5 18.3227 6.22421 20.4517 7.5 22L5 24C3.27132 21.902 2 19.1759 2 16.1842C2 9.28588 7.53624 4 14 4C20.4638 4 26 9.28588 26 16.1842C26 19.1759 24.7287 21.902 23 24L20.5 22C21.7758 20.4517 23 18.3227 23 16.1842C23 11.3132 19.0339 7.24363 14 7.24363Z"
  />
  <path
    d="M15.5 18C14.9477 18.9566 13.7245 19.2843 12.768 18.7321C11.8114 18.1798 11.4836 16.9566 12.0359 16C12.7835 14.7051 17.7655 10.076 17.7655 10.076C17.7655 10.076 16.2476 16.7051 15.5 18Z"
  />
</svg>
