<!-- ##color:mono ##group:objects -->
<svg viewBox="0 0 28 28" xmlns="http://www.w3.org/2000/svg">
  <path
    fill-rule="evenodd"
    clip-rule="evenodd"
    d="M17.9979 20.1281C16.3316 21.3575 14.2717 22.0841 12.0421 22.0841C6.49598 22.0841 2 17.5881 2 12.0421C2 6.49598 6.49598 2 12.0421 2C17.5881 2 22.0841 6.49598 22.0841 12.0421C22.0841 14.2717 21.3575 16.3316 20.1281 17.9979L26 23.8698L23.8698 26L17.9979 20.1281ZM19.0715 12.0421C19.0715 15.9243 15.9243 19.0715 12.0421 19.0715C8.1598 19.0715 5.01262 15.9243 5.01262 12.0421C5.01262 8.1598 8.1598 5.01262 12.0421 5.01262C15.9243 5.01262 19.0715 8.1598 19.0715 12.0421Z"
  />
</svg>
