<!-- ##color:mono ##group:human -->
<svg viewBox="0 0 12 12" xmlns="http://www.w3.org/2000/svg">
  <path
    fill-rule="evenodd"
    clip-rule="evenodd"
    d="M5 10C7.76143 10 10 7.76143 10 5C10 2.23857 7.76143 0 5 0C2.23857 0 0 2.23857 0 5C0 7.76143 2.23857 10 5 10ZM6.73369 6.0237C6.55028 6.30827 6.29796 6.54193 6.00015 6.70296C5.70233 6.86398 5.36867 6.94717 5.03011 6.94481C4.69156 6.94244 4.35909 6.85461 4.06355 6.68944C3.76801 6.52426 3.51898 6.28712 3.33957 6L2.5 6.52463C2.68115 6.81451 2.90985 7.07028 3.17542 7.28175C3.30243 7.38287 3.43787 7.47388 3.58057 7.55363C4.02167 7.80016 4.5179 7.93126 5.02319 7.93478C5.5285 7.93832 6.02652 7.81415 6.47102 7.57381C6.61482 7.49605 6.75151 7.40695 6.87991 7.30762C7.14842 7.09987 7.38066 6.84732 7.56584 6.55998L6.73369 6.0237ZM3 4H4V5H3V4ZM7 4H6V5H7V4Z"
  />
</svg>
