<!-- ##color:mono ##group:human -->
<svg viewBox="0 0 16 16" xmlns="http://www.w3.org/2000/svg">
  <path
    fill-rule="evenodd"
    clip-rule="evenodd"
    d="M16 8C16 12.4183 12.4183 16 8 16C3.58173 16 0 12.4183 0 8C0 3.58173 3.58173 0 8 0C12.4183 0 16 3.58173 16 8ZM4.99979 5H6.99979V7H4.99979V5ZM8.99979 5H10.9998V7H8.99979V5ZM6.09277 11.961C5.49286 11.6182 4.99197 11.1259 4.6389 10.532L6.00594 9.71933C6.21863 10.0771 6.52037 10.3737 6.88176 10.5802C7.24316 10.7867 7.65189 10.8961 8.06812 10.8977C8.48434 10.8992 8.89389 10.793 9.25684 10.5892C9.6198 10.3855 9.92378 10.0912 10.1392 9.73502L11.5 10.558C11.1424 11.1492 10.6378 11.6378 10.0353 11.976C9.43285 12.3142 8.75302 12.4906 8.06209 12.488C7.37115 12.4854 6.69267 12.3038 6.09277 11.961Z"
  />
</svg>
