<!-- ##color:multiple ##group:geo -->
<svg viewBox="0 0 16 16" fill="none" xmlns="http://www.w3.org/2000/svg">
  <path
    d="M11 1L13.5525 5.74038L13 6.29289L12 5.29289L11 6.29289L10 5.29289L9 6.29289L8.44749 5.74038L11 1Z"
    fill="#BDCDD9"
  />
  <path
    d="M14 14V6.70711L13 7.70711L12 6.70711L11 7.70711L10 6.70711L9 7.70711L8 6.70711L7.84171 6.8654L4 14H14Z"
    fill="#BDCDD9"
  />
  <path
    fill-rule="evenodd"
    clip-rule="evenodd"
    d="M1 13.5C1 13.2239 1.22386 13 1.5 13C1.93344 13 2.28174 13.0728 2.5771 13.1933C2.86994 13.3127 3.08863 13.4705 3.262 13.6054C3.29381 13.6302 3.32372 13.6537 3.35204 13.6759C3.64345 13.9045 3.76525 14 4.03479 14C4.31495 14 4.43649 13.8912 4.68124 13.6464C4.68556 13.6421 4.68992 13.6378 4.69432 13.6334C4.94941 13.378 5.32715 13 6.03479 13C6.74243 13 7.12017 13.378 7.37526 13.6334C7.37966 13.6378 7.38402 13.6421 7.38834 13.6464C7.63309 13.8912 7.75463 14 8.03479 14C8.31495 14 8.43649 13.8912 8.68124 13.6464C8.68556 13.6421 8.68992 13.6378 8.69432 13.6334C8.94941 13.378 9.32715 13 10.0348 13C10.7424 13 11.1202 13.378 11.3753 13.6334C11.3797 13.6378 11.384 13.6421 11.3883 13.6464C11.6331 13.8912 11.7546 14 12.0348 14C12.2967 14 12.4028 13.9119 12.6754 13.6857C12.7026 13.6632 12.7314 13.6392 12.7622 13.6139C12.9277 13.4777 13.1394 13.3169 13.4291 13.1952C13.7208 13.0727 14.0668 13 14.5 13C14.7761 13 15 13.2239 15 13.5C15 13.7761 14.7761 14 14.5 14C14.1832 14 13.971 14.0523 13.8162 14.1173C13.6593 14.1831 13.5358 14.2723 13.3976 14.3861C13.3707 14.4082 13.3427 14.4321 13.3133 14.4571C13.0496 14.6815 12.6753 15 12.0348 15C11.3271 15 10.9494 14.622 10.6943 14.3666C10.6899 14.3622 10.6856 14.3579 10.6812 14.3536C10.4365 14.1088 10.3149 14 10.0348 14C9.75463 14 9.63309 14.1088 9.38834 14.3536C9.38402 14.3579 9.37966 14.3622 9.37526 14.3666C9.12017 14.622 8.74243 15 8.03479 15C7.32715 15 6.94941 14.622 6.69432 14.3666C6.68992 14.3622 6.68556 14.3579 6.68124 14.3536C6.43649 14.1088 6.31495 14 6.03479 14C5.75463 14 5.63309 14.1088 5.38834 14.3536C5.38402 14.3579 5.37966 14.3622 5.37526 14.3666C5.12017 14.622 4.74243 15 4.03479 15C3.40192 15 3.01515 14.6891 2.73771 14.4661C2.70641 14.441 2.6765 14.4169 2.64779 14.3946C2.49997 14.2795 2.3662 14.1873 2.1994 14.1192C2.03511 14.0522 1.81656 14 1.5 14C1.22386 14 1 13.7761 1 13.5Z"
    fill="var(--color-typo-primary)"
  />
  <rect
    x="4"
    y="1"
    width="4"
    height="1"
    rx="0.5"
    fill="var(--color-typo-primary)"
  />
  <path
    d="M6 3L4.5 5H5.46521L5.46521 10H4.5L6 12L7.5 10H6.46521L6.46521 5H7.5L6 3Z"
    fill="var(--color-typo-primary)"
  />
</svg>
