<!-- ##color:mono ##group:objects -->
<svg viewBox="0 0 28 28" fill="none" xmlns="http://www.w3.org/2000/svg">
  <path
    fill-rule="evenodd"
    clip-rule="evenodd"
    d="M27 22C27 23.1046 26.1046 24 25 24H3C1.89543 24 1 23.1046 1 22V12.5311C1 12.1831 1.09083 11.841 1.26351 11.5389L4.42416 5.00772C4.78024 4.38457 5.44293 4 6.16065 4H21.8394C22.5571 4 23.2198 4.38457 23.5758 5.00772L26.7365 11.5389C26.9092 11.841 27 12.1831 27 12.5311V22ZM4.45525 12H8C8.55228 12 9 12.4477 9 13V15C9 15.5523 9.44772 16 10 16H18C18.5523 16 19 15.5523 19 15V13C19 12.4477 19.4477 12 20 12H23.5447L21.259 7H6.74097L4.45525 12Z"
  />
</svg>
