<svg
  width="24"
  height="24"
  viewBox="0 0 24 24"
  fill="none"
  xmlns="http://www.w3.org/2000/svg"
>
  <path
    d="M13.9219 6.91492C14.0584 6.54584 14.5802 6.54584 14.7167 6.91492L15.9329 10.201C16.3623 11.3612 17.2773 12.2764 18.4376 12.7057L21.7237 13.9219C22.092 14.0587 22.0922 14.58 21.7237 14.7167L18.4376 15.9329C17.2772 16.3622 16.3622 17.2772 15.9329 18.4376L14.7167 21.7237C14.58 22.0922 14.0587 22.092 13.9219 21.7237L12.7057 18.4376C12.2764 17.2773 11.3612 16.3623 10.201 15.9329L6.91492 14.7167C6.54584 14.5802 6.54584 14.0584 6.91492 13.9219L10.201 12.7057C11.3613 12.2764 12.2764 11.3613 12.7057 10.201L13.9219 6.91492Z"
    fill="black"
  />
  <path
    d="M5.64188 2.13841C5.71016 1.95386 5.97103 1.95386 6.03932 2.13841L6.64686 3.78095C6.86153 4.36109 7.31909 4.81858 7.89921 5.0333L9.54278 5.64188C9.7267 5.71043 9.72686 5.97093 9.54278 6.03932L7.89921 6.64686C7.31906 6.86155 6.86155 7.31906 6.64686 7.89921L6.03932 9.54278C5.97093 9.72686 5.71043 9.7267 5.64188 9.54278L5.0333 7.89921C4.81858 7.31909 4.36109 6.86153 3.78095 6.64686L2.13841 6.03932C1.95386 5.97103 1.95386 5.71016 2.13841 5.64188L3.78095 5.0333C4.36115 4.81861 4.81861 4.36115 5.0333 3.78095L5.64188 2.13841Z"
    fill="black"
  />
</svg>
