<!-- ##color:multiple ##group:tools -->
<svg viewBox="0 0 16 16" fill="none" xmlns="http://www.w3.org/2000/svg">
  <path
    fill-rule="evenodd"
    clip-rule="evenodd"
    d="M12.5815 4.12559L14.3536 2.35356L13.6465 1.64645L11.8744 3.41848C10.8291 2.53359 9.47686 2.00001 8.00001 2.00001C4.6863 2.00001 2.00001 4.6863 2.00001 8.00001C2.00001 9.47686 2.53359 10.8291 3.41848 11.8744L1.64645 13.6465L2.35356 14.3536L4.12559 12.5815C5.17093 13.4664 6.52316 14 8.00001 14C11.3137 14 14 11.3137 14 8.00001C14 6.52316 13.4664 5.17093 12.5815 4.12559ZM10.4528 4.84008C9.77549 4.31355 8.92436 4.00001 8.00001 4.00001C5.79087 4.00001 4.00001 5.79087 4.00001 8.00001C4.00001 8.92436 4.31355 9.77549 4.84008 10.4528L10.4528 4.84008ZM5.54719 11.1599L11.1599 5.54719C11.6865 6.22453 12 7.07565 12 8.00001C12 10.2091 10.2091 12 8.00001 12C7.07565 12 6.22453 11.6865 5.54719 11.1599Z"
    fill="var(--color-typo-primary)"
  />
  <path
    fill-rule="evenodd"
    clip-rule="evenodd"
    d="M8.77706 5.10161C8.52922 5.03534 8.26874 5 8 5C6.34315 5 5 6.34315 5 8C5 8.26874 5.03534 8.52922 5.10161 8.77706L6.00385 7.87483C6.06591 6.86996 6.86996 6.06591 7.87483 6.00385L8.77706 5.10161ZM8.12517 9.99615C9.13004 9.93409 9.93409 9.13004 9.99615 8.12517L10.8984 7.22294C10.9647 7.47078 11 7.73126 11 8C11 9.65685 9.65685 11 8 11C7.73126 11 7.47078 10.9647 7.22294 10.8984L8.12517 9.99615Z"
    fill="var(--color-typo-secondary)"
  />
</svg>
