<!-- ##color:mono ##group:social -->
<svg viewBox="0 0 12 12" xmlns="http://www.w3.org/2000/svg">
  <path
    d="M9.67365 2H5.91163C5.91163 2.45181 6.09055 2.88511 6.40903 3.20459C6.72751 3.52406 7.15947 3.70354 7.60987 3.70354H8.30287V4.37475C8.30348 5.31473 9.06294 6.0766 10 6.07721V2.32738C10 2.14662 9.85393 2 9.67365 2Z"
  />
  <path
    d="M7.72268 3.97067H3.96069C3.96127 4.91065 4.72074 5.67252 5.65782 5.67314H6.35083V6.34649C6.35202 7.28647 7.11201 8.04782 8.04907 8.04782V4.2981C8.04907 4.11729 7.90293 3.97067 7.72268 3.97067Z"
  />
  <path
    d="M5.76202 5.92285H2C2 6.86369 2.76035 7.62639 3.69823 7.62639H4.39341V8.29756C4.39403 9.23669 5.15218 9.99822 6.08841 10V6.25025C6.08841 6.06944 5.94227 5.92285 5.76202 5.92285Z"
  />
</svg>
