<!-- ##color:mono ##group:social -->
<svg viewBox="0 0 24 24" xmlns="http://www.w3.org/2000/svg">
  <path
    d="M20.2657 3H11.8012C11.8012 4.01657 12.2037 4.9915 12.9203 5.71032C13.6369 6.42914 14.6088 6.83297 15.6222 6.83297H17.1815V8.34318C17.1828 10.4581 18.8916 12.1723 21 12.1737V3.73659C21 3.3299 20.6713 3 20.2657 3Z"
  />
  <path
    d="M15.876 7.434H7.41156C7.41286 9.54896 9.12166 11.2632 11.2301 11.2646H12.7894V12.7796C12.7921 14.8946 14.502 16.6076 16.6104 16.6076V8.17073C16.6104 7.7639 16.2816 7.434 15.876 7.434Z"
  />
  <path
    d="M11.4645 11.8264H3C3 13.9433 4.71079 15.6594 6.82103 15.6594H8.38518V17.1695C8.38656 19.2825 10.0924 20.996 12.1989 21V12.5631C12.1989 12.1562 11.8701 11.8264 11.4645 11.8264Z"
  />
</svg>
