<!-- ##color:mono ##group:social -->
<svg viewBox="0 0 16 16" xmlns="http://www.w3.org/2000/svg">
  <path
    d="M13.5105 2H7.86745C7.86745 2.67771 8.13583 3.32767 8.61355 3.80688C9.09127 4.28609 9.7392 4.55531 10.4148 4.55531H11.4543V5.56212C11.4552 6.97209 12.5944 8.1149 14 8.11582V2.49106C14 2.21993 13.7809 2 13.5105 2Z"
  />
  <path
    d="M10.584 4.956H4.94104C4.94191 6.36598 6.08111 7.50878 7.48674 7.5097H8.52625V8.51973C8.52804 9.92971 9.66802 11.0717 11.0736 11.0717V5.44716C11.0736 5.17593 10.8544 4.956 10.584 4.956Z"
  />
  <path
    d="M7.64303 7.88427H2C2 9.29554 3.14053 10.4396 4.54735 10.4396H5.59012V11.4463C5.59104 12.855 6.72826 13.9973 8.13261 14V8.37538C8.13261 8.10416 7.91341 7.88427 7.64303 7.88427Z"
  />
</svg>
