<!-- ##color:mono ##group:social -->
<svg viewBox="0 0 12 12" xmlns="http://www.w3.org/2000/svg">
  <path
    fill-rule="evenodd"
    clip-rule="evenodd"
    d="M6.00337 2C3.75213 2 1.93222 3.83333 1.93222 6.1014C1.93222 7.91439 3.0983 9.44905 4.71596 9.99222C4.91821 10.033 4.99229 9.90397 4.99229 9.79538C4.99229 9.7003 4.98562 9.37439 4.98562 9.0348C3.85313 9.2793 3.6173 8.54589 3.6173 8.54589C3.4353 8.07056 3.16563 7.94839 3.16563 7.94839C2.79497 7.69714 3.19263 7.69714 3.19263 7.69714C3.6038 7.72431 3.81955 8.11814 3.81955 8.11814C4.18346 8.74281 4.76988 8.56631 5.00579 8.45764C5.03946 8.19281 5.14737 8.00947 5.26196 7.90764C4.35871 7.81256 3.40838 7.45948 3.40838 5.88407C3.40838 5.4359 3.57005 5.06924 3.82621 4.78407C3.7858 4.68224 3.64421 4.26116 3.86671 3.69758C3.86671 3.69758 4.21046 3.58891 4.98554 4.11857C5.31738 4.0288 5.6596 3.98313 6.00337 3.98274C6.34712 3.98274 6.69753 4.03032 7.02112 4.11857C7.79628 3.58891 8.14003 3.69758 8.14003 3.69758C8.36253 4.26116 8.22086 4.68224 8.18044 4.78407C8.44336 5.06924 8.59836 5.4359 8.59836 5.88407C8.59836 7.45948 7.64803 7.80573 6.73803 7.90764C6.88637 8.03664 7.01437 8.28106 7.01437 8.66814C7.01437 9.21814 7.0077 9.65955 7.0077 9.7953C7.0077 9.90397 7.08187 10.033 7.28403 9.9923C8.90169 9.44897 10.0678 7.91439 10.0678 6.1014C10.0744 3.83333 8.24786 2 6.00337 2Z"
  />
</svg>
