<!-- ##color:mono ##group:social -->
<svg viewBox="0 0 16 16" xmlns="http://www.w3.org/2000/svg">
  <path
    fill-rule="evenodd"
    clip-rule="evenodd"
    d="M8.00507 2C4.62821 2 1.89835 4.74999 1.89835 8.1521C1.89835 10.8716 3.64746 13.1736 6.07395 13.9883C6.37733 14.0496 6.48845 13.856 6.48845 13.6931C6.48845 13.5505 6.47845 13.0616 6.47845 12.5522C4.77971 12.919 4.42596 11.8188 4.42596 11.8188C4.15296 11.1058 3.74846 10.9226 3.74846 10.9226C3.19247 10.5457 3.78896 10.5457 3.78896 10.5457C4.40571 10.5865 4.72933 11.1772 4.72933 11.1772C5.27521 12.1142 6.15483 11.8495 6.5087 11.6865C6.5592 11.2892 6.72108 11.0142 6.89295 10.8615C5.53808 10.7188 4.11259 10.1892 4.11259 7.8261C4.11259 7.15385 4.35509 6.60386 4.73933 6.17611C4.67871 6.02336 4.46634 5.39174 4.80008 4.54636C4.80008 4.54636 5.31571 4.38337 6.47833 5.17786C6.97609 5.0432 7.48942 4.97469 8.00507 4.97411C8.52069 4.97411 9.04632 5.04549 9.53169 5.17786C10.6944 4.38337 11.2101 4.54636 11.2101 4.54636C11.5438 5.39174 11.3313 6.02336 11.2707 6.17611C11.6651 6.60386 11.8976 7.15385 11.8976 7.8261C11.8976 10.1892 10.4721 10.7086 9.10707 10.8615C9.32956 11.055 9.52156 11.4216 9.52156 12.0022C9.52156 12.8272 9.51156 13.4893 9.51156 13.693C9.51156 13.856 9.62281 14.0496 9.92606 13.9885C12.3526 13.1735 14.1017 10.8716 14.1017 8.1521C14.1117 4.74999 11.3718 2 8.00507 2Z"
  />
</svg>
