<!-- ##color:mono ##group:social -->
<svg viewBox="0 0 24 24" xmlns="http://www.w3.org/2000/svg">
  <path
    fill-rule="evenodd"
    clip-rule="evenodd"
    d="M12.0076 3C6.9423 3 2.8475 7.12498 2.8475 12.2281C2.8475 16.3074 5.47118 19.7604 9.11091 20.9825C9.56598 21.0744 9.73266 20.7839 9.73266 20.5396C9.73266 20.3257 9.71766 19.5924 9.71766 18.8283C7.16955 19.3784 6.63893 17.7283 6.63893 17.7283C6.22943 16.6588 5.62268 16.3839 5.62268 16.3839C4.78868 15.8186 5.68343 15.8186 5.68343 15.8186C6.60855 15.8797 7.09399 16.7658 7.09399 16.7658C7.9128 18.1713 9.23223 17.7742 9.76304 17.5297C9.83879 16.9338 10.0816 16.5213 10.3394 16.2922C8.30711 16.0783 6.16886 15.2838 6.16886 11.7392C6.16886 10.7308 6.53261 9.90578 7.10899 9.26416C7.01805 9.03504 6.69949 8.0876 7.20011 6.81955C7.20011 6.81955 7.97354 6.57505 9.71747 7.76679C10.4641 7.56479 11.2341 7.46203 12.0076 7.46117C12.781 7.46117 13.5695 7.56823 14.2975 7.76679C16.0416 6.57505 16.8151 6.81955 16.8151 6.81955C17.3157 8.0876 16.9969 9.03504 16.906 9.26416C17.4976 9.90578 17.8463 10.7308 17.8463 11.7392C17.8463 15.2838 15.7081 16.0629 13.6606 16.2922C13.9943 16.5824 14.2823 17.1324 14.2823 18.0033C14.2823 19.2408 14.2673 20.234 14.2673 20.5394C14.2673 20.7839 14.4342 21.0744 14.8891 20.9827C18.5288 19.7602 21.1525 16.3074 21.1525 12.2281C21.1675 7.12498 17.0577 3 12.0076 3Z"
  />
</svg>
