<!-- ##color:mono ##group:social -->
<svg viewBox="0 0 12 12" xmlns="http://www.w3.org/2000/svg">
  <path
    d="M0.999966 5.89882C3.0568 5.87516 4.208 5.74053 4.97425 4.97428C5.74049 4.20803 5.87512 3.05683 5.89878 1C3.21716 1.05323 1.0532 3.2172 0.999966 5.89882Z"
  />
  <path
    d="M6.19742 1.00282C6.22115 3.05788 6.35601 4.20838 7.1219 4.97428C7.87613 5.7285 9.00332 5.87077 11 5.8976C10.9468 3.24869 8.834 1.10517 6.19742 1.00282Z"
  />
  <path
    d="M10.9972 6.19866C9.00225 6.22558 7.87577 6.36807 7.1219 7.12194C6.36804 7.8758 6.22555 9.00228 6.19862 10.9972C8.80266 10.8955 10.8954 8.80269 10.9972 6.19866Z"
  />
  <path
    d="M5.89758 11C5.87074 9.00335 5.72847 7.87616 4.97425 7.12194C4.20835 6.35604 3.05785 6.22119 1.00279 6.19745C1.10514 8.83404 3.24866 10.9468 5.89758 11Z"
  />
</svg>
