<!-- ##color:mono ##group:objects -->

<svg
  width="32"
  height="32"
  viewBox="0 0 32 32"
  fill="none"
  xmlns="http://www.w3.org/2000/svg"
>
  <path
    d="M13 18C13.5523 18 14 18.4477 14 19V22C14 22.5523 13.5523 23 13 23C12.4477 23 12 22.5523 12 22V19C12 18.4477 12.4477 18 13 18Z"
    fill="black"
  />
  <path
    d="M16 18C16.5523 18 17 18.4477 17 19V22C17 22.5523 16.5523 23 16 23C15.4477 23 15 22.5523 15 22V19C15 18.4477 15.4477 18 16 18Z"
    fill="black"
  />
  <path
    d="M19 18C19.5523 18 20 18.4477 20 19V22C20 22.5523 19.5523 23 19 23C18.4477 23 18 22.5523 18 22V19C18 18.4477 18.4477 18 19 18Z"
    fill="black"
  />
  <path
    fill-rule="evenodd"
    clip-rule="evenodd"
    d="M20.6943 6C21.6154 6 22.4093 6.62712 22.6328 7.50488L22.6699 7.68359L23.6797 14H27C27.5523 14 28 14.4477 28 15C28 15.5523 27.5523 16 27 16H25.6924L24.2607 25.3037C24.12 26.2183 23.3737 26.9083 22.4678 26.9912L22.2842 27H9.71582L9.53223 26.9912C8.68682 26.9139 7.98039 26.3082 7.77539 25.4844L7.73926 25.3037L6.30762 16H5C4.44772 16 4 15.5523 4 15C4 14.4477 4.44772 14 5 14H8.32031L9.33008 7.68359L9.36719 7.50488C9.57584 6.68563 10.2811 6.08429 11.123 6.00781L11.3057 6H20.6943ZM9.71582 25H22.2842L23.6689 16H8.33105L9.71582 25ZM10.3457 14H21.6543L20.6943 8H11.3057L10.3457 14Z"
    fill="black"
  />
</svg>
