<!-- ##color:multiple ##group:seismic -->
<svg viewBox="0 0 16 16" fill="none" xmlns="http://www.w3.org/2000/svg">
  <path
    d="M1 2.7C1 2.3134 1.3134 2 1.7 2H7.58579C7.851 2 8.10536 2.10536 8.29289 2.29289L9.70711 3.70711C9.89464 3.89464 10.149 4 10.4142 4H14C14.5523 4 15 4.44772 15 5V13.3C15 13.6866 14.6866 14 14.3 14H2C1.44772 14 1 13.5523 1 13V2.7Z"
    fill="var(--color-bg-caution)"
  />
  <path
    d="M1 4.7C1 4.3134 1.3134 4 1.7 4H14C14.5523 4 15 4.44772 15 5V13.3C15 13.6866 14.6866 14 14.3 14H2C1.44772 14 1 13.5523 1 13V4.7Z"
    fill="var(--color-bg-normal)"
  />
</svg>
