<!-- ##color:multiple ##group:well -->
<svg viewBox="0 0 24 24" fill="none" xmlns="http://www.w3.org/2000/svg">
  <path
    fill-rule="evenodd"
    clip-rule="evenodd"
    d="M9 2H7V14H9V22H11V12H9V2ZM17 2H15V12H13V22H15V14H17V2Z"
    fill="var(--color-typo-primary)"
  />
  <path
    fill-rule="evenodd"
    clip-rule="evenodd"
    d="M6 2H3V3.88197C3 4.61722 3.17119 5.34237 3.5 6L3.55279 6.10557C3.84689 6.69377 4 7.34237 4 8C4 8.65763 3.84689 9.30623 3.55279 9.89443L3.44721 10.1056C3.15311 10.6938 3 11.3424 3 12C3 12.6576 3.15311 13.3062 3.44721 13.8944L3.55279 14.1056C3.84689 14.6938 4 15.3424 4 16C4 16.6576 3.84689 17.3062 3.55279 17.8944L3.5 18C3.17119 18.6576 3 19.3828 3 20.118V22H6H8V15H6V2ZM18 2H21V3.88197C21 4.61722 20.8288 5.34237 20.5 6L20.4472 6.10557C20.1531 6.69377 20 7.34237 20 8C20 8.65763 20.1531 9.30623 20.4472 9.89443L20.5528 10.1056C20.8469 10.6938 21 11.3424 21 12C21 12.6576 20.8469 13.3062 20.5528 13.8944L20.4472 14.1056C20.1531 14.6938 20 15.3424 20 16C20 16.6576 20.1531 17.3062 20.4472 17.8944L20.5 18C20.8288 18.6576 21 19.3828 21 20.118V22H18H16V15H18V2Z"
    fill="var(--color-typo-secondary)"
  />
</svg>
