<!-- ##color:mono ##group:action -->
<svg viewBox="0 0 12 12" xmlns="http://www.w3.org/2000/svg">
  <path
    d="M9.15833 8.45468C9.68582 7.77701 10 6.9251 10 5.99981C10 3.95972 8.47274 2.27635 6.4992 2.03065V1.02441C9.02624 1.2749 11 3.40686 11 5.99981C11 7.20137 10.5762 8.30395 9.86983 9.16618L9.15833 8.45468Z"
  />
  <path
    d="M5.4992 1.02457C2.97292 1.27581 1 3.40741 1 5.99981C1 7.20001 1.42288 8.30144 2.12776 9.16323L2.83933 8.45167C2.31325 7.77448 2 6.92373 2 5.99981C2 3.96027 3.52643 2.27726 5.4992 2.03085V1.02457Z"
  />
  <path
    d="M6 9.99981C5.07521 9.99981 4.22372 9.68597 3.54622 9.15899L2.8347 9.87051C3.69677 10.5763 4.79893 10.9998 6 10.9998C7.1997 10.9998 8.30072 10.5773 9.16235 9.87292L8.45076 9.16133C7.77376 9.6869 6.92342 9.99981 6 9.99981Z"
  />
  <path d="M5 8L8 6L5 4V8Z" />
</svg>
