<!-- ##color:mono ##group:action -->
<svg viewBox="0 0 24 24" xmlns="http://www.w3.org/2000/svg">
  <path
    d="M11.0011 2.04932C5.94724 2.55054 2 6.81433 2 12C2 14.4006 2.84588 16.6037 4.25585 18.3273L5.67897 16.9042C4.62662 15.5497 4 13.8481 4 12C4 7.92006 7.05424 4.55343 11.0011 4.06181V2.04932Z"
  />
  <path
    d="M18.3215 16.9036C19.3736 15.5493 20 13.8478 20 12C20 7.9208 16.9469 4.55465 13.0011 4.06208V2.04953C18.0539 2.55176 22 6.81507 22 12C22 14.4004 21.1543 16.6032 19.7446 18.3268L18.3215 16.9036Z"
  />
  <path
    d="M12 20C10.1506 20 8.44778 19.3725 7.09285 18.3187L5.6698 19.7418C7.39388 21.1532 9.59805 22 12 22C14.4022 22 16.6066 21.153 18.3308 19.7413L16.9077 18.3183C15.5527 19.3723 13.8497 20 12 20Z"
  />
  <path d="M9.5 16L16.5 12L9.5 8V16Z" />
</svg>
