<!-- ##color:mono ##group:new -->
<svg viewBox="0 0 16 16" xmlns="http://www.w3.org/2000/svg">
  <path
    d="M12.171 10.7585C12.6949 9.96787 13 9.01965 13 8.00016C13 5.58059 11.2814 3.56243 8.99828 3.09983V1.0708C12.3914 1.55529 15 4.47309 15 8.00016C15 9.5729 14.4813 11.0245 13.6057 12.1932L12.171 10.7585Z"
  />
  <path
    d="M6.99828 1.07129C3.60682 1.55726 1 4.47428 1 8.00016C1 9.57171 1.51789 11.0223 2.39232 12.1906L3.82719 10.7557C3.30441 9.96566 3 9.01846 3 8.00016C3 5.58181 4.7169 3.56446 6.99828 3.10053V1.07129Z"
  />
  <path
    d="M8 13.0002C6.98013 13.0002 6.03158 12.6948 5.24078 12.1706L3.80609 13.6052C4.97497 14.4812 6.42689 15.0002 8 15.0002C9.57193 15.0002 11.0228 14.482 12.1913 13.6072L10.7564 12.1724C9.9662 12.6955 9.01868 13.0002 8 13.0002Z"
  />
  <path d="M6.5 10.5L10.5 8L6.5 5.5V10.5Z" />
</svg>
