<!-- ##color:mono ##group:new -->
<svg viewBox="0 0 12 12" xmlns="http://www.w3.org/2000/svg">
  <path
    fill-rule="evenodd"
    clip-rule="evenodd"
    d="M11 6C11 8.76143 8.76143 11 6 11C3.23857 11 1 8.76143 1 6C1 3.23857 3.23857 1 6 1C8.76143 1 11 3.23857 11 6ZM6.47461 4.05005C6.81979 4.05005 7.09961 3.77023 7.09961 3.42505C7.09961 3.07986 6.81979 2.80005 6.47461 2.80005C6.12943 2.80005 5.84961 3.07986 5.84961 3.42505C5.84961 3.77023 6.12943 4.05005 6.47461 4.05005ZM7.09961 8.33649L7.01811 8.71416C6.77362 8.82355 6.57831 8.90681 6.43288 8.96407C6.28729 9.02148 6.11812 9.05005 5.92538 9.05005C5.62939 9.05005 5.39917 8.96785 5.23497 8.8046C5.07077 8.64067 4.98865 8.43297 4.98865 8.18098C4.98865 8.08345 4.99461 7.98311 5.007 7.88089C5.01949 7.77855 5.03935 7.66328 5.06654 7.53445L5.3721 6.30846C5.39928 6.19107 5.42238 6.07983 5.44089 5.97464C5.45966 5.8701 5.4687 5.77393 5.4687 5.68735C5.4687 5.53078 5.44011 5.42126 5.38318 5.3597C5.32625 5.29829 5.21762 5.26712 5.05635 5.26712C4.97736 5.26712 4.89618 5.28146 4.81342 5.3092C4.79408 5.31569 4.77541 5.32211 4.75737 5.32848C4.73366 5.33684 4.71104 5.34509 4.68954 5.35321C4.65709 5.36548 4.62714 5.37743 4.59961 5.38896L4.68132 5.011C4.88148 4.91861 5.07281 4.83949 5.25583 4.77383C5.43884 4.70799 5.61179 4.67505 5.77534 4.67505C6.06931 4.67505 6.29613 4.75558 6.45541 4.91666C6.6147 5.07785 6.69431 5.2868 6.69431 5.54428C6.69431 5.59756 6.68909 5.69144 6.67784 5.82561C6.66687 5.96007 6.64642 6.08327 6.61664 6.19533L6.31238 7.4164C6.28745 7.51448 6.26501 7.6266 6.24553 7.75276C6.2254 7.8781 6.21577 7.97388 6.21577 8.03812C6.21577 8.20024 6.24767 8.31094 6.3116 8.3698C6.37601 8.42863 6.48694 8.45792 6.6445 8.45792C6.71846 8.45792 6.80263 8.44304 6.89615 8.41382C6.98941 8.38461 7.05742 8.35895 7.09961 8.33649Z"
  />
</svg>
