<!-- ##color:mono ##group:new -->
<svg viewBox="0 0 16 16" xmlns="http://www.w3.org/2000/svg">
  <path
    fill-rule="evenodd"
    clip-rule="evenodd"
    d="M15 8C15 11.866 11.866 15 8 15C4.13401 15 1 11.866 1 8C1 4.13401 4.13401 1 8 1C11.866 1 15 4.13401 15 8ZM8.72461 5.34998C9.20786 5.34998 9.59961 4.95822 9.59961 4.47498C9.59961 3.99173 9.20786 3.59998 8.72461 3.59998C8.24136 3.59998 7.84961 3.99173 7.84961 4.47498C7.84961 4.95822 8.24136 5.34998 8.72461 5.34998ZM9.59961 11.351L9.48551 11.8797C9.14322 12.0329 8.86979 12.1494 8.66619 12.2296C8.46236 12.31 8.22553 12.35 7.95569 12.35C7.54131 12.35 7.219 12.2349 6.98912 12.0063C6.75924 11.7768 6.64426 11.4861 6.64426 11.1333C6.64426 10.9967 6.65261 10.8563 6.66995 10.7132C6.68744 10.5699 6.71525 10.4085 6.75331 10.2281L7.18109 8.51175C7.21914 8.34739 7.25149 8.19167 7.2774 8.04441C7.30367 7.89805 7.31634 7.7634 7.31634 7.64219C7.31634 7.423 7.2763 7.26967 7.1966 7.18347C7.1169 7.09752 6.96482 7.05388 6.73904 7.05388C6.62846 7.05388 6.5148 7.07396 6.39894 7.11279C6.28258 7.15178 6.18312 7.18945 6.09961 7.22446L6.214 6.69531C6.49423 6.56596 6.76209 6.4552 7.01832 6.36328C7.27455 6.2711 7.51665 6.22498 7.74565 6.22498C8.15718 6.22498 8.47473 6.33773 8.69773 6.56323C8.92073 6.78889 9.03219 7.08143 9.03219 7.44191C9.03219 7.5165 9.02488 7.64791 9.00914 7.83575C8.99377 8.024 8.96516 8.19648 8.92344 8.35337L8.49749 10.0629C8.46258 10.2002 8.43119 10.3571 8.40389 10.5338C8.37571 10.7093 8.36224 10.8433 8.36224 10.9333C8.36224 11.1603 8.40689 11.3152 8.4964 11.3976C8.58656 11.48 8.74186 11.521 8.96245 11.521C9.06601 11.521 9.18384 11.5002 9.31477 11.4593C9.44533 11.4184 9.54055 11.3824 9.59961 11.351Z"
  />
</svg>
