<!-- ##color:mono ##group:new -->
<svg viewBox="0 0 24 24" xmlns="http://www.w3.org/2000/svg">
  <path
    fill-rule="evenodd"
    clip-rule="evenodd"
    d="M22 12C22 17.5228 17.5228 22 12 22C6.47715 22 2 17.5228 2 12C2 6.47715 6.47715 2 12 2C17.5228 2 22 6.47715 22 12ZM13 8C13.8284 8 14.5 7.32843 14.5 6.5C14.5 5.67157 13.8284 5 13 5C12.1716 5 11.5 5.67157 11.5 6.5C11.5 7.32843 12.1716 8 13 8ZM14.3044 18.309L14.5 17.5321C14.3988 17.5783 14.2355 17.6311 14.0117 17.6912C13.7872 17.7513 13.5853 17.7819 13.4077 17.7819C13.0296 17.7819 12.7633 17.7217 12.6088 17.6006C12.4553 17.4796 12.3788 17.2518 12.3788 16.9183C12.3788 16.7861 12.4019 16.5891 12.4502 16.3313C12.497 16.0718 12.5508 15.8411 12.6107 15.6394L13.3409 13.1274C13.4124 12.8969 13.4614 12.6435 13.4878 12.3668C13.5147 12.0908 13.5273 11.8977 13.5273 11.7882C13.5273 11.2585 13.3362 10.8286 12.9539 10.497C12.5716 10.1657 12.0273 10 11.3218 10C10.9292 10 10.5142 10.0678 10.0749 10.2032C9.63569 10.3383 9.17649 10.501 8.6961 10.6911L8.5 11.4686C8.64315 11.4172 8.81366 11.3618 9.01314 11.3045C9.21175 11.2475 9.40659 11.218 9.59617 11.218C9.98322 11.218 10.2439 11.2821 10.3806 11.4084C10.5172 11.5351 10.5858 11.7604 10.5858 12.0824C10.5858 12.2605 10.5641 12.4584 10.5191 12.6734C10.4747 12.8898 10.4192 13.1187 10.354 13.3602L9.62063 15.8822C9.55539 16.1472 9.50772 16.3843 9.47773 16.5949C9.448 16.8052 9.43369 17.0116 9.43369 17.2122C9.43369 17.7306 9.63079 18.1579 10.0249 18.4951C10.419 18.8309 10.9715 19 11.6819 19C12.1444 19 12.5504 18.9412 12.8998 18.8231C13.2489 18.7053 13.7176 18.5341 14.3044 18.309Z"
  />
</svg>
