<!-- ##color:mono ##group:indices -->
<svg viewBox="0 0 16 16" xmlns="http://www.w3.org/2000/svg">
  <path
    fill-rule="evenodd"
    clip-rule="evenodd"
    d="M8 15C11.866 15 15 11.866 15 8C15 4.13401 11.866 1 8 1C4.13401 1 1 4.13401 1 8C1 11.866 4.13401 15 8 15ZM9.29204 4.07205C9.29204 4.66412 8.81207 5.14409 8.22 5.14409C7.62792 5.14409 7.14795 4.66412 7.14795 4.07205C7.14795 3.47997 7.62792 3 8.22 3C8.81207 3 9.29204 3.47997 9.29204 4.07205ZM7.31255 12.7481C7.9883 13.135 8.83203 13.0701 9.44067 12.5844L9.47025 12.5608C9.83664 12.2685 10.0859 11.854 10.1723 11.3934L10.3552 10.4192C10.3634 10.3754 10.3517 10.3301 10.3232 10.2958C10.2947 10.2614 10.2524 10.2416 10.2077 10.2416H8.7534C8.68123 10.2416 8.61929 10.293 8.60598 10.3639L8.47263 11.0743C8.46266 11.1275 8.43389 11.1753 8.39163 11.209L8.36205 11.2326C8.30763 11.2761 8.23217 11.2819 8.17175 11.2473C8.10936 11.2116 8.07624 11.1404 8.08902 11.0697L8.94652 6.91651L8.94702 6.91385C8.99447 6.66105 8.92687 6.40013 8.76261 6.20218C8.59836 6.00423 8.35441 5.88965 8.09717 5.88965H6.41848C6.34965 5.88965 6.28965 5.93649 6.27296 6.00327L5.91561 7.43265C5.90441 7.47746 5.91448 7.52493 5.9429 7.56134C5.97133 7.59775 6.01494 7.61903 6.06113 7.61903H7.05086L6.39015 10.7462L6.38953 10.7495C6.24038 11.5442 6.61087 12.3464 7.31255 12.7481Z"
  />
</svg>
