<!-- ##color:multiple ##group:solver -->
<svg viewBox="0 0 24 24" fill="none" xmlns="http://www.w3.org/2000/svg">
  <path
    fill-rule="evenodd"
    clip-rule="evenodd"
    d="M3 3C2.44772 3 2 3.44772 2 4V16C2 16.5523 2.44772 17 3 17H11V19H8V21H16V19H13V17H21C21.5523 17 22 16.5523 22 16V4C22 3.44772 21.5523 3 21 3H3ZM20 5H4V15H20V5Z"
    fill="var(--color-typo-ghost)"
  />
  <path
    fill-rule="evenodd"
    clip-rule="evenodd"
    d="M5 6H9V14H5V6ZM10 6H14V14H10V6ZM19 6H15V14H19V6Z"
    fill="var(--color-typo-secondary)"
  />
</svg>
