<!-- ##color:mono ##group:action -->
<svg viewBox="0 0 12 12" xmlns="http://www.w3.org/2000/svg">
  <path
    d="M2.5 3.58898C2.5 2.43533 3.43521 1.50012 4.58886 1.50012H5V2.50012H4.58886C3.9875 2.50012 3.5 2.98762 3.5 3.58898C3.5 4.20891 3.22464 4.79681 2.7484 5.19368L2 5.81735V6.18232L2.74826 6.80588C3.22459 7.20282 3.5 7.79083 3.5 8.41088C3.5 9.01245 3.98767 9.50012 4.58924 9.50012H5V10.5001H4.58924C3.43539 10.5001 2.5 9.56473 2.5 8.41088C2.5 8.08761 2.35641 7.78105 2.10808 7.5741L1 6.65069V5.34898L2.10822 4.42546C2.35647 4.21858 2.5 3.91213 2.5 3.58898ZM7.62971 2.50012H7V1.50012H7.62971C8.66264 1.50012 9.5 2.33748 9.5 3.37041C9.5 3.83204 9.70505 4.26983 10.0597 4.56535L11 5.34889V6.6506L10.0598 7.43413C9.7051 7.72977 9.5 8.16768 9.5 8.62945C9.5 9.66259 8.66247 10.5001 7.62933 10.5001H7V9.50012H7.62933C8.11019 9.50012 8.5 9.11031 8.5 8.62945C8.5 7.87092 8.83691 7.15156 9.41962 6.66594L10 6.18225V5.81728L9.41954 5.33359C8.83689 4.84807 8.5 4.12883 8.5 3.37041C8.5 2.88976 8.11036 2.50012 7.62971 2.50012ZM7.44721 4.22365L5.44721 8.22365L4.55279 7.77643L6.55279 3.77643L7.44721 4.22365Z"
  />
</svg>
