<!-- ##color:mono ##group:action -->
<svg viewBox="0 0 16 16" xmlns="http://www.w3.org/2000/svg">
  <path
    d="M2 4C2 2.34315 3.34315 1 5 1H6V3H5C4.44772 3 4 3.44772 4 4V5C4 5.94427 3.55542 6.83344 2.8 7.4L2 8L2.8 8.6C3.55542 9.16656 4 10.0557 4 11V12C4 12.5523 4.44772 13 5 13H6V15H5C3.34315 15 2 13.6569 2 12V11C2 10.6852 1.85181 10.3889 1.6 10.2L0 9V7L1.6 5.8C1.85181 5.61115 2 5.31476 2 5V4ZM11 3H10V1H11C12.6569 1 14 2.34315 14 4V4.5C14 5.12951 14.2964 5.72229 14.8 6.1L16 7V9L14.8 9.9C14.2964 10.2777 14 10.8705 14 11.5V12C14 13.6569 12.6569 15 11 15H10V13H11C11.5523 13 12 12.5523 12 12V11.5C12 10.241 12.5928 9.05542 13.6 8.3L14 8L13.6 7.7C12.5928 6.94458 12 5.75903 12 4.5V4C12 3.44772 11.5523 3 11 3ZM10.8682 4.99614L6.86824 11.9961L5.13176 11.0039L9.13176 4.00386L10.8682 4.99614Z"
  />
</svg>
