<!-- ##color:mono ##group:action -->
<svg viewBox="0 0 24 24" xmlns="http://www.w3.org/2000/svg">
  <path
    d="M4.57143 6C4.57143 4.34315 5.91457 3 7.57143 3H9V5H7.57143C7.01914 5 6.57143 5.44771 6.57143 6V8.35517C6.57143 9.28094 6.14401 10.1549 5.41325 10.7232L4 11.8224V12.1776L5.41325 13.2768C6.14401 13.8451 6.57143 14.7191 6.57143 15.6448V18C6.57143 18.5523 7.01914 19 7.57143 19H9V21H7.57143C5.91457 21 4.57143 19.6569 4.57143 18V15.6448C4.57143 15.3362 4.42896 15.0449 4.18537 14.8555L2 13.1558V10.8442L4.18537 9.14452C4.42896 8.95506 4.57143 8.66376 4.57143 8.35517V6ZM16.4286 5H15V3H16.4286C18.0854 3 19.4286 4.34315 19.4286 6V7.86608C19.4286 8.48326 19.7135 9.06587 20.2007 9.44479L22 10.8442V13.1558L20.2007 14.5552C19.7135 14.9341 19.4286 15.5167 19.4286 16.1339V18C19.4286 19.6569 18.0854 21 16.4286 21H15V19H16.4286C16.9809 19 17.4286 18.5523 17.4286 18V16.1339C17.4286 14.8996 17.9985 13.7343 18.9728 12.9765L20 12.1776V11.8224L18.9728 11.0235C17.9985 10.2657 17.4286 9.10044 17.4286 7.86608V6C17.4286 5.44771 16.9809 5 16.4286 5ZM15.8575 7.5145L9.85749 17.5145L8.14251 16.4855L14.1425 6.4855L15.8575 7.5145Z"
  />
</svg>
