<!-- ##color:mono ##group:action -->
<svg viewBox="0 0 24 24" xmlns="http://www.w3.org/2000/svg">
  <path
    d="M16.0552 16.7157L8.94157 12.5922C8.95806 12.5098 8.97118 12.4262 8.98077 12.3415C8.99283 12.2424 9 12.1422 9 12.0402L8.99992 12.0218L9 12C9 11.812 8.9827 11.628 8.94961 11.4495L16.0796 7.31653C16.6029 7.75616 17.267 8.0241 18 8.0241C19.66 8.0241 21 6.67871 21 5.01205C21 5.01003 21 5.00802 21 5.006C21 5.004 21 5.002 21 5C21 3.82074 20.3196 2.80039 19.3299 2.31015C18.9294 2.11153 18.4779 2 18 2C17.5237 2 17.0737 2.11078 16.6742 2.30813C15.6823 2.79759 15 3.81912 15 5C15 5.002 15 5.004 15 5.006C15 5.00802 15 5.01003 15 5.01205C15 5.03501 15.0004 5.05787 15.0011 5.08065C15.0057 5.25453 15.025 5.42472 15.058 5.59002L7.94315 9.71428C7.41966 9.26882 6.74123 9 6 9C4.34315 9 3 10.3431 3 12L3.00007 12.02L3 12.0402C3 12.2457 3.02039 12.4304 3.05925 12.5962C3.33576 13.9675 4.5473 15 6 15C6.65073 15 7.25307 14.7928 7.74465 14.4408C7.81122 14.4188 7.87587 14.3828 7.93847 14.3294L15.05 18.4517C15.0172 18.6295 15 18.8127 15 19C15 20.6569 16.3431 22 18 22C19.6569 22 21 20.6569 21 19C21 17.3431 19.6569 16 18 16C17.258 16 16.5789 16.2694 16.0552 16.7157Z"
  />
</svg>
