<!-- ##color:mono ##group:action -->
<svg viewBox="0 0 12 12" xmlns="http://www.w3.org/2000/svg">
  <path
    d="M11 2C11 3.10457 10.1046 4 9 4C8.45881 4 7.96782 3.78504 7.60776 3.43585L4.8885 5.33989C4.96073 5.54656 5 5.76869 5 6C5 6.2285 4.96168 6.44806 4.89111 6.65258L7.61337 8.55873C7.97291 8.21273 8.46161 8 9 8C10.1046 8 11 8.89543 11 10C11 11.1046 10.1046 12 9 12C7.89543 12 7 11.1046 7 10C7 9.79522 7.03078 9.59763 7.08796 9.4116L4.3383 7.48627C3.98388 7.80562 3.51464 8 3 8C1.89543 8 1 7.10457 1 6C1 4.89543 1.89543 4 3 4C3.51181 4 3.97872 4.19225 4.33245 4.50847L7.0856 2.58069C7.02993 2.39691 7 2.20195 7 2C7 0.895431 7.89543 0 9 0C10.1046 0 11 0.895431 11 2Z"
  />
</svg>
