<!-- ##color:mono ##group:action -->
<svg viewBox="0 0 16 16" xmlns="http://www.w3.org/2000/svg">
  <path
    d="M12.7498 5.6647C11.8994 6.15569 10.8804 6.09016 10.1145 5.58111L6.98867 7.76982C6.99562 7.84575 6.99917 7.92267 6.99917 8.00042C6.99917 8.14982 6.98606 8.29616 6.96093 8.43836L10.0084 10.4939C10.085 10.4371 10.1656 10.3841 10.2502 10.3353C11.4457 9.64506 12.9745 10.0547 13.6647 11.2502C14.3549 12.4457 13.9453 13.9745 12.7498 14.6647C11.5543 15.3549 10.0255 14.9453 9.3353 13.7498C9.06021 13.2733 8.95981 12.7439 9.01425 12.2358L5.85206 10.1029C5.46219 10.3542 4.99792 10.5 4.49958 10.5C3.1191 10.5 2 9.3809 2 8.00042C2 6.61994 3.1191 5.50083 4.49958 5.50083C5.06861 5.50083 5.59323 5.69097 6.01336 6.01118L9.03159 3.8978C8.87153 2.9034 9.32607 1.86885 10.2502 1.3353C11.4457 0.645057 12.9745 1.05468 13.6647 2.25021C14.3549 3.44574 13.9453 4.97446 12.7498 5.6647Z"
  />
</svg>
