<!-- ##color:multiple ##group:geo -->
<svg viewBox="0 0 16 16" fill="none" xmlns="http://www.w3.org/2000/svg">
  <path d="M1 8.5H15" stroke="var(--color-typo-primary)" />
  <path
    fill-rule="evenodd"
    clip-rule="evenodd"
    d="M3 13C3.55228 13 4 12.5523 4 12C4 11.4477 3.55228 11 3 11C2.44772 11 2 11.4477 2 12C2 12.5523 2.44772 13 3 13ZM3 14C4.10457 14 5 13.1046 5 12C5 10.8954 4.10457 10 3 10C1.89543 10 1 10.8954 1 12C1 13.1046 1.89543 14 3 14Z"
    fill="var(--color-typo-primary)"
  />
  <path
    fill-rule="evenodd"
    clip-rule="evenodd"
    d="M8 13C8.55228 13 9 12.5523 9 12C9 11.4477 8.55228 11 8 11C7.44772 11 7 11.4477 7 12C7 12.5523 7.44772 13 8 13ZM8 14C9.10457 14 10 13.1046 10 12C10 10.8954 9.10457 10 8 10C6.89543 10 6 10.8954 6 12C6 13.1046 6.89543 14 8 14Z"
    fill="var(--color-typo-primary)"
  />
  <path
    fill-rule="evenodd"
    clip-rule="evenodd"
    d="M13 13C13.5523 13 14 12.5523 14 12C14 11.4477 13.5523 11 13 11C12.4477 11 12 11.4477 12 12C12 12.5523 12.4477 13 13 13ZM13 14C14.1046 14 15 13.1046 15 12C15 10.8954 14.1046 10 13 10C11.8954 10 11 10.8954 11 12C11 13.1046 11.8954 14 13 14Z"
    fill="var(--color-typo-primary)"
  />
  <path
    d="M5 5C5 6.10457 4.10457 7 3 7C1.89543 7 1 6.10457 1 5C1 3.5 3 1 3 1C3 1 5 3.5 5 5Z"
    fill="var(--color-typo-success)"
  />
  <path
    d="M10 5C10 6.10457 9.10457 7 8 7C6.89543 7 6 6.10457 6 5C6 3.5 8 1 8 1C8 1 10 3.5 10 5Z"
    fill="var(--color-typo-success)"
  />
  <path
    d="M15 5C15 6.10457 14.1046 7 13 7C11.8954 7 11 6.10457 11 5C11 3.5 13 1 13 1C13 1 15 3.5 15 5Z"
    fill="var(--color-typo-success)"
  />
</svg>
