<!-- ##color:mono ##group:geology -->
<svg viewBox="0 0 28 28" fill="none" xmlns="http://www.w3.org/2000/svg">
  <path
    d="M9.72042 8.49789C9.54068 8.27821 9.55664 7.95806 9.75735 7.75736C9.95806 7.55665 10.2782 7.54068 10.4979 7.72042L13.3972 10.0926C14.0857 9.87561 14.8684 10.04 15.4142 10.5858C15.859 11.0305 16.0505 11.6326 15.9887 12.2129L17.4615 13.4179C17.6904 13.6052 17.7076 13.9493 17.4984 14.1584L16.1584 15.4984C15.9493 15.7076 15.6052 15.6904 15.4179 15.4615L14.2129 13.9887C13.6326 14.0505 13.0305 13.859 12.5858 13.4142C12.04 12.8684 11.8756 12.0857 12.0926 11.3972L9.72042 8.49789Z"
  />
  <path
    fill-rule="evenodd"
    clip-rule="evenodd"
    d="M24 12C24 16.1006 21.5318 19.6248 18 21.1679V23H20C20.5523 23 21 23.4477 21 24V25C21 25.5523 20.5523 26 20 26H8C7.44772 26 7 25.5523 7 25V24C7 23.4477 7.44772 23 8 23H10V21.1679C6.46819 19.6248 4 16.1006 4 12C4 6.47715 8.47715 2 14 2C19.5228 2 24 6.47715 24 12ZM14 19C18.1421 19 21 16.1421 21 12C21 7.85786 18.1421 5 14 5C9.85786 5 7 7.85786 7 12C7 16.1421 9.85786 19 14 19Z"
  />
</svg>
