<svg viewBox="0 0 12 12" xmlns="http://www.w3.org/2000/svg">
  <path
    d="M0.5 6.36364C0.5 3.63636 4.07716 0 4.07716 0C4.07716 0 5.26234 1.20464 6.26826 2.74745C5.93878 3.37406 5.70314 4.03119 5.70314 4.6281C5.70314 5.87988 6.49168 6.86209 7.57143 7.17087C7.2194 8.84088 5.78872 10 4.07716 10C2.10153 10 0.5 8.45558 0.5 6.36364Z"
  />
  <path
    d="M7.20798 3.63217C7.00662 4.0759 6.92857 4.41343 6.92857 4.63736C6.92857 5.41504 7.4847 5.97069 8.21429 5.97069C8.94387 5.97069 9.5 5.41504 9.5 4.63736C9.5 4.41343 9.42195 4.0759 9.22059 3.63217C9.02557 3.20241 8.75312 2.75594 8.4602 2.33825C8.37789 2.22089 8.29536 2.10776 8.21428 2C8.13321 2.10776 8.05068 2.22089 7.96837 2.33825C7.67545 2.75594 7.403 3.20241 7.20798 3.63217Z"
  />
</svg>
