<!-- ##color:mono ##group:objects -->
<svg viewBox="0 0 28 28" xmlns="http://www.w3.org/2000/svg">
  <path
    fill-rule="evenodd"
    clip-rule="evenodd"
    d="M23.2552 14C23.2552 14.408 23.2182 14.792 23.1688 15.176L25.7719 17.156C26.0063 17.336 26.068 17.66 25.9199 17.924L23.4526 22.076C23.3046 22.34 22.9838 22.448 22.7001 22.34L19.6282 21.14C18.9867 21.608 18.2959 22.016 17.5433 22.316L17.0745 25.496C17.0375 25.784 16.7785 26 16.4701 26H11.5354C11.227 26 10.9679 25.784 10.9309 25.496L10.4621 22.316C9.70957 22.016 9.01872 21.62 8.37722 21.14L5.30539 22.34C5.03399 22.436 4.7009 22.34 4.55286 22.076L2.08553 17.924C1.93749 17.66 1.99918 17.336 2.23357 17.156L4.8366 15.176C4.78726 14.792 4.75025 14.396 4.75025 14C4.75025 13.604 4.78726 13.208 4.8366 12.824L2.23357 10.844C1.99918 10.664 1.92516 10.34 2.08553 10.076L4.55286 5.924C4.7009 5.66 5.02165 5.552 5.30539 5.66L8.37722 6.86C9.01872 6.392 9.70957 5.984 10.4621 5.684L10.9309 2.504C10.9679 2.216 11.227 2 11.5354 2H16.4701C16.7785 2 17.0375 2.216 17.0745 2.504L17.5433 5.684C18.2959 5.984 18.9867 6.38 19.6282 6.86L22.7001 5.66C22.9715 5.564 23.3046 5.66 23.4526 5.924L25.9199 10.076C26.068 10.34 26.0063 10.664 25.7719 10.844L23.1688 12.824C23.2182 13.208 23.2552 13.592 23.2552 14ZM14 18C16.2091 18 18 16.2091 18 14C18 11.7909 16.2091 10 14 10C11.7909 10 10 11.7909 10 14C10 16.2091 11.7909 18 14 18Z"
  />
</svg>
